{
.appVersion = "1361";
copyright = "Copyright 2014-2017 Indian Type Foundry (info@indiantypefoundry.com) with Reserved Font Name 'Poppins'. Copyright 2019 Google LLC.";
customParameters = (
{
name = unicodeRanges;
value = (
0,
1,
2,
3,
5,
31,
32,
33,
35,
36,
38,
45,
60,
62
);
},
{
name = fsType;
value = (
);
},
{
name = "Enforce Compatibility Check";
value = 1;
},
{
name = "Use Typo Metrics";
value = 1;
},
{
name = license;
value = "This Font Software is licensed under the SIL Open Font License, Version 1.1. This license is available with a FAQ at: http://scripts.sil.org/OFL";
},
{
name = licenseURL;
value = "http://scripts.sil.org/OFL";
},
{
name = vendorID;
value = GOOG;
},
{
name = Axes;
value = (
{
Name = "Optical size";
Tag = opsz;
},
{
Name = Weight;
Tag = wght;
}
);
}
);
date = "2023-05-04 08:42:08 +0000";
designer = "Colophon Foundry, Jonny Pinhorn";
designerURL = "https://www.indiantypefoundry.com";
familyName = "DM Sans";
featurePrefixes = (
{
automatic = 1;
code = "languagesystem DFLT dflt;\012\012languagesystem latn dflt;\012languagesystem latn AZE;\012languagesystem latn CRT;\012languagesystem latn KAZ;\012languagesystem latn TAT;\012languagesystem latn TRK;\012languagesystem latn ROM;\012languagesystem latn MOL;\012languagesystem latn CAT;\012";
name = Languagesystems;
}
);
features = (
{
automatic = 1;
code = "feature locl;\012feature sups;\012feature numr;\012feature dnom;\012feature frac;\012feature ordn;\012feature calt;\012feature salt;\012feature ss01;\012feature ss02;\012feature ss03;\012feature ss04;\012feature ss05;\012feature ss06;\012feature ss07;\012feature ss08;\012";
name = aalt;
},
{
automatic = 1;

glyphs = (
{
glyphname = A;
lastChange = "2023-05-19 14:03:36 +0000";
layers = (
{
anchors = (
{
name = bottom;
position = "{314, 0}";
},
{
name = ogonek;
position = "{667, 0}";
},
{
name = top;
position = "{438, 700}";
}
);
layerId = "A390C1A2-E540-434D-BB9E-4BCEE875BA63";
paths = (
{
closed = 1;
nodes = (
"140 0 LINE",
"420 609 LINE",
"424 609 LINE",
"486 0 LINE",
"667 0 LINE",
"581 700 LINE",
"295 700 LINE",
"-39 0 LINE"
);
},
{
closed = 1;
nodes = (
"574 188 LINE",
"555 320 LINE",
"171 320 LINE",
"103 188 LINE"
);
}
);
width = 716;
},
{
anchors = (
{
name = bottom;
position = "{263, 0}";
},
{
name = ogonek;
position = "{565, 0}";
},
{
name = top;
position = "{387, 700}";
}
);
layerId = "F5F01D5B-AEA3-4AC3-B3D8-92550D1582D7";
paths = (
{
closed = 1;
nodes = (
"49 0 LINE",
"376 638 LINE",
"380 638 LINE",
"476 0 LINE",
"565 0 LINE",
"454 700 LINE",
"324 700 LINE",
"-39 0 LINE"
);
},
{
closed = 1;
nodes = (
"483 219 LINE",
"471 287 LINE",
"154 287 LINE",
"118 219 LINE"
);
}
);
width = 614;
},
{
anchors = (
{
name = bottom;
position = "{255, 0}";
},
{
name = ogonek;
position = "{549, 0}";
},
{
name = top;
position = "{379, 700}";
}
);
layerId = "3B8883BF-F483-4B97-AC7C-CABF8B821093";
paths = (
{
closed = 1;
nodes = (
"35 0 LINE",
"371 654 LINE",
"375 654 LINE",
"475 0 LINE",
"549 0 LINE",
"436 700 LINE",
"327 700 LINE",
"-39 0 LINE"
);
},
{
closed = 1;
nodes = (
"469 224 LINE",
"458 282 LINE",
"152 282 LINE",
"121 224 LINE"
);
}
);
width = 598;
},
{
anchors = (
{
name = bottom;
position = "{228, 0}";
},
{
name = ogonek;
position = "{491, 0}";
},
{
name = top;
position = "{351, 700}";
}
);
layerId = "5D382461-81E1-4DF2-8677-8A6F02AD5363";
paths = (
{
closed = 1;
nodes = (
"-17 0 LINE",
"346 670 LINE",
"350 670 LINE",
"471 0 LINE",
"491 0 LINE",
"364 700 LINE",
"340 700 LINE",
"-39 0 LINE"
);
},
{
closed = 1;
nodes = (
"439 256 LINE",
"434 274 LINE",
"118 274 LINE",
"105 256 LINE"
);
}
);
width = 540;
},
{
anchors = (
{
name = bottom;
position = "{327, 0}";
},
{
name = ogonek;
position = "{680, 0}";
},
{
name = top;
position = "{450, 700}";
}
);
layerId = "1615C59E-33DE-4B88-B2CC-A48C7D56A125";
paths = (
{
closed = 1;
nodes = (
"153 0 LINE",
"416 511 LINE",
"416 511 LINE",
"499 0 LINE",
"680 0 LINE",
"550 700 LINE",
"352 700 LINE",
"-26 0 LINE"
);
},
{
closed = 1;
nodes = (
"580 144 LINE",
"560 276 LINE",
"176 276 LINE",
"109 144 LINE"
);
}
);
width = 746;
},
{
anchors = (
{
name = bottom;
position = "{287, 0}";
},
{
name = ogonek;
position = "{589, 0}";
},
{
name = top;
position = "{410, 700}";
}
);
layerId = "A6F5E7A4-47EF-4F55-BF18-0ACACB57A720";
paths = (
{
closed = 1;
nodes = (
"73 0 LINE",
"392 595 LINE",
"392 595 LINE",
"499 0 LINE",
"589 0 LINE",
"456 700 LINE",
"367 700 LINE",
"-15 0 LINE"
);
},
{
closed = 1;
nodes = (
"500 180 LINE",
"488 248 LINE",
"171 248 LINE",
"135 180 LINE"
);
}
);
width = 665;
},
{
anchors = (
{
name = bottom;
position = "{283, 0}";
},
{
name = ogonek;
position = "{577, 0}";
},
{
name = top;
position = "{406, 700}";
}
);
layerId = "2D111E5E-352D-4630-9162-BCEF010D26CF";
paths = (
{
closed = 1;
nodes = (
"62 0 LINE",
"391 612 LINE",
"391 612 LINE",
"503 0 LINE",
"577 0 LINE",
"445 700 LINE",
"370 700 LINE",
"-11 0 LINE"
);
},
{
closed = 1;
nodes = (
"496 197 LINE",
"485 254 LINE",
"168 254 LINE",
"138 197 LINE"
);
}
);
width = 658;
},
{
anchors = (
{
name = bottom;
position = "{255, 0}";
},
{
name = ogonek;
position = "{520, 0}";
},
{
name = top;
position = "{378, 700}";
}
);
layerId = "EB62C368-BB48-47C0-A466-DA94204A0DE4";
paths = (
{
closed = 1;
nodes = (
"12 0 LINE",
"378 678 LINE",
"378 678 LINE",
"500 0 LINE",
"520 0 LINE",
"393 700 LINE",
"369 700 LINE",
"-10 0 LINE"
);
},
{
closed = 1;
nodes = (
"468 256 LINE",
"463 274 LINE",
"147 274 LINE",
"134 256 LINE"
);
}
);
width = 601;
},
{
anchors = (
{
name = bottom;
position = "{325, 0}";
},
{
name = ogonek;
position = "{678, 0}";
},
{
name = top;
position = "{449, 700}";
}
);
layerId = "66953C5E-8AEB-4AF5-804F-512B0A9BA4E6";
paths = (
{
closed = 1;
nodes = (
"151 0 LINE",
"416 513 LINE",
"416 513 LINE",
"497 0 LINE",
"678 0 LINE",
"549 700 LINE",
"348 700 LINE",
"-28 0 LINE"
);
},
{
closed = 1;
nodes = (
"574 144 LINE",
"554 274 LINE",
"170 274 LINE",
"103 144 LINE"
);
}
);
width = 738;
},
{
anchors = (
{
name = bottom;
position = "{257, 0}";
},
{
name = ogonek;
position = "{522, 0}";
},
{
name = top;
position = "{381, 700}";
}
);
layerId = "90D50F69-F6F7-4633-9462-ED0440D3064F";
paths = (
{
closed = 1;
nodes = (
"14 0 LINE",
"379 676 LINE",
"379 676 LINE",
"501 0 LINE",
"522 0 LINE",
"395 700 LINE",
"371 700 LINE",
"-8 0 LINE"
);
},
{
closed = 1;
nodes = (
"470 256 LINE",
"465 274 LINE",
"149 274 LINE",
"136 256 LINE"
);
}
);
width = 601;
},
{
anchors = (
{
name = bottom;
position = "{282, 0}";
},
{
name = ogonek;
position = "{576, 0}";
},
{
name = top;
position = "{406, 700}";
}
);
layerId = "973C19EE-3504-4BDF-BF6D-4817D3AD4E7D";
paths = (
{
closed = 1;
nodes = (
"64 0 LINE",
"391 614 LINE",
"391 614 LINE",
"504 0 LINE",
"576 0 LINE",
"442 700 LINE",
"371 700 LINE",
"-12 0 LINE"
);
},
{
closed = 1;
nodes = (
"509 186 LINE",
"499 242 LINE",
"144 242 LINE",
"116 186 LINE"
);
}
);
width = 652;
},
{
anchors = (
{
name = bottom;
position = "{288, 0}";
},
{
name = ogonek;
position = "{590, 0}";
},
{
name = top;
position = "{412, 700}";
}
);
layerId = "8231B9DE-059C-4C71-A8C4-ABDA89A7D05C";
paths = (
{
closed = 1;
nodes = (
"76 0 LINE",
"395 601 LINE",
"395 601 LINE",
"503 0 LINE",
"590 0 LINE",
"457 700 LINE",
"368 700 LINE",
"-14 0 LINE"
);
},
{
closed = 1;
nodes = (
"518 180 LINE",
"507 246 LINE",
"148 246 LINE",
"114 180 LINE"
);
}
);
width = 664;
}
);
leftKerningGroup = A;
rightKerningGroup = A;
unicode = 0041;
userData = {
com.schriftgestaltung.Glyphs.ColorIndex = 4;
com.typesupply.AccentFactory.yCoordinates = {
bottom = {
name = origin;
type = glyphMetric;
};
top = {
name = capHeight;
type = fontInfo;
};
};
};
},
{
glyphname = AE;
lastChange = "2023-05-19 14:03:36 +0000";
layers = (
{
anchors = (
{
name = bottom;
position = "{524, 0}";
},
{
name = top;
position = "{648, 700}";
}
);
layerId = "A390C1A2-E540-434D-BB9E-4BCEE875BA63";
paths = (
{
closed = 1;
nodes = (
"146 0 LINE",
"534 573 LINE",
"538 573 LINE",
"437 0 LINE",
"861 0 LINE",
"885 135 LINE",
"632 135 LINE",
"660 293 LINE",
"883 293 LINE",
"906 423 LINE",
"683 423 LINE",
"708 565 LINE",
"961 565 LINE",
"985 700 LINE",
"444 700 LINE",
"-39 0 LINE"
);
},
{
closed = 1;
nodes = (
"567 144 LINE",
"547 276 LINE",
"163 276 LINE",
"96 144 LINE"
);
}
);
width = 935;
},
{
anchors = (
{
name = bottom;
position = "{457, 0}";
},
{
name = top;
position = "{581, 700}";
}
);
layerId = "F5F01D5B-AEA3-4AC3-B3D8-92550D1582D7";
paths = (
{
closed = 1;
nodes = (
"53 0 LINE",
"520 633 LINE",
"524 633 LINE",
"412 0 LINE",
"785 0 LINE",
"797 67 LINE",
"508 67 LINE",
"553 320 LINE",
"812 320 LINE",
"823 386 LINE",
"564 386 LINE",
"608 633 LINE",
"897 633 LINE",
"909 700 LINE",
"484 700 LINE",
"-39 0 LINE"
);
},
{
closed = 1;
nodes = (
"523 219 LINE",
"511 287 LINE",
"194 287 LINE",
"158 219 LINE"
);
}
);
width = 859;
},
{
anchors = (
{
name = bottom;
position = "{398, 0}";
},
{
name = top;
position = "{569, 700}";
}
);
layerId = "3B8883BF-F483-4B97-AC7C-CABF8B821093";
paths = (
{
closed = 1;
nodes = (
"38 0 LINE",
"518 644 LINE",
"522 644 LINE",
"408 0 LINE",
"773 0 LINE",
"783 56 LINE",
"488 56 LINE",
"535 324 LINE",
"800 324 LINE",
"810 380 LINE",
"545 380 LINE",
"592 644 LINE",
"887 644 LINE",
"897 700 LINE",
"491 700 LINE",
"-39 0 LINE"
);
},
{
closed = 1;
nodes = (
"509 224 LINE",
"498 282 LINE",
"192 282 LINE",
"161 224 LINE"
);
}
);
width = 847;
},
{
anchors = (
{
name = bottom;
position = "{506, 0}";
},
{
name = top;
position = "{532, 700}";
}
);
layerId = "5D382461-81E1-4DF2-8677-8A6F02AD5363";
paths = (
{
closed = 1;
nodes = (
"-14 0 LINE",
"515 682 LINE",
"519 682 LINE",
"398 0 LINE",
"733 0 LINE",
"736 18 LINE",
"421 18 LINE",
"478 340 LINE",
"763 340 LINE",
"766 358 LINE",
"481 358 LINE",
"539 682 LINE",
"854 682 LINE",
"857 700 LINE",
"505 700 LINE",
"-39 0 LINE"
);
},
{
closed = 1;
nodes = (
"451 256 LINE",
"455 274 LINE",
"189 274 LINE",
"176 256 LINE"
);
}
);
width = 807;
},
{
anchors = (
{
name = bottom;
position = "{500, 0}";
},
{
name = top;
position = "{656, 700}";
}
);
layerId = "1615C59E-33DE-4B88-B2CC-A48C7D56A125";
paths = (
{
closed = 1;
nodes = (
"159 0 LINE",
"551 573 LINE",
"551 573 LINE",
"450 0 LINE",
"874 0 LINE",
"898 135 LINE",
"645 135 LINE",
"673 293 LINE",
"896 293 LINE",
"919 423 LINE",
"696 423 LINE",
"721 565 LINE",
"974 565 LINE",
"998 700 LINE",
"457 700 LINE",
"-26 0 LINE"
);
},
{
closed = 1;
nodes = (
"553 118 LINE",
"576 248 LINE",
"238 248 LINE",
"143 118 LINE"
);
}
);
width = 976;
},
{
anchors = (
{
name = bottom;
position = "{412, 0}";
},
{
name = top;
position = "{603, 700}";
}
);
layerId = "A6F5E7A4-47EF-4F55-BF18-0ACACB57A720";
paths = (
{
closed = 1;
nodes = (
"77 0 LINE",
"548 631 LINE",
"548 631 LINE",
"436 0 LINE",
"809 0 LINE",
"821 67 LINE",
"532 67 LINE",
"577 320 LINE",
"836 320 LINE",
"847 386 LINE",
"588 386 LINE",
"632 633 LINE",
"921 633 LINE",
"933 700 LINE",
"508 700 LINE",
"-15 0 LINE"
);
},
{
closed = 1;
nodes = (
"503 159 LINE",
"515 226 LINE",
"196 226 LINE",
"149 159 LINE"
);
}
);
width = 915;
},
{
anchors = (
{
name = bottom;
position = "{409, 0}";
},
{
name = top;
position = "{596, 700}";
}
);
layerId = "2D111E5E-352D-4630-9162-BCEF010D26CF";
paths = (
{
closed = 1;
nodes = (
"66 0 LINE",
"549 640 LINE",
"549 640 LINE",
"436 0 LINE",
"801 0 LINE",
"811 56 LINE",
"516 56 LINE",
"563 324 LINE",
"828 324 LINE",
"838 380 LINE",
"573 380 LINE",
"620 644 LINE",
"915 644 LINE",
"925 700 LINE",
"519 700 LINE",
"-11 0 LINE"
);
},
{
closed = 1;
nodes = (
"498 166 LINE",
"508 223 LINE",
"192 223 LINE",
"153 166 LINE"
);
}
);
width = 909;
},
{
anchors = (
{
name = bottom;
position = "{387, 0}";
},
{
name = top;
position = "{560, 700}";
}
);
layerId = "EB62C368-BB48-47C0-A466-DA94204A0DE4";
paths = (
{
closed = 1;
nodes = (
"14 0 LINE",
"544 670 LINE",
"544 670 LINE",
"426 0 LINE",
"761 0 LINE",
"764 18 LINE",
"449 18 LINE",
"506 340 LINE",
"791 340 LINE",
"794 358 LINE",
"509 358 LINE",
"567 682 LINE",
"882 682 LINE",
"885 700 LINE",
"543 700 LINE",
"-10 0 LINE"
);
},
{
closed = 1;
nodes = (
"467 189 LINE",
"470 207 LINE",
"165 207 LINE",
"154 189 LINE"
);
}
);
width = 865;
},
{
anchors = (
{
name = bottom;
position = "{451, 0}";
},
{
name = top;
position = "{655, 700}";
}
);
layerId = "66953C5E-8AEB-4AF5-804F-512B0A9BA4E6";
paths = (
{
closed = 1;
nodes = (
"158 0 LINE",
"549 573 LINE",
"549 573 LINE",
"448 0 LINE",
"872 0 LINE",
"896 135 LINE",
"643 135 LINE",
"671 293 LINE",
"895 293 LINE",
"917 423 LINE",
"693 423 LINE",
"719 565 LINE",
"972 565 LINE",
"996 700 LINE",
"456 700 LINE",
"-28 0 LINE"
);
},
{
closed = 1;
nodes = (
"550 118 LINE",
"574 248 LINE",
"237 248 LINE",
"140 118 LINE"
);
}
);
width = 966;
},
{
anchors = (
{
name = bottom;
position = "{533, 0}";
},
{
name = top;
position = "{560, 700}";
}
);
layerId = "90D50F69-F6F7-4633-9462-ED0440D3064F";
paths = (
{
closed = 1;
nodes = (
"16 0 LINE",
"543 668 LINE",
"543 668 LINE",
"425 0 LINE",
"760 0 LINE",
"763 18 LINE",
"448 18 LINE",
"505 340 LINE",
"790 340 LINE",
"793 358 LINE",
"508 358 LINE",
"566 682 LINE",
"881 682 LINE",
"884 700 LINE",
"544 700 LINE",
"-8 0 LINE"
);
},
{
closed = 1;
nodes = (
"478 256 LINE",
"482 274 LINE",
"216 274 LINE",
"203 256 LINE"
);
}
);
width = 861;
},
{
anchors = (
{
name = bottom;
position = "{410, 0}";
},
{
name = top;
position = "{596, 700}";
}
);
layerId = "973C19EE-3504-4BDF-BF6D-4817D3AD4E7D";
paths = (
{
closed = 1;
nodes = (
"65 0 LINE",
"549 640 LINE",
"549 640 LINE",
"435 0 LINE",
"800 0 LINE",
"810 56 LINE",
"516 56 LINE",
"563 324 LINE",
"828 324 LINE",
"837 380 LINE",
"572 380 LINE",
"619 644 LINE",
"914 644 LINE",
"924 700 LINE",
"518 700 LINE",
"-12 0 LINE"
);
},
{
closed = 1;
nodes = (
"496 166 LINE",
"506 222 LINE",
"191 222 LINE",
"152 166 LINE"
);
}
);
width = 902;
},
{
anchors = (
{
name = bottom;
position = "{428, 0}";
},
{
name = top;
position = "{603, 700}";
}
);
layerId = "8231B9DE-059C-4C71-A8C4-ABDA89A7D05C";
paths = (
{
closed = 1;
nodes = (
"78 0 LINE",
"549 631 LINE",
"549 631 LINE",
"437 0 LINE",
"810 0 LINE",
"822 67 LINE",
"534 67 LINE",
"578 320 LINE",
"837 320 LINE",
"848 386 LINE",
"589 386 LINE",
"633 633 LINE",
"922 633 LINE",
"934 700 LINE",
"509 700 LINE",
"-14 0 LINE"
);
},
{
closed = 1;
nodes = (
"503 159 LINE",
"515 226 LINE",
"197 226 LINE",
"150 159 LINE"
);
}
);
width = 911;
}
);
leftKerningGroup = AE;
leftMetricsKey = A;
rightKerningGroup = E;
rightMetricsKey = E;
unicode = 00C6;
userData = {
com.schriftgestaltung.Glyphs.ColorIndex = 4;
com.typemytype.robofont.layerData = {
b = {
anchors = (
);
components = (
);
contours = (
{
points = (
{
segmentType = line;
smooth = 0;
x = 138;
y = 183;
},
{
segmentType = line;
smooth = 0;
x = 449;
y = 183;
},
{
segmentType = line;
smooth = 0;
x = 449;
y = 202;
},
{
segmentType = line;
smooth = 0;
x = 149;
y = 202;
}
);
},
{
points = (
{
segmentType = line;
smooth = 0;
x = 757;
y = 663;
},
{
segmentType = line;
smooth = 0;
x = 757;
y = 683;
},
{
segmentType = line;
smooth = 0;
x = 442;
y = 683;
},
{
segmentType = line;
smooth = 0;
x = 11;
y = 0;
},
{
segmentType = line;
smooth = 0;
x = 32;
y = 0;
},
{
segmentType = line;
smooth = 0;
x = 443;
y = 658;
},
{
segmentType = line;
smooth = 0;
x = 443;
y = 0;
},
{
segmentType = line;
smooth = 0;
x = 757;
y = 0;
},
{
segmentType = line;
smooth = 0;
x = 757;
y = 19;
},
{
segmentType = line;
smooth = 0;
x = 463;
y = 19;
},
{
segmentType = line;
smooth = 0;
x = 463;
y = 332;
},
{
segmentType = line;
smooth = 0;
x = 727;
y = 332;
},
{
segmentType = line;
smooth = 0;
x = 727;
y = 351;
},
{
segmentType = line;
smooth = 0;
x = 463;
y = 351;
},
{
segmentType = line;
smooth = 0;
x = 463;
y = 663;
}
);
}
);
lib = {
};
name = AE;
unicodes = (
);
width = 837;
};
};
com.typesupply.AccentFactory.yCoordinates = {
bottom = {
name = origin;
type = glyphMetric;
};
top = {
name = capHeight;
type = fontInfo;
};
};
};
},
{
glyphname = B;
lastChange = "2023-05-19 14:03:36 +0000";
layers = (
{
anchors = (
{
name = bottom;
position = "{274, 0}";
},
{
name = top;
position = "{398, 700}";
}
);
layerId = "A390C1A2-E540-434D-BB9E-4BCEE875BA63";
paths = (
{
closed = 1;
nodes = (
"328 0 LINE SMOOTH",
"476 0 OFFCURVE",
"575 75 OFFCURVE",
"595 191 CURVE SMOOTH",
"611 281 OFFCURVE",
"558 360 OFFCURVE",
"459 364 CURVE",
"440 352 LINE",
"533 358 OFFCURVE",
"618 414 OFFCURVE",
"637 518 CURVE SMOOTH",
"656 629 OFFCURVE",
"584 700 OFFCURVE",
"441 700 CURVE SMOOTH",
"125 700 LINE",
"1 0 LINE"
);
},
{
closed = 1;
nodes = (
"224 293 LINE",
"348 293 LINE SMOOTH",
"405 293 OFFCURVE",
"435 264 OFFCURVE",
"426 214 CURVE SMOOTH",
"417 164 OFFCURVE",
"380 138 OFFCURVE",
"323 138 CURVE SMOOTH",
"197 138 LINE"
);
},
{
closed = 1;
nodes = (
"272 565 LINE",
"384 565 LINE SMOOTH",
"440 565 OFFCURVE",
"466 539 OFFCURVE",
"458 491 CURVE SMOOTH",
"449 443 OFFCURVE",
"414 418 OFFCURVE",
"358 418 CURVE SMOOTH",
"246 418 LINE"
);
}
);
width = 635;
},
{
anchors = (
{
name = bottom;
position = "{234, 0}";
},
{
name = top;
position = "{358, 700}";
}
);
layerId = "F5F01D5B-AEA3-4AC3-B3D8-92550D1582D7";
paths = (
{
closed = 1;
nodes = (
"255 0 LINE SMOOTH",
"402 0 OFFCURVE",
"497 84 OFFCURVE",
"516 191 CURVE SMOOTH",
"533 287 OFFCURVE",
"470 362 OFFCURVE",
"380 364 CURVE",
"365 354 LINE",
"450 362 OFFCURVE",
"539 414 OFFCURVE",
"558 522 CURVE SMOOTH",
"576 622 OFFCURVE",
"518 700 OFFCURVE",
"371 700 CURVE SMOOTH",
"125 700 LINE",
"1 0 LINE"
);
},
{
closed = 1;
nodes = (
"143 327 LINE",
"302 327 LINE SMOOTH",
"396 327 OFFCURVE",
"445 276 OFFCURVE",
"431 197 CURVE SMOOTH",
"417 117 OFFCURVE",
"354 70 OFFCURVE",
"259 70 CURVE SMOOTH",
"98 70 LINE"
);
},
{
closed = 1;
nodes = (
"196 630 LINE",
"349 630 LINE SMOOTH",
"444 630 OFFCURVE",
"483 584 OFFCURVE",
"471 513 CURVE SMOOTH",
"458 439 OFFCURVE",
"401 394 OFFCURVE",
"311 394 CURVE SMOOTH",
"155 394 LINE"
);
}
);
width = 556;
},
{
anchors = (
{
name = bottom;
position = "{228, 0}";
},
{
name = top;
position = "{352, 700}";
}
);
layerId = "3B8883BF-F483-4B97-AC7C-CABF8B821093";
paths = (
{
closed = 1;
nodes = (
"243 0 LINE SMOOTH",
"390 0 OFFCURVE",
"484 86 OFFCURVE",
"503 191 CURVE SMOOTH",
"520 288 OFFCURVE",
"456 362 OFFCURVE",
"367 364 CURVE",
"353 354 LINE",
"436 363 OFFCURVE",
"526 414 OFFCURVE",
"546 523 CURVE SMOOTH",
"563 621 OFFCURVE",
"507 700 OFFCURVE",
"360 700 CURVE SMOOTH",
"125 700 LINE",
"1 0 LINE"
);
},
{
closed = 1;
nodes = (
"130 332 LINE",
"294 332 LINE SMOOTH",
"394 332 OFFCURVE",
"446 278 OFFCURVE",
"431 194 CURVE SMOOTH",
"417 110 OFFCURVE",
"350 59 OFFCURVE",
"249 59 CURVE SMOOTH",
"82 59 LINE"
);
},
{
closed = 1;
nodes = (
"184 641 LINE",
"344 641 LINE SMOOTH",
"445 641 OFFCURVE",
"485 591 OFFCURVE",
"472 516 CURVE SMOOTH",
"459 438 OFFCURVE",
"398 390 OFFCURVE",
"303 390 CURVE SMOOTH",
"140 390 LINE"
);
}
);
width = 543;
},
{
anchors = (
{
name = bottom;
position = "{190, 0}";
},
{
name = top;
position = "{314, 700}";
}
);
layerId = "5D382461-81E1-4DF2-8677-8A6F02AD5363";
paths = (
{
closed = 1;
nodes = (
"201 0 LINE SMOOTH",
"369 0 OFFCURVE",
"439 93 OFFCURVE",
"456 191 CURVE SMOOTH",
"474 291 OFFCURVE",
"397 362 OFFCURVE",
"311 364 CURVE",
"310 355 LINE",
"389 367 OFFCURVE",
"479 414 OFFCURVE",
"499 528 CURVE SMOOTH",
"515 618 OFFCURVE",
"469 700 OFFCURVE",
"320 700 CURVE SMOOTH",
"125 700 LINE",
"1 0 LINE"
);
},
{
closed = 1;
nodes = (
"83 352 LINE",
"267 352 LINE SMOOTH",
"386 352 OFFCURVE",
"451 285 OFFCURVE",
"434 190 CURVE SMOOTH",
"415 83 OFFCURVE",
"334 20 OFFCURVE",
"214 20 CURVE SMOOTH",
"25 20 LINE"
);
},
{
closed = 1;
nodes = (
"142 682 LINE",
"318 682 LINE SMOOTH",
"453 682 OFFCURVE",
"493 616 OFFCURVE",
"477 528 CURVE SMOOTH",
"461 435 OFFCURVE",
"387 372 OFFCURVE",
"275 372 CURVE SMOOTH",
"87 372 LINE"
);
}
);
width = 496;
},
{
anchors = (
{
name = bottom;
position = "{245, 0}";
},
{
name = top;
position = "{492, 700}";
}
);
layerId = "1615C59E-33DE-4B88-B2CC-A48C7D56A125";
paths = (
{
closed = 1;
nodes = (
"353 0 LINE SMOOTH",
"501 0 OFFCURVE",
"600 75 OFFCURVE",
"620 191 CURVE SMOOTH",
"636 281 OFFCURVE",
"583 360 OFFCURVE",
"484 364 CURVE",
"465 352 LINE",
"558 358 OFFCURVE",
"643 414 OFFCURVE",
"662 518 CURVE SMOOTH",
"681 629 OFFCURVE",
"609 700 OFFCURVE",
"466 700 CURVE SMOOTH",
"150 700 LINE",
"26 0 LINE"
);
},
{
closed = 1;
nodes = (
"249 293 LINE",
"373 293 LINE SMOOTH",
"430 293 OFFCURVE",
"460 264 OFFCURVE",
"451 214 CURVE SMOOTH",
"442 164 OFFCURVE",
"405 138 OFFCURVE",
"348 138 CURVE SMOOTH",
"222 138 LINE"
);
},
{
closed = 1;
nodes = (
"297 565 LINE",
"409 565 LINE SMOOTH",
"465 565 OFFCURVE",
"491 539 OFFCURVE",
"483 491 CURVE SMOOTH",
"474 443 OFFCURVE",
"439 418 OFFCURVE",
"383 418 CURVE SMOOTH",
"271 418 LINE"
);
}
);
width = 674;
},
{
anchors = (
{
name = bottom;
position = "{273, 0}";
},
{
name = top;
position = "{396, 700}";
}
);
layerId = "A6F5E7A4-47EF-4F55-BF18-0ACACB57A720";
paths = (
{
closed = 1;
nodes = (
"285 0 LINE SMOOTH",
"432 0 OFFCURVE",
"527 84 OFFCURVE",
"546 191 CURVE SMOOTH",
"563 287 OFFCURVE",
"500 362 OFFCURVE",
"410 364 CURVE",
"395 354 LINE",
"480 362 OFFCURVE",
"569 414 OFFCURVE",
"588 522 CURVE SMOOTH",
"606 622 OFFCURVE",
"548 700 OFFCURVE",
"401 700 CURVE SMOOTH",
"155 700 LINE",
"31 0 LINE"
);
},
{
closed = 1;
nodes = (
"173 327 LINE",
"332 327 LINE SMOOTH",
"426 327 OFFCURVE",
"475 276 OFFCURVE",
"461 197 CURVE SMOOTH",
"447 117 OFFCURVE",
"384 70 OFFCURVE",
"289 70 CURVE SMOOTH",
"128 70 LINE"
);
},
{
closed = 1;
nodes = (
"226 630 LINE",
"379 630 LINE SMOOTH",
"474 630 OFFCURVE",
"513 584 OFFCURVE",
"501 513 CURVE SMOOTH",
"488 439 OFFCURVE",
"431 394 OFFCURVE",
"341 394 CURVE SMOOTH",
"185 394 LINE"
);
}
);
width = 607;
},
{
anchors = (
{
name = bottom;
position = "{256, 0}";
},
{
name = top;
position = "{379, 700}";
}
);
layerId = "2D111E5E-352D-4630-9162-BCEF010D26CF";
paths = (
{
closed = 1;
nodes = (
"280 0 LINE SMOOTH",
"432 0 OFFCURVE",
"521 86 OFFCURVE",
"540 191 CURVE SMOOTH",
"557 288 OFFCURVE",
"491 362 OFFCURVE",
"402 364 CURVE",
"390 354 LINE",
"473 363 OFFCURVE",
"563 414 OFFCURVE",
"583 523 CURVE SMOOTH",
"600 621 OFFCURVE",
"544 700 OFFCURVE",
"397 700 CURVE SMOOTH",
"162 700 LINE",
"38 0 LINE"
);
},
{
closed = 1;
nodes = (
"167 332 LINE",
"331 332 LINE SMOOTH",
"431 332 OFFCURVE",
"483 278 OFFCURVE",
"469 195 CURVE SMOOTH",
"454 110 OFFCURVE",
"386 59 OFFCURVE",
"286 59 CURVE SMOOTH",
"119 59 LINE"
);
},
{
closed = 1;
nodes = (
"221 641 LINE",
"381 641 LINE SMOOTH",
"479 641 OFFCURVE",
"522 591 OFFCURVE",
"509 516 CURVE SMOOTH",
"496 438 OFFCURVE",
"435 389 OFFCURVE",
"340 389 CURVE SMOOTH",
"177 389 LINE"
);
}
);
width = 604;
},
{
anchors = (
{
name = bottom;
position = "{230, 0}";
},
{
name = top;
position = "{353, 700}";
}
);
layerId = "EB62C368-BB48-47C0-A466-DA94204A0DE4";
paths = (
{
closed = 1;
nodes = (
"232 0 LINE SMOOTH",
"400 0 OFFCURVE",
"470 93 OFFCURVE",
"487 191 CURVE SMOOTH",
"505 291 OFFCURVE",
"428 362 OFFCURVE",
"342 364 CURVE",
"341 355 LINE",
"420 367 OFFCURVE",
"510 414 OFFCURVE",
"530 528 CURVE SMOOTH",
"546 618 OFFCURVE",
"500 700 OFFCURVE",
"351 700 CURVE SMOOTH",
"156 700 LINE",
"32 0 LINE"
);
},
{
closed = 1;
nodes = (
"114 352 LINE",
"298 352 LINE SMOOTH",
"417 352 OFFCURVE",
"483 288 OFFCURVE",
"466 193 CURVE SMOOTH",
"447 86 OFFCURVE",
"364 20 OFFCURVE",
"245 20 CURVE SMOOTH",
"56 20 LINE"
);
},
{
closed = 1;
nodes = (
"173 682 LINE",
"355 682 LINE SMOOTH",
"477 682 OFFCURVE",
"525 619 OFFCURVE",
"509 531 CURVE SMOOTH",
"493 438 OFFCURVE",
"418 370 OFFCURVE",
"288 370 CURVE SMOOTH",
"118 370 LINE"
);
}
);
width = 551;
},
{
anchors = (
{
name = bottom;
position = "{289, 0}";
},
{
name = top;
position = "{413, 700}";
}
);
layerId = "66953C5E-8AEB-4AF5-804F-512B0A9BA4E6";
paths = (
{
closed = 1;
nodes = (
"345 0 LINE SMOOTH",
"495 0 OFFCURVE",
"615 85 OFFCURVE",
"615 222 CURVE SMOOTH",
"615 299 OFFCURVE",
"563 360 OFFCURVE",
"477 364 CURVE",
"458 352 LINE",
"571 359 OFFCURVE",
"657 442 OFFCURVE",
"657 545 CURVE SMOOTH",
"657 645 OFFCURVE",
"585 700 OFFCURVE",
"458 700 CURVE SMOOTH",
"142 700 LINE",
"18 0 LINE"
);
},
{
closed = 1;
nodes = (
"241 294 LINE",
"365 294 LINE SMOOTH",
"415 294 OFFCURVE",
"444 271 OFFCURVE",
"444 232 CURVE SMOOTH",
"444 175 OFFCURVE",
"406 136 OFFCURVE",
"339 136 CURVE SMOOTH",
"213 136 LINE"
);
},
{
closed = 1;
nodes = (
"289 565 LINE",
"401 566 LINE SMOOTH",
"450 567 OFFCURVE",
"476 546 OFFCURVE",
"476 507 CURVE SMOOTH",
"476 451 OFFCURVE",
"438 417 OFFCURVE",
"374 417 CURVE SMOOTH",
"263 417 LINE"
);
}
);
width = 660;
},
{
anchors = (
{
name = bottom;
position = "{249, 0}";
},
{
name = top;
position = "{373, 700}";
}
);
layerId = "90D50F69-F6F7-4633-9462-ED0440D3064F";
paths = (
{
closed = 1;
nodes = (
"234 0 LINE SMOOTH",
"402 0 OFFCURVE",
"472 93 OFFCURVE",
"489 191 CURVE SMOOTH",
"507 291 OFFCURVE",
"430 362 OFFCURVE",
"344 364 CURVE",
"343 355 LINE",
"422 367 OFFCURVE",
"512 414 OFFCURVE",
"532 528 CURVE SMOOTH",
"548 618 OFFCURVE",
"502 700 OFFCURVE",
"353 700 CURVE SMOOTH",
"158 700 LINE",
"34 0 LINE"
);
},
{
closed = 1;
nodes = (
"116 352 LINE",
"300 352 LINE SMOOTH",
"419 352 OFFCURVE",
"484 285 OFFCURVE",
"467 190 CURVE SMOOTH",
"448 83 OFFCURVE",
"367 20 OFFCURVE",
"247 20 CURVE SMOOTH",
"58 20 LINE"
);
},
{
closed = 1;
nodes = (
"175 682 LINE",
"360 682 LINE SMOOTH",
"471 682 OFFCURVE",
"526 616 OFFCURVE",
"510 528 CURVE SMOOTH",
"494 435 OFFCURVE",
"420 372 OFFCURVE",
"308 372 CURVE SMOOTH",
"120 372 LINE"
);
}
);
width = 550;
},
{
anchors = (
{
name = bottom;
position = "{256, 0}";
},
{
name = top;
position = "{380, 700}";
}
);
layerId = "973C19EE-3504-4BDF-BF6D-4817D3AD4E7D";
paths = (
{
closed = 1;
nodes = (
"275 0 LINE SMOOTH",
"419 0 OFFCURVE",
"537 91 OFFCURVE",
"537 222 CURVE SMOOTH",
"537 304 OFFCURVE",
"478 362 OFFCURVE",
"399 364 CURVE",
"385 354 LINE",
"498 366 OFFCURVE",
"580 440 OFFCURVE",
"580 552 CURVE SMOOTH",
"580 634 OFFCURVE",
"521 700 OFFCURVE",
"392 700 CURVE SMOOTH",
"156 700 LINE",
"33 0 LINE"
);
},
{
closed = 1;
nodes = (
"161 332 LINE",
"325 332 LINE SMOOTH",
"414 332 OFFCURVE",
"468 290 OFFCURVE",
"468 222 CURVE SMOOTH",
"468 123 OFFCURVE",
"391 57 OFFCURVE",
"280 57 CURVE SMOOTH",
"113 57 LINE"
);
},
{
closed = 1;
nodes = (
"216 644 LINE",
"376 644 LINE SMOOTH",
"465 644 OFFCURVE",
"507 604 OFFCURVE",
"507 542 CURVE SMOOTH",
"507 450 OFFCURVE",
"437 389 OFFCURVE",
"335 389 CURVE SMOOTH",
"172 389 LINE"
);
}
);
width = 594;
},
{
anchors = (
{
name = bottom;
position = "{261, 0}";
},
{
name = top;
position = "{385, 700}";
}
);
layerId = "8231B9DE-059C-4C71-A8C4-ABDA89A7D05C";
paths = (
{
closed = 1;
nodes = (
"285 0 LINE SMOOTH",
"430 0 OFFCURVE",
"548 90 OFFCURVE",
"548 222 CURVE SMOOTH",
"548 303 OFFCURVE",
"490 362 OFFCURVE",
"410 364 CURVE",
"395 354 LINE",
"508 365 OFFCURVE",
"591 440 OFFCURVE",
"591 551 CURVE SMOOTH",
"591 636 OFFCURVE",
"530 700 OFFCURVE",
"401 700 CURVE SMOOTH",
"154 700 LINE",
"31 0 LINE"
);
},
{
closed = 1;
nodes = (
"172 327 LINE",
"331 327 LINE SMOOTH",
"414 327 OFFCURVE",
"465 287 OFFCURVE",
"465 223 CURVE SMOOTH",
"465 130 OFFCURVE",
"393 68 OFFCURVE",
"288 68 CURVE SMOOTH",
"127 68 LINE"
);
},
{
closed = 1;
nodes = (
"226 633 LINE",
"379 633 LINE SMOOTH",
"463 633 OFFCURVE",
"503 596 OFFCURVE",
"503 537 CURVE SMOOTH",
"503 450 OFFCURVE",
"437 393 OFFCURVE",
"340 393 CURVE SMOOTH",
"185 393 LINE"
);
}
);
width = 603;
}
);
leftKerningGroup = H;
leftMetricsKey = H;
unicode = 0042;
userData = {
com.schriftgestaltung.Glyphs.ColorIndex = 4;
com.typesupply.AccentFactory.yCoordinates = {
bottom = {
name = origin;
type = glyphMetric;
};
top = {
name = capHeight;
type = fontInfo;
};
};
};
},
{
glyphname = C;
lastChange = "2023-05-19 14:03:36 +0000";
layers = (
{
anchors = (
{
name = bottom;
position = "{325, 0}";
},
{
name = top;
position = "{449, 700}";
}
);
layerId = "A390C1A2-E540-434D-BB9E-4BCEE875BA63";
paths = (
{
closed = 1;
nodes = (
"510 -12 OFFCURVE",
"648 81 OFFCURVE",
"700 233 CURVE",
"512 233 LINE",
"487 173 OFFCURVE",
"434 143 OFFCURVE",
"360 143 CURVE SMOOTH",
"250 143 OFFCURVE",
"204 221 OFFCURVE",
"227 348 CURVE SMOOTH",
"249 476 OFFCURVE",
"322 556 OFFCURVE",
"432 556 CURVE SMOOTH",
"506 556 OFFCURVE",
"549 520 OFFCURVE",
"551 454 CURVE",
"739 454 LINE",
"742 618 OFFCURVE",
"638 712 OFFCURVE",
"462 712 CURVE SMOOTH",
"246 712 OFFCURVE",
"90 562 OFFCURVE",
"53 348 CURVE SMOOTH",
"15 135 OFFCURVE",
"118 -12 OFFCURVE",
"334 -12 CURVE SMOOTH"
);
}
);
width = 738;
},
{
anchors = (
{
name = bottom;
position = "{304, 0}";
},
{
name = top;
position = "{428, 700}";
}
);
layerId = "F5F01D5B-AEA3-4AC3-B3D8-92550D1582D7";
paths = (
{
closed = 1;
nodes = (
"484 -12 OFFCURVE",
"601 68 OFFCURVE",
"653 203 CURVE",
"563 203 LINE",
"527 119 OFFCURVE",
"449 63 OFFCURVE",
"336 63 CURVE SMOOTH",
"185 63 OFFCURVE",
"106 165 OFFCURVE",
"138 344 CURVE SMOOTH",
"169 522 OFFCURVE",
"287 637 OFFCURVE",
"438 637 CURVE SMOOTH",
"551 637 OFFCURVE",
"606 580 OFFCURVE",
"611 494 CURVE",
"704 494 LINE",
"701 632 OFFCURVE",
"612 712 OFFCURVE",
"451 712 CURVE SMOOTH",
"245 712 OFFCURVE",
"91 565 OFFCURVE",
"53 350 CURVE SMOOTH",
"15 134 OFFCURVE",
"117 -12 OFFCURVE",
"323 -12 CURVE SMOOTH"
);
}
);
width = 696;
},
{
anchors = (
{
name = bottom;
position = "{301, 0}";
},
{
name = top;
position = "{425, 700}";
}
);
layerId = "3B8883BF-F483-4B97-AC7C-CABF8B821093";
paths = (
{
closed = 1;
nodes = (
"479 -12 OFFCURVE",
"593 66 OFFCURVE",
"645 198 CURVE",
"567 198 LINE",
"530 109 OFFCURVE",
"451 49 OFFCURVE",
"332 49 CURVE SMOOTH",
"175 49 OFFCURVE",
"92 162 OFFCURVE",
"125 350 CURVE SMOOTH",
"158 538 OFFCURVE",
"281 651 OFFCURVE",
"438 651 CURVE SMOOTH",
"557 651 OFFCURVE",
"614 591 OFFCURVE",
"620 500 CURVE",
"698 500 LINE",
"693 634 OFFCURVE",
"607 712 OFFCURVE",
"449 712 CURVE SMOOTH",
"245 712 OFFCURVE",
"91 565 OFFCURVE",
"53 350 CURVE SMOOTH",
"15 134 OFFCURVE",
"117 -12 OFFCURVE",
"321 -12 CURVE SMOOTH"
);
}
);
width = 689;
},
{
anchors = (
{
name = bottom;
position = "{298, 0}";
},
{
name = top;
position = "{422, 700}";
}
);
layerId = "5D382461-81E1-4DF2-8677-8A6F02AD5363";
paths = (
{
closed = 1;
nodes = (
"462 -12 OFFCURVE",
"565 58 OFFCURVE",
"617 181 CURVE",
"594 181 LINE",
"551 80 OFFCURVE",
"458 8 OFFCURVE",
"318 8 CURVE SMOOTH",
"140 8 OFFCURVE",
"36 136 OFFCURVE",
"74 350 CURVE SMOOTH",
"112 566 OFFCURVE",
"260 692 OFFCURVE",
"445 692 CURVE SMOOTH",
"581 692 OFFCURVE",
"646 624 OFFCURVE",
"655 522 CURVE",
"677 522 LINE",
"667 642 OFFCURVE",
"590 712 OFFCURVE",
"442 712 CURVE SMOOTH",
"245 712 OFFCURVE",
"91 567 OFFCURVE",
"53 350 CURVE SMOOTH",
"15 134 OFFCURVE",
"117 -12 OFFCURVE",
"314 -12 CURVE SMOOTH"
);
}
);
width = 664;
},
{
anchors = (
{
name = bottom;
position = "{332, 0}";
},
{
name = top;
position = "{456, 700}";
}
);
layerId = "1615C59E-33DE-4B88-B2CC-A48C7D56A125";
paths = (
{
closed = 1;
nodes = (
"507 -12 OFFCURVE",
"643 81 OFFCURVE",
"694 233 CURVE",
"510 233 LINE",
"484 173 OFFCURVE",
"430 143 OFFCURVE",
"359 143 CURVE SMOOTH",
"256 143 OFFCURVE",
"214 221 OFFCURVE",
"237 348 CURVE SMOOTH",
"259 476 OFFCURVE",
"328 556 OFFCURVE",
"431 556 CURVE SMOOTH",
"502 556 OFFCURVE",
"546 520 OFFCURVE",
"549 454 CURVE",
"733 454 LINE",
"737 618 OFFCURVE",
"635 712 OFFCURVE",
"461 712 CURVE SMOOTH",
"252 712 OFFCURVE",
"100 562 OFFCURVE",
"63 348 CURVE SMOOTH",
"25 135 OFFCURVE",
"124 -12 OFFCURVE",
"333 -12 CURVE SMOOTH"
);
}
);
width = 747;
},
{
anchors = (
{
name = bottom;
position = "{324, 0}";
},
{
name = top;
position = "{447, 700}";
}
);
layerId = "A6F5E7A4-47EF-4F55-BF18-0ACACB57A720";
paths = (
{
closed = 1;
nodes = (
"482 -12 OFFCURVE",
"597 68 OFFCURVE",
"649 203 CURVE",
"558 203 LINE",
"520 118 OFFCURVE",
"447 62 OFFCURVE",
"336 62 CURVE SMOOTH",
"192 62 OFFCURVE",
"118 170 OFFCURVE",
"150 350 CURVE SMOOTH",
"182 529 OFFCURVE",
"294 638 OFFCURVE",
"438 638 CURVE SMOOTH",
"549 638 OFFCURVE",
"602 580 OFFCURVE",
"609 494 CURVE",
"700 494 LINE",
"697 632 OFFCURVE",
"610 712 OFFCURVE",
"451 712 CURVE SMOOTH",
"252 712 OFFCURVE",
"102 565 OFFCURVE",
"64 350 CURVE SMOOTH",
"26 134 OFFCURVE",
"124 -12 OFFCURVE",
"323 -12 CURVE SMOOTH"
);
}
);
width = 709;
},
{
anchors = (
{
name = bottom;
position = "{307, 0}";
},
{
name = top;
position = "{430, 700}";
}
);
layerId = "2D111E5E-352D-4630-9162-BCEF010D26CF";
paths = (
{
closed = 1;
nodes = (
"480 -12 OFFCURVE",
"592 66 OFFCURVE",
"643 198 CURVE",
"568 198 LINE",
"530 109 OFFCURVE",
"451 50 OFFCURVE",
"335 50 CURVE SMOOTH",
"185 50 OFFCURVE",
"106 162 OFFCURVE",
"139 350 CURVE SMOOTH",
"172 537 OFFCURVE",
"291 650 OFFCURVE",
"441 650 CURVE SMOOTH",
"558 650 OFFCURVE",
"613 590 OFFCURVE",
"621 500 CURVE",
"696 500 LINE",
"692 634 OFFCURVE",
"608 712 OFFCURVE",
"452 712 CURVE SMOOTH",
"255 712 OFFCURVE",
"105 565 OFFCURVE",
"67 350 CURVE SMOOTH",
"29 134 OFFCURVE",
"127 -12 OFFCURVE",
"324 -12 CURVE SMOOTH"
);
}
);
width = 706;
},
{
anchors = (
{
name = bottom;
position = "{291, 0}";
},
{
name = top;
position = "{414, 700}";
}
);
layerId = "EB62C368-BB48-47C0-A466-DA94204A0DE4";
paths = (
{
closed = 1;
nodes = (
"459 -12 OFFCURVE",
"560 58 OFFCURVE",
"612 181 CURVE",
"590 181 LINE",
"545 79 OFFCURVE",
"455 8 OFFCURVE",
"318 8 CURVE SMOOTH",
"146 8 OFFCURVE",
"47 135 OFFCURVE",
"85 351 CURVE SMOOTH",
"123 567 OFFCURVE",
"266 692 OFFCURVE",
"438 692 CURVE SMOOTH",
"578 692 OFFCURVE",
"639 622 OFFCURVE",
"651 523 CURVE",
"673 523 LINE",
"662 642 OFFCURVE",
"587 712 OFFCURVE",
"441 712 CURVE SMOOTH",
"251 712 OFFCURVE",
"101 567 OFFCURVE",
"63 351 CURVE SMOOTH",
"25 134 OFFCURVE",
"123 -12 OFFCURVE",
"313 -12 CURVE SMOOTH"
);
}
);
width = 674;
},
{
anchors = (
{
name = bottom;
position = "{342, 0}";
},
{
name = top;
position = "{469, 700}";
}
);
layerId = "66953C5E-8AEB-4AF5-804F-512B0A9BA4E6";
paths = (
{
closed = 1;
nodes = (
"516 -12 OFFCURVE",
"656 77 OFFCURVE",
"710 233 CURVE",
"522 233 LINE",
"497 173 OFFCURVE",
"447 143 OFFCURVE",
"373 143 CURVE SMOOTH",
"282 143 OFFCURVE",
"231 197 OFFCURVE",
"231 291 CURVE SMOOTH",
"231 443 OFFCURVE",
"320 556 OFFCURVE",
"442 556 CURVE SMOOTH",
"516 556 OFFCURVE",
"559 520 OFFCURVE",
"561 454 CURVE",
"749 454 LINE",
"752 618 OFFCURVE",
"646 712 OFFCURVE",
"470 712 CURVE SMOOTH",
"234 712 OFFCURVE",
"55 522 OFFCURVE",
"55 269 CURVE SMOOTH",
"55 102 OFFCURVE",
"158 -12 OFFCURVE",
"344 -12 CURVE SMOOTH"
);
}
);
width = 756;
},
{
anchors = (
{
name = bottom;
position = "{300, 0}";
},
{
name = top;
position = "{424, 700}";
}
);
layerId = "90D50F69-F6F7-4633-9462-ED0440D3064F";
paths = (
{
closed = 1;
nodes = (
"474 -12 OFFCURVE",
"577 58 OFFCURVE",
"629 181 CURVE",
"607 181 LINE",
"564 80 OFFCURVE",
"470 8 OFFCURVE",
"330 8 CURVE SMOOTH",
"152 8 OFFCURVE",
"49 136 OFFCURVE",
"87 350 CURVE SMOOTH",
"125 566 OFFCURVE",
"272 692 OFFCURVE",
"450 692 CURVE SMOOTH",
"593 692 OFFCURVE",
"658 624 OFFCURVE",
"667 522 CURVE",
"689 522 LINE",
"679 642 OFFCURVE",
"602 712 OFFCURVE",
"454 712 CURVE SMOOTH",
"257 712 OFFCURVE",
"103 567 OFFCURVE",
"65 350 CURVE SMOOTH",
"27 134 OFFCURVE",
"129 -12 OFFCURVE",
"326 -12 CURVE SMOOTH"
);
}
);
width = 688;
},
{
anchors = (
{
name = bottom;
position = "{334, 0}";
},
{
name = top;
position = "{463, 700}";
}
);
layerId = "973C19EE-3504-4BDF-BF6D-4817D3AD4E7D";
paths = (
{
closed = 1;
nodes = (
"495 -12 OFFCURVE",
"608 66 OFFCURVE",
"660 198 CURVE",
"580 198 LINE",
"544 107 OFFCURVE",
"465 49 OFFCURVE",
"347 49 CURVE SMOOTH",
"213 49 OFFCURVE",
"133 132 OFFCURVE",
"133 272 CURVE SMOOTH",
"133 487 OFFCURVE",
"271 651 OFFCURVE",
"453 651 CURVE SMOOTH",
"571 651 OFFCURVE",
"630 593 OFFCURVE",
"633 500 CURVE",
"713 500 LINE",
"708 634 OFFCURVE",
"619 712 OFFCURVE",
"462 712 CURVE SMOOTH",
"234 712 OFFCURVE",
"60 519 OFFCURVE",
"60 268 CURVE SMOOTH",
"60 100 OFFCURVE",
"162 -12 OFFCURVE",
"338 -12 CURVE SMOOTH"
);
}
);
width = 717;
},
{
anchors = (
{
name = bottom;
position = "{335, 0}";
},
{
name = top;
position = "{464, 700}";
}
);
layerId = "8231B9DE-059C-4C71-A8C4-ABDA89A7D05C";
paths = (
{
closed = 1;
nodes = (
"498 -12 OFFCURVE",
"615 68 OFFCURVE",
"667 203 CURVE",
"572 203 LINE",
"537 116 OFFCURVE",
"463 62 OFFCURVE",
"351 62 CURVE SMOOTH",
"223 62 OFFCURVE",
"147 141 OFFCURVE",
"147 275 CURVE SMOOTH",
"147 481 OFFCURVE",
"278 638 OFFCURVE",
"451 638 CURVE SMOOTH",
"563 638 OFFCURVE",
"620 583 OFFCURVE",
"623 494 CURVE",
"718 494 LINE",
"714 632 OFFCURVE",
"623 712 OFFCURVE",
"463 712 CURVE SMOOTH",
"234 712 OFFCURVE",
"59 519 OFFCURVE",
"59 268 CURVE SMOOTH",
"59 100 OFFCURVE",
"161 -12 OFFCURVE",
"339 -12 CURVE SMOOTH"
);
}
);
width = 722;
}
);
leftKerningGroup = O;
leftMetricsKey = O;
rightKerningGroup = C;
rightMetricsKey = O;
unicode = 0043;
userData = {
com.schriftgestaltung.Glyphs.ColorIndex = 4;
com.typesupply.AccentFactory.yCoordinates = {
bottom = {
name = origin;
type = glyphMetric;
};
top = {
name = capHeight;
type = fontInfo;
};
};
};
},
{
glyphname = D;
lastChange = "2023-05-19 14:03:36 +0000";
layers = (
{
anchors = (
{
name = bottom;
position = "{307, 0}";
},
{
name = center;
position = "{369, 350}";
},
{
name = top;
position = "{371, 700}";
}
);
layerId = "A390C1A2-E540-434D-BB9E-4BCEE875BA63";
paths = (
{
closed = 1;
nodes = (
"264 0 LINE SMOOTH",
"508 0 OFFCURVE",
"648 143 OFFCURVE",
"684 351 CURVE SMOOTH",
"721 558 OFFCURVE",
"632 700 OFFCURVE",
"388 700 CURVE SMOOTH",
"125 700 LINE",
"1 0 LINE"
);
},
{
closed = 1;
nodes = (
"270 554 LINE",
"351 554 LINE SMOOTH",
"500 554 OFFCURVE",
"533 478 OFFCURVE",
"510 351 CURVE SMOOTH",
"487 222 OFFCURVE",
"428 148 OFFCURVE",
"279 148 CURVE SMOOTH",
"198 148 LINE"
);
}
);
width = 701;
},
{
anchors = (
{
name = bottom;
position = "{284, 0}";
},
{
name = center;
position = "{346, 350}";
},
{
name = top;
position = "{368, 700}";
}
);
layerId = "F5F01D5B-AEA3-4AC3-B3D8-92550D1582D7";
paths = (
{
closed = 1;
nodes = (
"216 0 LINE SMOOTH",
"462 0 OFFCURVE",
"600 133 OFFCURVE",
"638 348 CURVE SMOOTH",
"676 567 OFFCURVE",
"586 700 OFFCURVE",
"340 700 CURVE SMOOTH",
"125 700 LINE",
"1 0 LINE"
);
},
{
closed = 1;
nodes = (
"196 630 LINE",
"325 630 LINE SMOOTH",
"529 630 OFFCURVE",
"582 523 OFFCURVE",
"551 348 CURVE SMOOTH",
"520 175 OFFCURVE",
"431 70 OFFCURVE",
"227 70 CURVE SMOOTH",
"98 70 LINE"
);
}
);
width = 655;
},
{
anchors = (
{
name = bottom;
position = "{280, 0}";
},
{
name = center;
position = "{342, 350}";
},
{
name = top;
position = "{364, 700}";
}
);
layerId = "3B8883BF-F483-4B97-AC7C-CABF8B821093";
paths = (
{
closed = 1;
nodes = (
"208 0 LINE SMOOTH",
"455 0 OFFCURVE",
"591 131 OFFCURVE",
"630 348 CURVE SMOOTH",
"668 568 OFFCURVE",
"579 700 OFFCURVE",
"332 700 CURVE SMOOTH",
"125 700 LINE",
"1 0 LINE"
);
},
{
closed = 1;
nodes = (
"184 642 LINE",
"321 642 LINE SMOOTH",
"533 642 OFFCURVE",
"590 530 OFFCURVE",
"558 348 CURVE SMOOTH",
"526 168 OFFCURVE",
"431 58 OFFCURVE",
"219 58 CURVE SMOOTH",
"82 58 LINE"
);
}
);
width = 647;
},
{
anchors = (
{
name = bottom;
position = "{266, 0}";
},
{
name = center;
position = "{328, 350}";
},
{
name = top;
position = "{303, 700}";
}
);
layerId = "5D382461-81E1-4DF2-8677-8A6F02AD5363";
paths = (
{
closed = 1;
nodes = (
"187 0 LINE SMOOTH",
"446 0 OFFCURVE",
"566 148 OFFCURVE",
"601 346 CURVE SMOOTH",
"641 573 OFFCURVE",
"553 700 OFFCURVE",
"303 700 CURVE SMOOTH",
"125 700 LINE",
"1 0 LINE"
);
},
{
closed = 1;
nodes = (
"142 682 LINE",
"306 682 LINE SMOOTH",
"541 682 OFFCURVE",
"616 552 OFFCURVE",
"579 346 CURVE SMOOTH",
"543 141 OFFCURVE",
"411 18 OFFCURVE",
"188 18 CURVE SMOOTH",
"24 18 LINE"
);
}
);
width = 619;
},
{
anchors = (
{
name = bottom;
position = "{260, 0}";
},
{
name = center;
position = "{383, 350}";
},
{
name = top;
position = "{379, 700}";
}
);
layerId = "1615C59E-33DE-4B88-B2CC-A48C7D56A125";
paths = (
{
closed = 1;
nodes = (
"255 0 LINE SMOOTH",
"497 0 OFFCURVE",
"636 143 OFFCURVE",
"672 351 CURVE SMOOTH",
"709 558 OFFCURVE",
"621 700 OFFCURVE",
"379 700 CURVE SMOOTH",
"150 700 LINE",
"26 0 LINE"
);
},
{
closed = 1;
nodes = (
"295 554 LINE",
"342 554 LINE SMOOTH",
"489 554 OFFCURVE",
"521 478 OFFCURVE",
"498 351 CURVE SMOOTH",
"475 222 OFFCURVE",
"417 148 OFFCURVE",
"270 148 CURVE SMOOTH",
"223 148 LINE"
);
}
);
width = 704;
},
{
anchors = (
{
name = bottom;
position = "{302, 0}";
},
{
name = center;
position = "{363, 350}";
},
{
name = top;
position = "{385, 700}";
}
);
layerId = "A6F5E7A4-47EF-4F55-BF18-0ACACB57A720";
paths = (
{
closed = 1;
nodes = (
"211 0 LINE SMOOTH",
"455 0 OFFCURVE",
"593 133 OFFCURVE",
"631 348 CURVE SMOOTH",
"669 567 OFFCURVE",
"579 700 OFFCURVE",
"335 700 CURVE SMOOTH",
"155 700 LINE",
"31 0 LINE"
);
},
{
closed = 1;
nodes = (
"226 630 LINE",
"320 630 LINE SMOOTH",
"522 630 OFFCURVE",
"575 523 OFFCURVE",
"544 348 CURVE SMOOTH",
"513 175 OFFCURVE",
"424 70 OFFCURVE",
"222 70 CURVE SMOOTH",
"128 70 LINE"
);
}
);
width = 665;
},
{
anchors = (
{
name = bottom;
position = "{288, 0}";
},
{
name = center;
position = "{349, 350}";
},
{
name = top;
position = "{371, 700}";
}
);
layerId = "2D111E5E-352D-4630-9162-BCEF010D26CF";
paths = (
{
closed = 1;
nodes = (
"210 0 LINE SMOOTH",
"455 0 OFFCURVE",
"591 131 OFFCURVE",
"630 348 CURVE SMOOTH",
"668 568 OFFCURVE",
"579 700 OFFCURVE",
"334 700 CURVE SMOOTH",
"162 700 LINE",
"38 0 LINE"
);
},
{
closed = 1;
nodes = (
"221 641 LINE",
"322 641 LINE SMOOTH",
"533 641 OFFCURVE",
"590 529 OFFCURVE",
"558 348 CURVE SMOOTH",
"526 168 OFFCURVE",
"431 59 OFFCURVE",
"220 59 CURVE SMOOTH",
"119 59 LINE"
);
}
);
width = 667;
},
{
anchors = (
{
name = bottom;
position = "{268, 0}";
},
{
name = center;
position = "{329, 350}";
},
{
name = top;
position = "{351, 700}";
}
);
layerId = "EB62C368-BB48-47C0-A466-DA94204A0DE4";
paths = (
{
closed = 1;
nodes = (
"181 0 LINE SMOOTH",
"440 0 OFFCURVE",
"560 148 OFFCURVE",
"595 346 CURVE SMOOTH",
"635 573 OFFCURVE",
"543 700 OFFCURVE",
"297 700 CURVE SMOOTH",
"156 700 LINE",
"32 0 LINE"
);
},
{
closed = 1;
nodes = (
"173 682 LINE",
"300 682 LINE SMOOTH",
"541 682 OFFCURVE",
"610 552 OFFCURVE",
"573 346 CURVE SMOOTH",
"537 141 OFFCURVE",
"409 18 OFFCURVE",
"182 18 CURVE SMOOTH",
"55 18 LINE"
);
}
);
width = 627;
},
{
anchors = (
{
name = bottom;
position = "{322, 0}";
},
{
name = center;
position = "{384, 350}";
},
{
name = top;
position = "{406, 700}";
}
);
layerId = "66953C5E-8AEB-4AF5-804F-512B0A9BA4E6";
paths = (
{
closed = 1;
nodes = (
"282 0 LINE SMOOTH",
"537 0 OFFCURVE",
"710 170 OFFCURVE",
"710 413 CURVE SMOOTH",
"710 582 OFFCURVE",
"614 700 OFFCURVE",
"405 700 CURVE SMOOTH",
"142 700 LINE",
"19 0 LINE"
);
},
{
closed = 1;
nodes = (
"288 554 LINE",
"369 554 LINE SMOOTH",
"477 554 OFFCURVE",
"534 505 OFFCURVE",
"534 398 CURVE SMOOTH",
"534 244 OFFCURVE",
"450 148 OFFCURVE",
"297 148 CURVE SMOOTH",
"216 148 LINE"
);
}
);
width = 731;
},
{
anchors = (
{
name = bottom;
position = "{308, 0}";
},
{
name = center;
position = "{370, 350}";
},
{
name = top;
position = "{392, 700}";
}
);
layerId = "90D50F69-F6F7-4633-9462-ED0440D3064F";
paths = (
{
closed = 1;
nodes = (
"220 0 LINE SMOOTH",
"479 0 OFFCURVE",
"599 148 OFFCURVE",
"634 346 CURVE SMOOTH",
"674 573 OFFCURVE",
"586 700 OFFCURVE",
"336 700 CURVE SMOOTH",
"158 700 LINE",
"34 0 LINE"
);
},
{
closed = 1;
nodes = (
"175 682 LINE",
"339 682 LINE SMOOTH",
"574 682 OFFCURVE",
"649 552 OFFCURVE",
"612 346 CURVE SMOOTH",
"576 141 OFFCURVE",
"448 18 OFFCURVE",
"221 18 CURVE SMOOTH",
"57 18 LINE"
);
}
);
width = 664;
},
{
anchors = (
{
name = bottom;
position = "{304, 0}";
},
{
name = center;
position = "{366, 350}";
},
{
name = top;
position = "{388, 700}";
}
);
layerId = "973C19EE-3504-4BDF-BF6D-4817D3AD4E7D";
paths = (
{
closed = 1;
nodes = (
"240 0 LINE SMOOTH",
"504 0 OFFCURVE",
"670 170 OFFCURVE",
"670 418 CURVE SMOOTH",
"670 601 OFFCURVE",
"574 700 OFFCURVE",
"363 700 CURVE SMOOTH",
"156 700 LINE",
"33 0 LINE"
);
},
{
closed = 1;
nodes = (
"216 642 LINE",
"353 642 LINE SMOOTH",
"528 642 OFFCURVE",
"598 562 OFFCURVE",
"598 413 CURVE SMOOTH",
"598 197 OFFCURVE",
"469 58 OFFCURVE",
"250 58 CURVE SMOOTH",
"113 58 LINE"
);
}
);
width = 696;
},
{
anchors = (
{
name = bottom;
position = "{307, 0}";
},
{
name = center;
position = "{369, 350}";
},
{
name = top;
position = "{391, 700}";
}
);
layerId = "8231B9DE-059C-4C71-A8C4-ABDA89A7D05C";
paths = (
{
closed = 1;
nodes = (
"246 0 LINE SMOOTH",
"509 0 OFFCURVE",
"676 170 OFFCURVE",
"676 417 CURVE SMOOTH",
"676 598 OFFCURVE",
"580 700 OFFCURVE",
"369 700 CURVE SMOOTH",
"154 700 LINE",
"31 0 LINE"
);
},
{
closed = 1;
nodes = (
"226 630 LINE",
"355 630 LINE SMOOTH",
"521 630 OFFCURVE",
"589 554 OFFCURVE",
"589 411 CURVE SMOOTH",
"589 204 OFFCURVE",
"466 70 OFFCURVE",
"257 70 CURVE SMOOTH",
"127 70 LINE"
);
}
);
width = 701;
}
);
leftKerningGroup = H;
leftMetricsKey = H;
rightKerningGroup = O;
rightMetricsKey = O;
unicode = 0044;
userData = {
com.schriftgestaltung.Glyphs.ColorIndex = 4;
com.typemytype.robofont.guides = (
{
angle = 0;
isGlobal = 0;
magnetic = 5;
x = 122;
y = 684;
}
);
com.typesupply.AccentFactory.yCoordinates = {
bottom = {
name = origin;
type = glyphMetric;
};
top = {
name = capHeight;
type = fontInfo;
};
};
};
},
{
glyphname = Eth;
lastChange = "2023-05-19 14:03:36 +0000";
layers = (
{
components = (
{
alignment = -1;
name = D;
transform = "{1, 0, 0, 1, 30, 0}";
}
);
layerId = "A390C1A2-E540-434D-BB9E-4BCEE875BA63";
paths = (
{
closed = 1;
nodes = (
"403 280 LINE",
"429 422 LINE",
"42 422 LINE",
"16 280 LINE"
);
}
);
width = 731;
},
{
components = (
{
alignment = -1;
name = D;
transform = "{1, 0, 0, 1, 41, 0}";
}
);
layerId = "F5F01D5B-AEA3-4AC3-B3D8-92550D1582D7";
paths = (
{
closed = 1;
nodes = (
"394 311 LINE",
"408 387 LINE",
"35 387 LINE",
"21 311 LINE"
);
}
);
width = 696;
},
{
components = (
{
alignment = -1;
name = D;
transform = "{1, 0, 0, 1, 43, 0}";
}
);
layerId = "3B8883BF-F483-4B97-AC7C-CABF8B821093";
paths = (
{
closed = 1;
nodes = (
"392 316 LINE",
"404 381 LINE",
"34 381 LINE",
"22 316 LINE"
);
}
);
width = 690;
},
{
components = (
{
alignment = -1;
name = D;
transform = "{1, 0, 0, 1, 51, 0}";
}
);
layerId = "5D382461-81E1-4DF2-8677-8A6F02AD5363";
paths = (
{
closed = 1;
nodes = (
"391 343 LINE",
"394 361 LINE",
"29 361 LINE",
"26 343 LINE"
);
}
);
width = 670;
},
{
components = (
{
alignment = -1;
name = D;
transform = "{1, 0, 0, 1, 21, 0}";
}
);
layerId = "1615C59E-33DE-4B88-B2CC-A48C7D56A125";
paths = (
{
closed = 1;
nodes = (
"394 280 LINE",
"420 422 LINE",
"33 422 LINE",
"7 280 LINE"
);
}
);
width = 725;
},
{
components = (
{
alignment = -1;
name = D;
transform = "{1, 0, 0, 1, 36, 0}";
}
);
layerId = "A6F5E7A4-47EF-4F55-BF18-0ACACB57A720";
paths = (
{
closed = 1;
nodes = (
"389 311 LINE",
"403 387 LINE",
"30 387 LINE",
"16 311 LINE"
);
}
);
width = 701;
},
{
components = (
{
alignment = -1;
name = D;
transform = "{1, 0, 0, 1, 39, 0}";
}
);
layerId = "2D111E5E-352D-4630-9162-BCEF010D26CF";
paths = (
{
closed = 1;
nodes = (
"388 316 LINE",
"400 381 LINE",
"30 381 LINE",
"18 316 LINE"
);
}
);
width = 706;
},
{
components = (
{
alignment = -1;
name = D;
transform = "{1, 0, 0, 1, 50, 0}";
}
);
layerId = "EB62C368-BB48-47C0-A466-DA94204A0DE4";
paths = (
{
closed = 1;
nodes = (
"389 343 LINE",
"392 361 LINE",
"29 361 LINE",
"26 343 LINE"
);
}
);
width = 677;
},
{
components = (
{
name = D;
transform = "{1, 0, 0, 1, 5, 0}";
}
);
layerId = "66953C5E-8AEB-4AF5-804F-512B0A9BA4E6";
paths = (
{
closed = 1;
nodes = (
"397 280 LINE",
"422 422 LINE",
"36 422 LINE",
"10 280 LINE"
);
}
);
width = 736;
},
{
components = (
{
alignment = -1;
name = D;
transform = "{1, 0, 0, 1, 54, 0}";
}
);
layerId = "90D50F69-F6F7-4633-9462-ED0440D3064F";
paths = (
{
closed = 1;
nodes = (
"392 343 LINE",
"395 361 LINE",
"32 361 LINE",
"29 343 LINE"
);
}
);
width = 718;
},
{
components = (
{
name = D;
transform = "{1, 0, 0, 1, 23, 0}";
}
);
layerId = "973C19EE-3504-4BDF-BF6D-4817D3AD4E7D";
paths = (
{
closed = 1;
nodes = (
"390 316 LINE",
"401 381 LINE",
"32 381 LINE",
"21 316 LINE"
);
}
);
width = 719;
},
{
components = (
{
alignment = -1;
name = D;
transform = "{1, 0, 0, 1, 21, 0}";
}
);
layerId = "8231B9DE-059C-4C71-A8C4-ABDA89A7D05C";
paths = (
{
closed = 1;
nodes = (
"392 311 LINE",
"405 387 LINE",
"33 387 LINE",
"20 311 LINE"
);
}
);
width = 722;
}
);
leftKerningGroup = Eth;
rightKerningGroup = O;
rightMetricsKey = O;
unicode = 00D0;
userData = {
com.schriftgestaltung.Glyphs.ColorIndex = 4;
};
},
{
glyphname = E;
lastChange = "2023-05-19 14:03:36 +0000";
layers = (
{
anchors = (
{
name = bottom;
position = "{234, 0}";
},
{
name = ogonek;
position = "{481, 0}";
},
{
name = top;
position = "{358, 700}";
},
{
name = topleft;
position = "{100, 700}";
}
);
layerId = "A390C1A2-E540-434D-BB9E-4BCEE875BA63";
paths = (
{
closed = 1;
nodes = (
"481 0 LINE",
"505 137 LINE",
"196 137 LINE",
"224 291 LINE",
"503 291 LINE",
"526 423 LINE",
"247 423 LINE",
"272 563 LINE",
"581 563 LINE",
"605 700 LINE",
"125 700 LINE",
"1 0 LINE"
);
}
);
width = 555;
},
{
anchors = (
{
name = bottom;
position = "{210, 0}";
},
{
name = ogonek;
position = "{434, 0}";
},
{
name = top;
position = "{334, 700}";
},
{
name = topleft;
position = "{100, 700}";
}
);
layerId = "F5F01D5B-AEA3-4AC3-B3D8-92550D1582D7";
paths = (
{
closed = 1;
nodes = (
"434 0 LINE",
"446 69 LINE",
"97 69 LINE",
"142 319 LINE",
"461 319 LINE",
"473 387 LINE",
"154 387 LINE",
"197 631 LINE",
"546 631 LINE",
"558 700 LINE",
"125 700 LINE",
"1 0 LINE"
);
}
);
width = 508;
},
{
anchors = (
{
name = bottom;
position = "{207, 0}";
},
{
name = ogonek;
position = "{426, 0}";
},
{
name = top;
position = "{331, 700}";
},
{
name = topleft;
position = "{100, 700}";
}
);
layerId = "3B8883BF-F483-4B97-AC7C-CABF8B821093";
paths = (
{
closed = 1;
nodes = (
"426 0 LINE",
"437 58 LINE",
"82 58 LINE",
"128 323 LINE",
"453 323 LINE",
"463 381 LINE",
"138 381 LINE",
"184 642 LINE",
"539 642 LINE",
"550 700 LINE",
"125 700 LINE",
"1 0 LINE"
);
}
);
width = 501;
},
{
anchors = (
{
name = bottom;
position = "{200, 0}";
},
{
name = ogonek;
position = "{398, 0}";
},
{
name = top;
position = "{324, 700}";
},
{
name = topleft;
position = "{100, 700}";
}
);
layerId = "5D382461-81E1-4DF2-8677-8A6F02AD5363";
paths = (
{
closed = 1;
nodes = (
"398 0 LINE",
"401 18 LINE",
"24 18 LINE",
"81 340 LINE",
"428 340 LINE",
"431 358 LINE",
"84 358 LINE",
"142 682 LINE",
"519 682 LINE",
"522 700 LINE",
"125 700 LINE",
"1 0 LINE"
);
}
);
width = 472;
},
{
anchors = (
{
name = bottom;
position = "{266, 0}";
},
{
name = ogonek;
position = "{506, 0}";
},
{
name = top;
position = "{390, 700}";
},
{
name = topleft;
position = "{175, 700}";
}
);
layerId = "1615C59E-33DE-4B88-B2CC-A48C7D56A125";
paths = (
{
closed = 1;
nodes = (
"506 0 LINE",
"530 137 LINE",
"221 137 LINE",
"249 291 LINE",
"528 291 LINE",
"551 423 LINE",
"272 423 LINE",
"297 563 LINE",
"606 563 LINE",
"630 700 LINE",
"150 700 LINE",
"26 0 LINE"
);
}
);
width = 608;
},
{
anchors = (
{
name = bottom;
position = "{255, 0}";
},
{
name = ogonek;
position = "{464, 0}";
},
{
name = top;
position = "{378, 700}";
},
{
name = topleft;
position = "{113, 700}";
}
);
layerId = "A6F5E7A4-47EF-4F55-BF18-0ACACB57A720";
paths = (
{
closed = 1;
nodes = (
"464 0 LINE",
"476 69 LINE",
"127 69 LINE",
"172 319 LINE",
"491 319 LINE",
"503 387 LINE",
"184 387 LINE",
"227 631 LINE",
"576 631 LINE",
"588 700 LINE",
"155 700 LINE",
"31 0 LINE"
);
}
);
width = 570;
},
{
anchors = (
{
name = bottom;
position = "{240, 0}";
},
{
name = ogonek;
position = "{463, 0}";
},
{
name = top;
position = "{363, 700}";
},
{
name = topleft;
position = "{97, 700}";
}
);
layerId = "2D111E5E-352D-4630-9162-BCEF010D26CF";
paths = (
{
closed = 1;
nodes = (
"463 0 LINE",
"474 58 LINE",
"119 58 LINE",
"165 323 LINE",
"490 323 LINE",
"500 381 LINE",
"175 381 LINE",
"221 642 LINE",
"576 642 LINE",
"587 700 LINE",
"162 700 LINE",
"38 0 LINE"
);
}
);
width = 571;
},
{
anchors = (
{
name = bottom;
position = "{221, 0}";
},
{
name = ogonek;
position = "{429, 0}";
},
{
name = top;
position = "{344, 700}";
},
{
name = topleft;
position = "{97, 700}";
}
);
layerId = "EB62C368-BB48-47C0-A466-DA94204A0DE4";
paths = (
{
closed = 1;
nodes = (
"429 0 LINE",
"432 18 LINE",
"55 18 LINE",
"112 340 LINE",
"459 340 LINE",
"462 358 LINE",
"115 358 LINE",
"173 682 LINE",
"550 682 LINE",
"553 700 LINE",
"156 700 LINE",
"32 0 LINE"
);
}
);
width = 533;
},
{
anchors = (
{
name = bottom;
position = "{245, 0}";
},
{
name = ogonek;
position = "{478, 10}";
},
{
name = top;
position = "{369, 700}";
},
{
name = topleft;
position = "{100, 700}";
}
);
layerId = "66953C5E-8AEB-4AF5-804F-512B0A9BA4E6";
paths = (
{
closed = 1;
nodes = (
"478 0 LINE",
"502 135 LINE",
"213 135 LINE",
"241 292 LINE",
"500 292 LINE",
"523 421 LINE",
"264 421 LINE",
"289 565 LINE",
"578 565 LINE",
"602 700 LINE",
"142 700 LINE",
"18 0 LINE"
);
}
);
width = 572;
},
{
anchors = (
{
name = bottom;
position = "{224, 0}";
},
{
name = ogonek;
position = "{431, 0}";
},
{
name = top;
position = "{348, 700}";
},
{
name = topleft;
position = "{102, 700}";
}
);
layerId = "90D50F69-F6F7-4633-9462-ED0440D3064F";
paths = (
{
closed = 1;
nodes = (
"431 0 LINE",
"434 18 LINE",
"57 18 LINE",
"114 339 LINE",
"461 339 LINE",
"464 358 LINE",
"117 358 LINE",
"175 682 LINE",
"552 682 LINE",
"555 700 LINE",
"158 700 LINE",
"34 0 LINE"
);
}
);
width = 532;
},
{
anchors = (
{
name = bottom;
position = "{224, 0}";
},
{
name = ogonek;
position = "{428, 0}";
},
{
name = top;
position = "{348, 700}";
},
{
name = topleft;
position = "{100, 700}";
}
);
layerId = "973C19EE-3504-4BDF-BF6D-4817D3AD4E7D";
paths = (
{
closed = 1;
nodes = (
"428 0 LINE",
"438 56 LINE",
"113 56 LINE",
"160 324 LINE",
"456 324 LINE",
"465 380 LINE",
"170 380 LINE",
"216 644 LINE",
"541 644 LINE",
"552 700 LINE",
"156 700 LINE",
"33 0 LINE"
);
}
);
width = 530;
},
{
anchors = (
{
name = bottom;
position = "{227, 0}";
},
{
name = ogonek;
position = "{435, 0}";
},
{
name = top;
position = "{351, 700}";
},
{
name = topleft;
position = "{100, 700}";
}
);
layerId = "8231B9DE-059C-4C71-A8C4-ABDA89A7D05C";
paths = (
{
closed = 1;
nodes = (
"435 0 LINE",
"447 67 LINE",
"127 67 LINE",
"171 320 LINE",
"462 320 LINE",
"473 386 LINE",
"183 386 LINE",
"226 633 LINE",
"546 633 LINE",
"559 700 LINE",
"154 700 LINE",
"31 0 LINE"
);
}
);
width = 536;
}
);
leftKerningGroup = H;
leftMetricsKey = H;
rightKerningGroup = E;
unicode = 0045;
userData = {
com.schriftgestaltung.Glyphs.ColorIndex = 4;
com.typesupply.AccentFactory.yCoordinates = {
bottom = {
name = origin;
type = glyphMetric;
};
top = {
name = capHeight;
type = fontInfo;
};
};
};
},
{
glyphname = F;
lastChange = "2023-05-19 14:03:36 +0000";
layers = (
{
anchors = (
{
name = bottom;
position = "{225, 0}";
},
{
name = top;
position = "{349, 700}";
}
);
layerId = "A390C1A2-E540-434D-BB9E-4BCEE875BA63";
paths = (
{
closed = 1;
nodes = (
"172 0 LINE",
"222 284 LINE",
"456 284 LINE",
"480 417 LINE",
"246 417 LINE",
"272 563 LINE",
"578 563 LINE",
"602 700 LINE",
"125 700 LINE",
"1 0 LINE"
);
}
);
width = 537;
},
{
anchors = (
{
name = bottom;
position = "{199, 0}";
},
{
name = top;
position = "{323, 700}";
}
);
layerId = "F5F01D5B-AEA3-4AC3-B3D8-92550D1582D7";
paths = (
{
closed = 1;
nodes = (
"85 0 LINE",
"141 317 LINE",
"432 317 LINE",
"444 385 LINE",
"153 385 LINE",
"197 631 LINE",
"539 631 LINE",
"551 700 LINE",
"125 700 LINE",
"1 0 LINE"
);
}
);
width = 486;
},
{
anchors = (
{
name = bottom;
position = "{195, 0}";
},
{
name = top;
position = "{319, 700}";
}
);
layerId = "3B8883BF-F483-4B97-AC7C-CABF8B821093";
paths = (
{
closed = 1;
nodes = (
"71 0 LINE",
"128 322 LINE",
"428 322 LINE",
"438 380 LINE",
"138 380 LINE",
"184 642 LINE",
"532 642 LINE",
"543 700 LINE",
"125 700 LINE",
"1 0 LINE"
);
}
);
width = 478;
},
{
anchors = (
{
name = bottom;
position = "{181, 0}";
},
{
name = top;
position = "{305, 700}";
}
);
layerId = "5D382461-81E1-4DF2-8677-8A6F02AD5363";
paths = (
{
closed = 1;
nodes = (
"21 0 LINE",
"82 344 LINE",
"415 344 LINE",
"418 362 LINE",
"85 362 LINE",
"142 682 LINE",
"512 682 LINE",
"515 700 LINE",
"125 700 LINE",
"1 0 LINE"
);
}
);
width = 450;
},
{
anchors = (
{
name = bottom;
position = "{200, 0}";
},
{
name = top;
position = "{447, 700}";
}
);
layerId = "1615C59E-33DE-4B88-B2CC-A48C7D56A125";
paths = (
{
closed = 1;
nodes = (
"197 0 LINE",
"247 284 LINE",
"481 284 LINE",
"505 417 LINE",
"271 417 LINE",
"297 563 LINE",
"603 563 LINE",
"627 700 LINE",
"150 700 LINE",
"26 0 LINE"
);
}
);
width = 585;
},
{
anchors = (
{
name = bottom;
position = "{240, 0}";
},
{
name = top;
position = "{363, 700}";
}
);
layerId = "A6F5E7A4-47EF-4F55-BF18-0ACACB57A720";
paths = (
{
closed = 1;
nodes = (
"115 0 LINE",
"171 317 LINE",
"462 317 LINE",
"474 385 LINE",
"183 385 LINE",
"227 631 LINE",
"569 631 LINE",
"581 700 LINE",
"155 700 LINE",
"31 0 LINE"
);
}
);
width = 540;
},
{
anchors = (
{
name = bottom;
position = "{226, 0}";
},
{
name = top;
position = "{349, 700}";
}
);
layerId = "2D111E5E-352D-4630-9162-BCEF010D26CF";
paths = (
{
closed = 1;
nodes = (
"108 0 LINE",
"165 323 LINE",
"465 323 LINE",
"475 380 LINE",
"175 380 LINE",
"221 642 LINE",
"569 642 LINE",
"580 700 LINE",
"162 700 LINE",
"38 0 LINE"
);
}
);
width = 543;
},
{
anchors = (
{
name = bottom;
position = "{206, 0}";
},
{
name = top;
position = "{329, 700}";
}
);
layerId = "EB62C368-BB48-47C0-A466-DA94204A0DE4";
paths = (
{
closed = 1;
nodes = (
"52 0 LINE",
"113 344 LINE",
"446 344 LINE",
"449 362 LINE",
"116 362 LINE",
"173 682 LINE",
"543 682 LINE",
"546 700 LINE",
"156 700 LINE",
"32 0 LINE"
);
}
);
width = 504;
},
{
anchors = (
{
name = bottom;
position = "{233, 0}";
},
{
name = top;
position = "{357, 700}";
}
);
layerId = "66953C5E-8AEB-4AF5-804F-512B0A9BA4E6";
paths = (
{
closed = 1;
nodes = (
"189 0 LINE",
"239 286 LINE",
"453 286 LINE",
"477 416 LINE",
"263 416 LINE",
"289 565 LINE",
"575 565 LINE",
"599 700 LINE",
"142 700 LINE",
"18 0 LINE"
);
}
);
width = 547;
},
{
anchors = (
{
name = bottom;
position = "{227, 0}";
},
{
name = top;
position = "{351, 700}";
}
);
layerId = "90D50F69-F6F7-4633-9462-ED0440D3064F";
paths = (
{
closed = 1;
nodes = (
"54 0 LINE",
"115 344 LINE",
"448 344 LINE",
"451 362 LINE",
"118 362 LINE",
"175 682 LINE",
"545 682 LINE",
"548 700 LINE",
"158 700 LINE",
"34 0 LINE"
);
}
);
width = 503;
},
{
anchors = (
{
name = bottom;
position = "{219, 0}";
},
{
name = top;
position = "{343, 700}";
}
);
layerId = "973C19EE-3504-4BDF-BF6D-4817D3AD4E7D";
paths = (
{
closed = 1;
nodes = (
"103 0 LINE",
"160 324 LINE",
"450 324 LINE",
"460 379 LINE",
"170 379 LINE",
"216 644 LINE",
"555 644 LINE",
"565 700 LINE",
"156 700 LINE",
"33 0 LINE"
);
}
);
width = 520;
},
{
anchors = (
{
name = bottom;
position = "{221, 0}";
},
{
name = top;
position = "{345, 700}";
}
);
layerId = "8231B9DE-059C-4C71-A8C4-ABDA89A7D05C";
paths = (
{
closed = 1;
nodes = (
"115 0 LINE",
"171 319 LINE",
"450 319 LINE",
"462 384 LINE",
"183 384 LINE",
"226 633 LINE",
"558 633 LINE",
"570 700 LINE",
"154 700 LINE",
"31 0 LINE"
);
}
);
width = 524;
}
);
leftKerningGroup = H;
leftMetricsKey = H;
unicode = 0046;
userData = {
com.schriftgestaltung.Glyphs.ColorIndex = 4;
com.typesupply.AccentFactory.yCoordinates = {
bottom = {
name = origin;
type = glyphMetric;
};
top = {
name = capHeight;
type = fontInfo;
};
};
};
},
{
glyphname = G;
lastChange = "2023-05-19 14:03:36 +0000";
layers = (
{
anchors = (
{
name = bottom;
position = "{342, 0}";
},
{
name = top;
position = "{466, 700}";
}
);
layerId = "A390C1A2-E540-434D-BB9E-4BCEE875BA63";
paths = (
{
closed = 1;
nodes = (
"404 -12 OFFCURVE",
"474 25 OFFCURVE",
"529 92 CURVE",
"533 92 LINE",
"525 0 LINE",
"683 0 LINE",
"753 396 LINE",
"431 396 LINE",
"409 270 LINE",
"560 270 LINE",
"533 198 OFFCURVE",
"472 139 OFFCURVE",
"368 139 CURVE SMOOTH",
"254 139 OFFCURVE",
"202 209 OFFCURVE",
"226 342 CURVE SMOOTH",
"249 472 OFFCURVE",
"324 554 OFFCURVE",
"448 554 CURVE SMOOTH",
"516 554 OFFCURVE",
"554 529 OFFCURVE",
"567 482 CURVE",
"756 482 LINE",
"749 626 OFFCURVE",
"647 712 OFFCURVE",
"477 712 CURVE SMOOTH",
"251 712 OFFCURVE",
"90 559 OFFCURVE",
"52 343 CURVE SMOOTH",
"14 129 OFFCURVE",
"120 -12 OFFCURVE",
"297 -12 CURVE SMOOTH"
);
}
);
width = 772;
},
{
anchors = (
{
name = bottom;
position = "{322, 0}";
},
{
name = top;
position = "{446, 700}";
}
);
layerId = "F5F01D5B-AEA3-4AC3-B3D8-92550D1582D7";
paths = (
{
closed = 1;
nodes = (
"419 -12 OFFCURVE",
"526 47 OFFCURVE",
"580 140 CURVE",
"584 140 LINE",
"568 0 LINE",
"642 0 LINE",
"708 374 LINE",
"420 374 LINE",
"409 308 LINE",
"611 308 LINE",
"573 157 OFFCURVE",
"455 63 OFFCURVE",
"325 63 CURVE SMOOTH",
"181 63 OFFCURVE",
"107 170 OFFCURVE",
"139 349 CURVE SMOOTH",
"170 527 OFFCURVE",
"288 635 OFFCURVE",
"443 635 CURVE SMOOTH",
"553 635 OFFCURVE",
"616 582 OFFCURVE",
"620 498 CURVE",
"717 498 LINE",
"711 632 OFFCURVE",
"614 712 OFFCURVE",
"457 712 CURVE SMOOTH",
"249 712 OFFCURVE",
"91 563 OFFCURVE",
"53 349 CURVE SMOOTH",
"15 134 OFFCURVE",
"115 -12 OFFCURVE",
"307 -12 CURVE SMOOTH"
);
}
);
width = 731;
},
{
anchors = (
{
name = bottom;
position = "{318, 0}";
},
{
name = top;
position = "{442, 700}";
}
);
layerId = "3B8883BF-F483-4B97-AC7C-CABF8B821093";
paths = (
{
closed = 1;
nodes = (
"439 -12 OFFCURVE",
"516 52 OFFCURVE",
"582 137 CURVE",
"586 137 LINE",
"571 0 LINE",
"635 0 LINE",
"701 371 LINE",
"418 371 LINE",
"408 314 LINE",
"619 314 LINE",
"579 150 OFFCURVE",
"484 51 OFFCURVE",
"327 51 CURVE SMOOTH",
"177 51 OFFCURVE",
"92 164 OFFCURVE",
"125 350 CURVE SMOOTH",
"158 536 OFFCURVE",
"283 648 OFFCURVE",
"443 648 CURVE SMOOTH",
"559 648 OFFCURVE",
"625 590 OFFCURVE",
"628 500 CURVE",
"710 500 LINE",
"704 633 OFFCURVE",
"608 712 OFFCURVE",
"454 712 CURVE SMOOTH",
"248 712 OFFCURVE",
"91 564 OFFCURVE",
"53 350 CURVE SMOOTH",
"15 135 OFFCURVE",
"120 -12 OFFCURVE",
"316 -12 CURVE SMOOTH"
);
}
);
width = 724;
},
{
anchors = (
{
name = bottom;
position = "{306, 0}";
},
{
name = top;
position = "{430, 700}";
}
);
layerId = "5D382461-81E1-4DF2-8677-8A6F02AD5363";
paths = (
{
closed = 1;
nodes = (
"441 -12 OFFCURVE",
"544 52 OFFCURVE",
"614 186 CURVE",
"618 186 LINE",
"594 0 LINE",
"610 0 LINE",
"674 359 LINE",
"411 359 LINE",
"407 341 LINE",
"648 341 LINE",
"600 127 OFFCURVE",
"473 8 OFFCURVE",
"307 8 CURVE SMOOTH",
"134 8 OFFCURVE",
"37 140 OFFCURVE",
"75 351 CURVE SMOOTH",
"112 564 OFFCURVE",
"265 692 OFFCURVE",
"438 692 CURVE SMOOTH",
"587 692 OFFCURVE",
"653 618 OFFCURVE",
"665 508 CURVE",
"687 508 LINE",
"674 640 OFFCURVE",
"588 712 OFFCURVE",
"442 712 CURVE SMOOTH",
"246 712 OFFCURVE",
"91 567 OFFCURVE",
"54 353 CURVE SMOOTH",
"16 138 OFFCURVE",
"112 -12 OFFCURVE",
"303 -12 CURVE SMOOTH"
);
}
);
width = 699;
},
{
anchors = (
{
name = bottom;
position = "{354, 0}";
},
{
name = top;
position = "{478, 700}";
}
);
layerId = "1615C59E-33DE-4B88-B2CC-A48C7D56A125";
paths = (
{
closed = 1;
nodes = (
"421 -12 OFFCURVE",
"486 17 OFFCURVE",
"536 70 CURVE",
"536 70 LINE",
"536 0 LINE",
"694 0 LINE",
"764 396 LINE",
"442 396 LINE",
"420 270 LINE",
"571 270 LINE",
"544 198 OFFCURVE",
"483 139 OFFCURVE",
"379 139 CURVE SMOOTH",
"265 139 OFFCURVE",
"212 209 OFFCURVE",
"236 342 CURVE SMOOTH",
"259 472 OFFCURVE",
"335 554 OFFCURVE",
"459 554 CURVE SMOOTH",
"527 554 OFFCURVE",
"565 529 OFFCURVE",
"578 482 CURVE",
"766 482 LINE",
"759 626 OFFCURVE",
"658 712 OFFCURVE",
"488 712 CURVE SMOOTH",
"262 712 OFFCURVE",
"100 559 OFFCURVE",
"62 343 CURVE SMOOTH",
"24 129 OFFCURVE",
"131 -12 OFFCURVE",
"331 -12 CURVE SMOOTH"
);
}
);
width = 802;
},
{
anchors = (
{
name = bottom;
position = "{350, 0}";
},
{
name = top;
position = "{473, 700}";
}
);
layerId = "A6F5E7A4-47EF-4F55-BF18-0ACACB57A720";
paths = (
{
closed = 1;
nodes = (
"449 -12 OFFCURVE",
"525 33 OFFCURVE",
"590 115 CURVE",
"590 115 LINE",
"576 0 LINE",
"653 0 LINE",
"719 374 LINE",
"431 374 LINE",
"420 308 LINE",
"622 308 LINE",
"584 157 OFFCURVE",
"493 63 OFFCURVE",
"344 63 CURVE SMOOTH",
"199 63 OFFCURVE",
"118 170 OFFCURVE",
"150 349 CURVE SMOOTH",
"181 527 OFFCURVE",
"299 635 OFFCURVE",
"454 635 CURVE SMOOTH",
"564 635 OFFCURVE",
"627 582 OFFCURVE",
"631 498 CURVE",
"728 498 LINE",
"722 632 OFFCURVE",
"625 712 OFFCURVE",
"468 712 CURVE SMOOTH",
"260 712 OFFCURVE",
"102 563 OFFCURVE",
"64 349 CURVE SMOOTH",
"26 134 OFFCURVE",
"131 -12 OFFCURVE",
"328 -12 CURVE SMOOTH"
);
}
);
width = 761;
},
{
anchors = (
{
name = bottom;
position = "{336, 0}";
},
{
name = top;
position = "{459, 700}";
}
);
layerId = "2D111E5E-352D-4630-9162-BCEF010D26CF";
paths = (
{
closed = 1;
nodes = (
"453 -12 OFFCURVE",
"535 38 OFFCURVE",
"600 131 CURVE",
"600 131 LINE",
"585 0 LINE",
"649 0 LINE",
"715 371 LINE",
"432 371 LINE",
"422 315 LINE",
"633 315 LINE",
"593 149 OFFCURVE",
"490 51 OFFCURVE",
"334 51 CURVE SMOOTH",
"183 51 OFFCURVE",
"106 164 OFFCURVE",
"139 350 CURVE SMOOTH",
"172 536 OFFCURVE",
"296 647 OFFCURVE",
"456 647 CURVE SMOOTH",
"573 647 OFFCURVE",
"638 590 OFFCURVE",
"643 500 CURVE",
"724 500 LINE",
"717 634 OFFCURVE",
"622 712 OFFCURVE",
"468 712 CURVE SMOOTH",
"262 712 OFFCURVE",
"105 564 OFFCURVE",
"67 350 CURVE SMOOTH",
"29 135 OFFCURVE",
"132 -12 OFFCURVE",
"328 -12 CURVE SMOOTH"
);
}
);
width = 763;
},
{
anchors = (
{
name = bottom;
position = "{317, 0}";
},
{
name = top;
position = "{440, 700}";
}
);
layerId = "EB62C368-BB48-47C0-A466-DA94204A0DE4";
paths = (
{
closed = 1;
nodes = (
"450 -12 OFFCURVE",
"558 53 OFFCURVE",
"626 187 CURVE",
"626 187 LINE",
"603 0 LINE",
"619 0 LINE",
"683 359 LINE",
"420 359 LINE",
"416 341 LINE",
"657 341 LINE",
"607 120 OFFCURVE",
"495 8 OFFCURVE",
"316 8 CURVE SMOOTH",
"143 8 OFFCURVE",
"47 142 OFFCURVE",
"85 353 CURVE SMOOTH",
"122 566 OFFCURVE",
"275 693 OFFCURVE",
"453 693 CURVE SMOOTH",
"596 693 OFFCURVE",
"663 618 OFFCURVE",
"675 508 CURVE",
"696 508 LINE",
"683 640 OFFCURVE",
"597 712 OFFCURVE",
"451 712 CURVE SMOOTH",
"255 712 OFFCURVE",
"100 567 OFFCURVE",
"63 353 CURVE SMOOTH",
"25 138 OFFCURVE",
"121 -12 OFFCURVE",
"312 -12 CURVE SMOOTH"
);
}
);
width = 725;
},
{
anchors = (
{
name = bottom;
position = "{353, 0}";
},
{
name = top;
position = "{477, 700}";
}
);
layerId = "66953C5E-8AEB-4AF5-804F-512B0A9BA4E6";
paths = (
{
closed = 1;
nodes = (
"424 -12 OFFCURVE",
"488 17 OFFCURVE",
"537 70 CURVE",
"537 70 LINE",
"541 0 LINE",
"696 0 LINE",
"766 396 LINE",
"444 396 LINE",
"422 270 LINE",
"573 270 LINE",
"546 198 OFFCURVE",
"484 139 OFFCURVE",
"381 139 CURVE SMOOTH",
"285 139 OFFCURVE",
"233 198 OFFCURVE",
"233 298 CURVE SMOOTH",
"233 452 OFFCURVE",
"327 554 OFFCURVE",
"461 554 CURVE SMOOTH",
"529 554 OFFCURVE",
"566 529 OFFCURVE",
"580 482 CURVE",
"769 482 LINE",
"761 626 OFFCURVE",
"657 712 OFFCURVE",
"487 712 CURVE SMOOTH",
"241 712 OFFCURVE",
"57 539 OFFCURVE",
"57 283 CURVE SMOOTH",
"57 116 OFFCURVE",
"160 -12 OFFCURVE",
"333 -12 CURVE SMOOTH"
);
}
);
width = 793;
},
{
anchors = (
{
name = bottom;
position = "{337, 0}";
},
{
name = top;
position = "{461, 700}";
}
);
layerId = "90D50F69-F6F7-4633-9462-ED0440D3064F";
paths = (
{
closed = 1;
nodes = (
"454 -12 OFFCURVE",
"564 60 OFFCURVE",
"632 194 CURVE",
"632 194 LINE",
"606 0 LINE",
"622 0 LINE",
"686 359 LINE",
"423 359 LINE",
"419 341 LINE",
"660 341 LINE",
"612 127 OFFCURVE",
"498 8 OFFCURVE",
"319 8 CURVE SMOOTH",
"146 8 OFFCURVE",
"50 142 OFFCURVE",
"88 353 CURVE SMOOTH",
"125 566 OFFCURVE",
"274 692 OFFCURVE",
"450 692 CURVE SMOOTH",
"595 692 OFFCURVE",
"665 618 OFFCURVE",
"677 508 CURVE",
"699 508 LINE",
"686 640 OFFCURVE",
"600 712 OFFCURVE",
"454 712 CURVE SMOOTH",
"258 712 OFFCURVE",
"103 567 OFFCURVE",
"66 353 CURVE SMOOTH",
"28 138 OFFCURVE",
"124 -12 OFFCURVE",
"315 -12 CURVE SMOOTH"
);
}
);
width = 725;
},
{
anchors = (
{
name = bottom;
position = "{334, 0}";
},
{
name = top;
position = "{458, 700}";
}
);
layerId = "973C19EE-3504-4BDF-BF6D-4817D3AD4E7D";
paths = (
{
closed = 1;
nodes = (
"460 -12 OFFCURVE",
"536 36 OFFCURVE",
"603 122 CURVE",
"603 122 LINE",
"587 0 LINE",
"652 0 LINE",
"717 371 LINE",
"434 371 LINE",
"424 314 LINE",
"635 314 LINE",
"595 150 OFFCURVE",
"501 51 OFFCURVE",
"344 51 CURVE SMOOTH",
"216 51 OFFCURVE",
"135 142 OFFCURVE",
"135 282 CURVE SMOOTH",
"135 495 OFFCURVE",
"264 648 OFFCURVE",
"456 648 CURVE SMOOTH",
"575 648 OFFCURVE",
"642 590 OFFCURVE",
"645 500 CURVE",
"727 500 LINE",
"721 633 OFFCURVE",
"619 712 OFFCURVE",
"463 712 CURVE SMOOTH",
"227 712 OFFCURVE",
"62 529 OFFCURVE",
"62 278 CURVE SMOOTH",
"62 110 OFFCURVE",
"164 -12 OFFCURVE",
"333 -12 CURVE SMOOTH"
);
}
);
width = 756;
},
{
anchors = (
{
name = bottom;
position = "{346, 0}";
},
{
name = top;
position = "{470, 700}";
}
);
layerId = "8231B9DE-059C-4C71-A8C4-ABDA89A7D05C";
paths = (
{
closed = 1;
nodes = (
"455 -12 OFFCURVE",
"529 33 OFFCURVE",
"594 115 CURVE",
"594 115 LINE",
"581 0 LINE",
"658 0 LINE",
"724 374 LINE",
"435 374 LINE",
"424 308 LINE",
"626 308 LINE",
"588 157 OFFCURVE",
"499 63 OFFCURVE",
"349 63 CURVE SMOOTH",
"226 63 OFFCURVE",
"149 150 OFFCURVE",
"149 284 CURVE SMOOTH",
"149 489 OFFCURVE",
"273 635 OFFCURVE",
"457 635 CURVE SMOOTH",
"569 635 OFFCURVE",
"631 582 OFFCURVE",
"636 498 CURVE",
"733 498 LINE",
"727 632 OFFCURVE",
"624 712 OFFCURVE",
"466 712 CURVE SMOOTH",
"229 712 OFFCURVE",
"61 530 OFFCURVE",
"61 279 CURVE SMOOTH",
"61 111 OFFCURVE",
"163 -12 OFFCURVE",
"333 -12 CURVE SMOOTH"
);
}
);
width = 761;
}
);
leftKerningGroup = O;
leftMetricsKey = O;
rightKerningGroup = G;
unicode = 0047;
userData = {
com.schriftgestaltung.Glyphs.ColorIndex = 4;
com.typemytype.robofont.layerData = {
b = {
anchors = (
{
name = top;
x = 411;
y = 683;
},
{
name = bottom;
x = 411;
y = 0;
}
);
components = (
);
contours = (
{
points = (
{
segmentType = curve;
smooth = 1;
x = 60;
y = 341;
},
{
smooth = 0;
x = 60;
y = 138;
},
{
smooth = 0;
x = 214;
y = -6;
},
{
segmentType = curve;
smooth = 1;
x = 407;
y = -6;
},
{
smooth = 0;
x = 590;
y = -6;
},
{
smooth = 0;
x = 747;
y = 110;
},
{
segmentType = curve;
smooth = 0;
x = 764;
y = 341;
},
{
segmentType = line;
smooth = 0;
x = 764;
y = 360;
},
{
segmentType = line;
smooth = 0;
x = 381;
y = 360;
},
{
segmentType = line;
smooth = 0;
x = 381;
y = 341;
},
{
segmentType = line;
smooth = 0;
x = 747;
y = 341;
},
{
smooth = 0;
x = 733;
y = 132;
},
{
smooth = 0;
x = 600;
y = 6;
},
{
segmentType = curve;
smooth = 1;
x = 407;
y = 6;
},
{
smooth = 0;
x = 226;
y = 6;
},
{
smooth = 0;
x = 80;
y = 137;
},
{
segmentType = curve;
smooth = 1;
x = 80;
y = 341;
},
{
smooth = 0;
x = 80;
y = 547;
},
{
smooth = 0;
x = 226;
y = 677;
},
{
segmentType = curve;
smooth = 1;
x = 407;
y = 677;
},
{
smooth = 0;
x = 528;
y = 677;
},
{
smooth = 0;
x = 633;
y = 618;
},
{
segmentType = curve;
smooth = 0;
x = 683;
y = 525;
},
{
segmentType = line;
smooth = 0;
x = 709;
y = 525;
},
{
smooth = 0;
x = 648;
y = 637;
},
{
smooth = 0;
x = 537;
y = 690;
},
{
segmentType = curve;
smooth = 1;
x = 407;
y = 690;
},
{
smooth = 0;
x = 214;
y = 690;
},
{
smooth = 0;
x = 60;
y = 546;
}
);
}
);
lib = {
};
name = G;
unicodes = (
);
width = 792;
};
};
com.typesupply.AccentFactory.yCoordinates = {
bottom = {
name = origin;
type = glyphMetric;
};
top = {
name = capHeight;
type = fontInfo;
};
};
};
},
{
glyphname = H;
lastChange = "2023-05-19 14:03:36 +0000";
layers = (
{
anchors = (
{
name = bottom;
position = "{305, 0}";
},
{
name = center;
position = "{367, 350}";
},
{
name = top;
position = "{429, 700}";
},
{
name = topleft;
position = "{100, 700}";
}
);
layerId = "A390C1A2-E540-434D-BB9E-4BCEE875BA63";
paths = (
{
closed = 1;
nodes = (
"609 0 LINE",
"733 700 LINE",
"562 700 LINE",
"438 0 LINE"
);
},
{
closed = 1;
nodes = (
"172 0 LINE",
"296 700 LINE",
"125 700 LINE",
"1 0 LINE"
);
},
{
closed = 1;
nodes = (
"513 289 LINE",
"538 427 LINE",
"228 427 LINE",
"203 289 LINE"
);
}
);
width = 698;
},
{
anchors = (
{
name = bottom;
position = "{267, 0}";
},
{
name = center;
position = "{329, 350}";
},
{
name = top;
position = "{391, 700}";
},
{
name = topleft;
position = "{100, 700}";
}
);
layerId = "F5F01D5B-AEA3-4AC3-B3D8-92550D1582D7";
paths = (
{
closed = 1;
nodes = (
"532 0 LINE",
"656 700 LINE",
"572 700 LINE",
"448 0 LINE"
);
},
{
closed = 1;
nodes = (
"85 0 LINE",
"209 700 LINE",
"125 700 LINE",
"1 0 LINE"
);
},
{
closed = 1;
nodes = (
"526 322 LINE",
"538 391 LINE",
"138 391 LINE",
"126 322 LINE"
);
}
);
width = 621;
},
{
anchors = (
{
name = bottom;
position = "{261, 0}";
},
{
name = center;
position = "{323, 350}";
},
{
name = top;
position = "{385, 700}";
},
{
name = topleft;
position = "{100, 700}";
}
);
layerId = "3B8883BF-F483-4B97-AC7C-CABF8B821093";
paths = (
{
closed = 1;
nodes = (
"520 0 LINE",
"644 700 LINE",
"574 700 LINE",
"450 0 LINE"
);
},
{
closed = 1;
nodes = (
"71 0 LINE",
"195 700 LINE",
"125 700 LINE",
"1 0 LINE"
);
},
{
closed = 1;
nodes = (
"528 328 LINE",
"538 386 LINE",
"123 386 LINE",
"113 328 LINE"
);
}
);
width = 609;
},
{
anchors = (
{
name = bottom;
position = "{239, 0}";
},
{
name = center;
position = "{301, 350}";
},
{
name = top;
position = "{363, 700}";
},
{
name = topleft;
position = "{100, 700}";
}
);
layerId = "5D382461-81E1-4DF2-8677-8A6F02AD5363";
paths = (
{
closed = 1;
nodes = (
"477 0 LINE",
"601 700 LINE",
"581 700 LINE",
"457 0 LINE"
);
},
{
closed = 1;
nodes = (
"21 0 LINE",
"145 700 LINE",
"125 700 LINE",
"1 0 LINE"
);
},
{
closed = 1;
nodes = (
"535 348 LINE",
"538 366 LINE",
"72 366 LINE",
"69 348 LINE"
);
}
);
width = 566;
},
{
anchors = (
{
name = bottom;
position = "{284, 0}";
},
{
name = center;
position = "{407, 350}";
},
{
name = top;
position = "{531, 700}";
},
{
name = topleft;
position = "{175, 700}";
}
);
layerId = "1615C59E-33DE-4B88-B2CC-A48C7D56A125";
paths = (
{
closed = 1;
nodes = (
"634 0 LINE",
"758 700 LINE",
"587 700 LINE",
"463 0 LINE"
);
},
{
closed = 1;
nodes = (
"197 0 LINE",
"321 700 LINE",
"150 700 LINE",
"26 0 LINE"
);
},
{
closed = 1;
nodes = (
"538 289 LINE",
"563 427 LINE",
"253 427 LINE",
"228 289 LINE"
);
}
);
width = 753;
},
{
anchors = (
{
name = bottom;
position = "{313, 0}";
},
{
name = center;
position = "{374, 350}";
},
{
name = top;
position = "{436, 700}";
},
{
name = topleft;
position = "{113, 700}";
}
);
layerId = "A6F5E7A4-47EF-4F55-BF18-0ACACB57A720";
paths = (
{
closed = 1;
nodes = (
"562 0 LINE",
"686 700 LINE",
"602 700 LINE",
"478 0 LINE"
);
},
{
closed = 1;
nodes = (
"115 0 LINE",
"239 700 LINE",
"155 700 LINE",
"31 0 LINE"
);
},
{
closed = 1;
nodes = (
"556 322 LINE",
"568 391 LINE",
"168 391 LINE",
"156 322 LINE"
);
}
);
width = 686;
},
{
anchors = (
{
name = bottom;
position = "{298, 0}";
},
{
name = center;
position = "{359, 350}";
},
{
name = top;
position = "{421, 700}";
},
{
name = topleft;
position = "{97, 700}";
}
);
layerId = "2D111E5E-352D-4630-9162-BCEF010D26CF";
paths = (
{
closed = 1;
nodes = (
"557 0 LINE",
"681 700 LINE",
"611 700 LINE",
"487 0 LINE"
);
},
{
closed = 1;
nodes = (
"108 0 LINE",
"232 700 LINE",
"162 700 LINE",
"38 0 LINE"
);
},
{
closed = 1;
nodes = (
"565 328 LINE",
"575 386 LINE",
"160 386 LINE",
"150 328 LINE"
);
}
);
width = 688;
},
{
anchors = (
{
name = bottom;
position = "{270, 0}";
},
{
name = center;
position = "{331, 350}";
},
{
name = top;
position = "{393, 700}";
},
{
name = topleft;
position = "{97, 700}";
}
);
layerId = "EB62C368-BB48-47C0-A466-DA94204A0DE4";
paths = (
{
closed = 1;
nodes = (
"508 0 LINE",
"632 700 LINE",
"612 700 LINE",
"488 0 LINE"
);
},
{
closed = 1;
nodes = (
"52 0 LINE",
"176 700 LINE",
"156 700 LINE",
"32 0 LINE"
);
},
{
closed = 1;
nodes = (
"566 348 LINE",
"569 366 LINE",
"103 366 LINE",
"100 348 LINE"
);
}
);
width = 632;
},
{
anchors = (
{
name = bottom;
position = "{322, 0}";
},
{
name = center;
position = "{384, 350}";
},
{
name = top;
position = "{446, 700}";
},
{
name = topleft;
position = "{100, 700}";
}
);
layerId = "66953C5E-8AEB-4AF5-804F-512B0A9BA4E6";
paths = (
{
closed = 1;
nodes = (
"626 0 LINE",
"750 700 LINE",
"579 700 LINE",
"455 0 LINE"
);
},
{
closed = 1;
nodes = (
"189 0 LINE",
"313 700 LINE",
"142 700 LINE",
"18 0 LINE"
);
},
{
closed = 1;
nodes = (
"530 291 LINE",
"554 426 LINE",
"244 426 LINE",
"220 291 LINE"
);
}
);
width = 732;
},
{
anchors = (
{
name = bottom;
position = "{290, 0}";
},
{
name = center;
position = "{352, 350}";
},
{
name = top;
position = "{414, 700}";
},
{
name = topleft;
position = "{120, 700}";
}
);
layerId = "90D50F69-F6F7-4633-9462-ED0440D3064F";
paths = (
{
closed = 1;
nodes = (
"510 0 LINE",
"634 700 LINE",
"614 700 LINE",
"490 0 LINE"
);
},
{
closed = 1;
nodes = (
"54 0 LINE",
"178 700 LINE",
"158 700 LINE",
"34 0 LINE"
);
},
{
closed = 1;
nodes = (
"568 348 LINE",
"571 366 LINE",
"105 366 LINE",
"102 348 LINE"
);
}
);
width = 631;
},
{
anchors = (
{
name = bottom;
position = "{292, 0}";
},
{
name = center;
position = "{354, 350}";
},
{
name = top;
position = "{416, 700}";
},
{
name = topleft;
position = "{100, 700}";
}
);
layerId = "973C19EE-3504-4BDF-BF6D-4817D3AD4E7D";
paths = (
{
closed = 1;
nodes = (
"552 0 LINE",
"676 700 LINE",
"606 700 LINE",
"482 0 LINE"
);
},
{
closed = 1;
nodes = (
"103 0 LINE",
"226 700 LINE",
"156 700 LINE",
"33 0 LINE"
);
},
{
closed = 1;
nodes = (
"560 329 LINE",
"570 384 LINE",
"155 384 LINE",
"145 329 LINE"
);
}
);
width = 672;
},
{
anchors = (
{
name = bottom;
position = "{296, 0}";
},
{
name = center;
position = "{358, 350}";
},
{
name = top;
position = "{420, 700}";
},
{
name = topleft;
position = "{100, 700}";
}
);
layerId = "8231B9DE-059C-4C71-A8C4-ABDA89A7D05C";
paths = (
{
closed = 1;
nodes = (
"562 0 LINE",
"686 700 LINE",
"602 700 LINE",
"478 0 LINE"
);
},
{
closed = 1;
nodes = (
"115 0 LINE",
"238 700 LINE",
"154 700 LINE",
"31 0 LINE"
);
},
{
closed = 1;
nodes = (
"556 324 LINE",
"568 390 LINE",
"167 390 LINE",
"155 324 LINE"
);
}
);
width = 680;
}
);
leftKerningGroup = H;
rightKerningGroup = H;
unicode = 0048;
userData = {
com.schriftgestaltung.Glyphs.ColorIndex = 4;
com.typesupply.AccentFactory.yCoordinates = {
bottom = {
name = origin;
type = glyphMetric;
};
top = {
name = capHeight;
type = fontInfo;
};
};
};
},
{
glyphname = Hbar;
lastChange = "2023-05-19 14:03:36 +0000";
layers = (
{
components = (
{
name = H;
transform = "{1, 0, 0, 1, 34, 0}";
}
);
guideLines = (
{
angle = 260;
position = "{697, 524}";
}
);
layerId = "EB62C368-BB48-47C0-A466-DA94204A0DE4";
paths = (
{
closed = 1;
nodes = (
"697 524 LINE",
"700 542 LINE",
"99 542 LINE",
"96 524 LINE"
);
}
);
width = 701;
},
{
components = (
{
name = H;
transform = "{1, 0, 0, 1, 21, 0}";
}
);
guideLines = (
{
angle = 260;
position = "{736, 500}";
}
);
layerId = "2D111E5E-352D-4630-9162-BCEF010D26CF";
paths = (
{
closed = 1;
nodes = (
"736 500 LINE",
"748 565 LINE",
"89 565 LINE",
"77 500 LINE"
);
}
);
width = 730;
},
{
components = (
{
name = H;
transform = "{1, 0, 0, 1, 31, 0}";
}
);
layerId = "A6F5E7A4-47EF-4F55-BF18-0ACACB57A720";
paths = (
{
closed = 1;
nodes = (
"750 495 LINE",
"764 571 LINE",
"95 571 LINE",
"81 495 LINE"
);
}
);
width = 750;
},
{
components = (
{
name = H;
transform = "{1, 0, 0, 1, 18, 0}";
}
);
layerId = "1615C59E-33DE-4B88-B2CC-A48C7D56A125";
paths = (
{
closed = 1;
nodes = (
"810 492 LINE",
"832 622 LINE",
"83 622 LINE",
"61 492 LINE"
);
}
);
width = 790;
},
{
components = (
{
name = H;
transform = "{1, 0, 0, 1, 34, 0}";
}
);
layerId = "90D50F69-F6F7-4633-9462-ED0440D3064F";
paths = (
{
closed = 1;
nodes = (
"700 524 LINE",
"703 542 LINE",
"102 542 LINE",
"99 524 LINE"
);
}
);
width = 701;
},
{
components = (
{
name = H;
transform = "{1, 0, 0, 1, 31, 0}";
}
);
layerId = "973C19EE-3504-4BDF-BF6D-4817D3AD4E7D";
paths = (
{
closed = 1;
nodes = (
"738 500 LINE",
"750 565 LINE",
"91 565 LINE",
"79 500 LINE"
);
}
);
width = 729;
},
{
components = (
{
name = H;
transform = "{1, 0, 0, 1, 35, 0}";
}
);
layerId = "8231B9DE-059C-4C71-A8C4-ABDA89A7D05C";
paths = (
{
closed = 1;
nodes = (
"753 495 LINE",
"767 571 LINE",
"98 571 LINE",
"84 495 LINE"
);
}
);
width = 750;
},
{
components = (
{
name = H;
transform = "{1, 0, 0, 1, 29, 0}";
}
);
layerId = "66953C5E-8AEB-4AF5-804F-512B0A9BA4E6";
paths = (
{
closed = 1;
nodes = (
"813 492 LINE",
"835 622 LINE",
"86 622 LINE",
"64 492 LINE"
);
}
);
width = 790;
},
{
components = (
{
name = H;
transform = "{1, 0, 0, 1, 27, 0}";
}
);
layerId = "5D382461-81E1-4DF2-8677-8A6F02AD5363";
paths = (
{
closed = 1;
nodes = (
"660 524 LINE",
"663 542 LINE",
"62 542 LINE",
"59 524 LINE"
);
}
);
width = 621;
},
{
components = (
{
name = H;
transform = "{1, 0, 0, 1, 35, 0}";
}
);
layerId = "3B8883BF-F483-4B97-AC7C-CABF8B821093";
paths = (
{
closed = 1;
nodes = (
"713 500 LINE",
"725 565 LINE",
"66 565 LINE",
"54 500 LINE"
);
}
);
width = 679;
},
{
components = (
{
name = H;
transform = "{1, 0, 0, 1, 65, 0}";
}
);
layerId = "F5F01D5B-AEA3-4AC3-B3D8-92550D1582D7";
paths = (
{
closed = 1;
nodes = (
"753 495 LINE",
"767 571 LINE",
"98 571 LINE",
"84 495 LINE"
);
}
);
width = 750;
},
{
components = (
{
name = H;
transform = "{1, 0, 0, 1, 46, 0}";
}
);
layerId = "A390C1A2-E540-434D-BB9E-4BCEE875BA63";
paths = (
{
closed = 1;
nodes = (
"813 492 LINE",
"835 622 LINE",
"86 622 LINE",
"64 492 LINE"
);
}
);
width = 790;
}
);
unicode = 0126;
},
{
glyphname = I;
lastChange = "2023-05-19 14:03:36 +0000";
layers = (
{
anchors = (
{
name = bottom;
position = "{87, 0}";
},
{
name = ogonek;
position = "{172, 0}";
},
{
name = top;
position = "{211, 700}";
},
{
name = topleft;
position = "{100, 700}";
}
);
layerId = "A390C1A2-E540-434D-BB9E-4BCEE875BA63";
paths = (
{
closed = 1;
nodes = (
"172 0 LINE",
"296 700 LINE",
"125 700 LINE",
"1 0 LINE"
);
}
);
width = 261;
},
{
anchors = (
{
name = bottom;
position = "{43, 0}";
},
{
name = ogonek;
position = "{85, 0}";
},
{
name = top;
position = "{167, 700}";
},
{
name = topleft;
position = "{100, 700}";
}
);
layerId = "F5F01D5B-AEA3-4AC3-B3D8-92550D1582D7";
paths = (
{
closed = 1;
nodes = (
"85 0 LINE",
"209 700 LINE",
"125 700 LINE",
"1 0 LINE"
);
}
);
width = 174;
},
{
anchors = (
{
name = bottom;
position = "{36, 0}";
},
{
name = ogonek;
position = "{71, 0}";
},
{
name = top;
position = "{160, 700}";
},
{
name = topleft;
position = "{100, 700}";
}
);
layerId = "3B8883BF-F483-4B97-AC7C-CABF8B821093";
paths = (
{
closed = 1;
nodes = (
"71 0 LINE",
"195 700 LINE",
"125 700 LINE",
"1 0 LINE"
);
}
);
width = 160;
},
{
anchors = (
{
name = bottom;
position = "{11, 0}";
},
{
name = ogonek;
position = "{21, 0}";
},
{
name = top;
position = "{135, 700}";
},
{
name = topleft;
position = "{100, 700}";
}
);
layerId = "5D382461-81E1-4DF2-8677-8A6F02AD5363";
paths = (
{
closed = 1;
nodes = (
"21 0 LINE",
"145 700 LINE",
"125 700 LINE",
"1 0 LINE"
);
}
);
width = 110;
},
{
anchors = (
{
name = bottom;
position = "{66, 0}";
},
{
name = ogonek;
position = "{197, 0}";
},
{
name = top;
position = "{236, 700}";
},
{
name = topleft;
position = "{175, 700}";
}
);
layerId = "1615C59E-33DE-4B88-B2CC-A48C7D56A125";
paths = (
{
closed = 1;
nodes = (
"197 0 LINE",
"321 700 LINE",
"150 700 LINE",
"26 0 LINE"
);
}
);
width = 316;
},
{
anchors = (
{
name = bottom;
position = "{74, 0}";
},
{
name = ogonek;
position = "{115, 0}";
},
{
name = top;
position = "{196, 700}";
},
{
name = topleft;
position = "{113, 700}";
}
);
layerId = "A6F5E7A4-47EF-4F55-BF18-0ACACB57A720";
paths = (
{
closed = 1;
nodes = (
"115 0 LINE",
"239 700 LINE",
"155 700 LINE",
"31 0 LINE"
);
}
);
width = 239;
},
{
anchors = (
{
name = bottom;
position = "{74, 0}";
},
{
name = ogonek;
position = "{108, 0}";
},
{
name = top;
position = "{197, 700}";
},
{
name = topleft;
position = "{97, 700}";
}
);
layerId = "2D111E5E-352D-4630-9162-BCEF010D26CF";
paths = (
{
closed = 1;
nodes = (
"108 0 LINE",
"232 700 LINE",
"162 700 LINE",
"38 0 LINE"
);
}
);
width = 239;
},
{
anchors = (
{
name = bottom;
position = "{42, 0}";
},
{
name = ogonek;
position = "{52, 0}";
},
{
name = top;
position = "{165, 700}";
},
{
name = topleft;
position = "{97, 700}";
}
);
layerId = "EB62C368-BB48-47C0-A466-DA94204A0DE4";
paths = (
{
closed = 1;
nodes = (
"52 0 LINE",
"176 700 LINE",
"156 700 LINE",
"32 0 LINE"
);
}
);
width = 176;
},
{
anchors = (
{
name = bottom;
position = "{104, 0}";
},
{
name = ogonek;
position = "{189, 0}";
},
{
name = top;
position = "{228, 700}";
},
{
name = topleft;
position = "{100, 700}";
}
);
layerId = "66953C5E-8AEB-4AF5-804F-512B0A9BA4E6";
paths = (
{
closed = 1;
nodes = (
"189 0 LINE",
"313 700 LINE",
"142 700 LINE",
"18 0 LINE"
);
}
);
width = 295;
},
{
anchors = (
{
name = bottom;
position = "{44, 0}";
},
{
name = ogonek;
position = "{54, 0}";
},
{
name = top;
position = "{168, 700}";
},
{
name = topleft;
position = "{120, 700}";
}
);
layerId = "90D50F69-F6F7-4633-9462-ED0440D3064F";
paths = (
{
closed = 1;
nodes = (
"54 0 LINE",
"178 700 LINE",
"158 700 LINE",
"34 0 LINE"
);
}
);
width = 175;
},
{
anchors = (
{
name = bottom;
position = "{68, 0}";
},
{
name = ogonek;
position = "{103, 0}";
},
{
name = top;
position = "{192, 700}";
},
{
name = topleft;
position = "{100, 700}";
}
);
layerId = "973C19EE-3504-4BDF-BF6D-4817D3AD4E7D";
paths = (
{
closed = 1;
nodes = (
"103 0 LINE",
"226 700 LINE",
"156 700 LINE",
"33 0 LINE"
);
}
);
width = 223;
},
{
anchors = (
{
name = bottom;
position = "{73, 0}";
},
{
name = ogonek;
position = "{115, 0}";
},
{
name = top;
position = "{197, 700}";
},
{
name = topleft;
position = "{100, 700}";
}
);
layerId = "8231B9DE-059C-4C71-A8C4-ABDA89A7D05C";
paths = (
{
closed = 1;
nodes = (
"115 0 LINE",
"238 700 LINE",
"154 700 LINE",
"31 0 LINE"
);
}
);
width = 233;
}
);
leftKerningGroup = H;
leftMetricsKey = H;
rightKerningGroup = H;
rightMetricsKey = H;
unicode = 0049;
userData = {
com.schriftgestaltung.Glyphs.ColorIndex = 4;
com.typemytype.robofont.guides = (
{
angle = 0;
isGlobal = 0;
magnetic = 5;
x = 83;
y = 684;
}
);
com.typesupply.AccentFactory.yCoordinates = {
bottom = {
name = origin;
type = glyphMetric;
};
top = {
name = capHeight;
type = fontInfo;
};
};
};
},
{
glyphname = J;
lastChange = "2023-05-19 14:03:36 +0000";
layers = (
{
anchors = (
{
name = bottom;
position = "{227, 0}";
},
{
name = top;
position = "{351, 700}";
}
);
layerId = "A390C1A2-E540-434D-BB9E-4BCEE875BA63";
paths = (
{
closed = 1;
nodes = (
"358 -12 OFFCURVE",
"464 68 OFFCURVE",
"491 219 CURVE SMOOTH",
"576 700 LINE",
"405 700 LINE",
"320 219 LINE SMOOTH",
"311 167 OFFCURVE",
"282 141 OFFCURVE",
"241 141 CURVE SMOOTH",
"197 141 OFFCURVE",
"176 170 OFFCURVE",
"187 230 CURVE",
"17 230 LINE",
"-11 72 OFFCURVE",
"75 -12 OFFCURVE",
"219 -12 CURVE SMOOTH"
);
}
);
width = 541;
},
{
anchors = (
{
name = bottom;
position = "{188, 0}";
},
{
name = top;
position = "{312, 700}";
}
);
layerId = "F5F01D5B-AEA3-4AC3-B3D8-92550D1582D7";
paths = (
{
closed = 1;
nodes = (
"299 -12 OFFCURVE",
"385 60 OFFCURVE",
"407 185 CURVE SMOOTH",
"498 700 LINE",
"414 700 LINE",
"323 185 LINE SMOOTH",
"311 115 OFFCURVE",
"273 63 OFFCURVE",
"189 63 CURVE SMOOTH",
"99 63 OFFCURVE",
"78 117 OFFCURVE",
"90 188 CURVE",
"9 188 LINE",
"-13 63 OFFCURVE",
"51 -12 OFFCURVE",
"177 -12 CURVE SMOOTH"
);
}
);
width = 463;
},
{
anchors = (
{
name = bottom;
position = "{182, 0}";
},
{
name = top;
position = "{306, 700}";
}
);
layerId = "3B8883BF-F483-4B97-AC7C-CABF8B821093";
paths = (
{
closed = 1;
nodes = (
"290 -12 OFFCURVE",
"373 59 OFFCURVE",
"394 180 CURVE SMOOTH",
"486 700 LINE",
"416 700 LINE",
"324 180 LINE SMOOTH",
"311 107 OFFCURVE",
"272 50 OFFCURVE",
"181 50 CURVE SMOOTH",
"88 50 OFFCURVE",
"68 109 OFFCURVE",
"79 181 CURVE",
"8 181 LINE",
"-13 61 OFFCURVE",
"47 -12 OFFCURVE",
"170 -12 CURVE SMOOTH"
);
}
);
width = 451;
},
{
anchors = (
{
name = bottom;
position = "{160, 0}";
},
{
name = top;
position = "{284, 700}";
}
);
layerId = "5D382461-81E1-4DF2-8677-8A6F02AD5363";
paths = (
{
closed = 1;
nodes = (
"257 -12 OFFCURVE",
"328 46 OFFCURVE",
"348 162 CURVE SMOOTH",
"443 700 LINE",
"423 700 LINE",
"329 169 LINE SMOOTH",
"314 86 OFFCURVE",
"268 8 OFFCURVE",
"148 8 CURVE SMOOTH",
"34 8 OFFCURVE",
"13 79 OFFCURVE",
"24 156 CURVE",
"4 156 LINE",
"-14 54 OFFCURVE",
"34 -12 OFFCURVE",
"145 -12 CURVE SMOOTH"
);
}
);
width = 408;
},
{
anchors = (
{
name = bottom;
position = "{200, 0}";
},
{
name = top;
position = "{447, 700}";
}
);
layerId = "1615C59E-33DE-4B88-B2CC-A48C7D56A125";
paths = (
{
closed = 1;
nodes = (
"373 -12 OFFCURVE",
"479 68 OFFCURVE",
"506 219 CURVE SMOOTH",
"591 700 LINE",
"420 700 LINE",
"335 219 LINE SMOOTH",
"326 167 OFFCURVE",
"297 141 OFFCURVE",
"256 141 CURVE SMOOTH",
"212 141 OFFCURVE",
"191 170 OFFCURVE",
"202 230 CURVE",
"32 230 LINE",
"4 72 OFFCURVE",
"90 -12 OFFCURVE",
"234 -12 CURVE SMOOTH"
);
}
);
width = 586;
},
{
anchors = (
{
name = bottom;
position = "{223, 0}";
},
{
name = top;
position = "{346, 700}";
}
);
layerId = "A6F5E7A4-47EF-4F55-BF18-0ACACB57A720";
paths = (
{
closed = 1;
nodes = (
"309 -12 OFFCURVE",
"395 60 OFFCURVE",
"417 185 CURVE SMOOTH",
"508 700 LINE",
"424 700 LINE",
"333 185 LINE SMOOTH",
"321 115 OFFCURVE",
"283 63 OFFCURVE",
"199 63 CURVE SMOOTH",
"113 63 OFFCURVE",
"92 117 OFFCURVE",
"104 188 CURVE",
"19 188 LINE",
"-3 63 OFFCURVE",
"61 -12 OFFCURVE",
"187 -12 CURVE SMOOTH"
);
}
);
width = 508;
},
{
anchors = (
{
name = bottom;
position = "{208, 0}";
},
{
name = top;
position = "{331, 700}";
}
);
layerId = "2D111E5E-352D-4630-9162-BCEF010D26CF";
paths = (
{
closed = 1;
nodes = (
"305 -12 OFFCURVE",
"387 57 OFFCURVE",
"409 180 CURVE SMOOTH",
"501 700 LINE",
"431 700 LINE",
"339 180 LINE SMOOTH",
"326 107 OFFCURVE",
"287 51 OFFCURVE",
"196 51 CURVE SMOOTH",
"103 51 OFFCURVE",
"83 109 OFFCURVE",
"94 181 CURVE",
"23 181 LINE",
"2 61 OFFCURVE",
"62 -12 OFFCURVE",
"185 -12 CURVE SMOOTH"
);
}
);
width = 508;
},
{
anchors = (
{
name = bottom;
position = "{176, 0}";
},
{
name = top;
position = "{299, 700}";
}
);
layerId = "EB62C368-BB48-47C0-A466-DA94204A0DE4";
paths = (
{
closed = 1;
nodes = (
"264 -12 OFFCURVE",
"328 46 OFFCURVE",
"351 174 CURVE SMOOTH",
"444 700 LINE",
"424 700 LINE",
"332 180 LINE SMOOTH",
"314 78 OFFCURVE",
"268 8 OFFCURVE",
"157 8 CURVE SMOOTH",
"34 8 OFFCURVE",
"14 79 OFFCURVE",
"25 156 CURVE",
"5 156 LINE",
"-13 54 OFFCURVE",
"42 -12 OFFCURVE",
"153 -12 CURVE SMOOTH"
);
}
);
width = 444;
},
{
anchors = (
{
name = bottom;
position = "{242, 0}";
},
{
name = top;
position = "{366, 700}";
}
);
layerId = "66953C5E-8AEB-4AF5-804F-512B0A9BA4E6";
paths = (
{
closed = 1;
nodes = (
"364 -12 OFFCURVE",
"470 68 OFFCURVE",
"497 219 CURVE SMOOTH",
"582 700 LINE",
"411 700 LINE",
"326 219 LINE SMOOTH",
"317 167 OFFCURVE",
"288 141 OFFCURVE",
"247 141 CURVE SMOOTH",
"203 141 OFFCURVE",
"182 170 OFFCURVE",
"193 230 CURVE",
"23 230 LINE",
"-5 72 OFFCURVE",
"81 -12 OFFCURVE",
"225 -12 CURVE SMOOTH"
);
}
);
width = 564;
},
{
anchors = (
{
name = bottom;
position = "{194, 0}";
},
{
name = top;
position = "{318, 700}";
}
);
layerId = "90D50F69-F6F7-4633-9462-ED0440D3064F";
paths = (
{
closed = 1;
nodes = (
"261 -12 OFFCURVE",
"332 46 OFFCURVE",
"352 162 CURVE SMOOTH",
"447 700 LINE",
"427 700 LINE",
"332 162 LINE SMOOTH",
"317 79 OFFCURVE",
"265 8 OFFCURVE",
"151 8 CURVE SMOOTH",
"33 8 OFFCURVE",
"17 79 OFFCURVE",
"28 156 CURVE",
"8 156 LINE",
"-10 54 OFFCURVE",
"38 -12 OFFCURVE",
"149 -12 CURVE SMOOTH"
);
}
);
width = 444;
},
{
anchors = (
{
name = bottom;
position = "{189, 0}";
},
{
name = top;
position = "{313, 700}";
}
);
layerId = "973C19EE-3504-4BDF-BF6D-4817D3AD4E7D";
paths = (
{
closed = 1;
nodes = (
"277 -12 OFFCURVE",
"361 59 OFFCURVE",
"379 165 CURVE SMOOTH",
"472 700 LINE",
"402 700 LINE",
"309 165 LINE SMOOTH",
"299 107 OFFCURVE",
"259 50 OFFCURVE",
"178 50 CURVE SMOOTH",
"95 50 OFFCURVE",
"74 109 OFFCURVE",
"86 179 CURVE",
"15 179 LINE",
"-6 61 OFFCURVE",
"54 -12 OFFCURVE",
"167 -12 CURVE SMOOTH"
);
}
);
width = 470;
},
{
anchors = (
{
name = bottom;
position = "{196, 0}";
},
{
name = top;
position = "{320, 700}";
}
);
layerId = "8231B9DE-059C-4C71-A8C4-ABDA89A7D05C";
paths = (
{
closed = 1;
nodes = (
"289 -12 OFFCURVE",
"376 60 OFFCURVE",
"396 172 CURVE SMOOTH",
"488 700 LINE",
"404 700 LINE",
"312 172 LINE SMOOTH",
"302 115 OFFCURVE",
"263 63 OFFCURVE",
"188 63 CURVE SMOOTH",
"110 63 OFFCURVE",
"89 117 OFFCURVE",
"101 186 CURVE",
"16 186 LINE",
"-6 63 OFFCURVE",
"58 -12 OFFCURVE",
"175 -12 CURVE SMOOTH"
);
}
);
width = 483;
}
);
rightMetricsKey = H;
unicode = 004A;
userData = {
com.schriftgestaltung.Glyphs.ColorIndex = 4;
com.typesupply.AccentFactory.yCoordinates = {
bottom = {
name = origin;
type = glyphMetric;
};
top = {
name = capHeight;
type = fontInfo;
};
};
};
},
{
glyphname = K;
lastChange = "2023-05-19 14:03:36 +0000";
layers = (
{
anchors = (
{
name = bottom;
position = "{289, 0}";
},
{
name = top;
position = "{413, 700}";
}
);
layerId = "A390C1A2-E540-434D-BB9E-4BCEE875BA63";
paths = (
{
closed = 1;
nodes = (
"172 0 LINE",
"228 314 LINE",
"228 314 LINE",
"408 0 LINE",
"617 0 LINE",
"393 394 LINE",
"731 700 LINE",
"522 700 LINE",
"252 451 LINE",
"296 700 LINE",
"125 700 LINE",
"1 0 LINE"
);
}
);
width = 666;
},
{
anchors = (
{
name = bottom;
position = "{224, 0}";
},
{
name = top;
position = "{348, 700}";
}
);
layerId = "F5F01D5B-AEA3-4AC3-B3D8-92550D1582D7";
paths = (
{
closed = 1;
nodes = (
"85 0 LINE",
"142 324 LINE",
"142 324 LINE",
"380 0 LINE",
"487 0 LINE",
"221 359 LINE",
"607 700 LINE",
"501 700 LINE",
"154 390 LINE",
"209 700 LINE",
"125 700 LINE",
"1 0 LINE"
);
}
);
width = 536;
},
{
anchors = (
{
name = bottom;
position = "{214, 0}";
},
{
name = top;
position = "{338, 700}";
}
);
layerId = "3B8883BF-F483-4B97-AC7C-CABF8B821093";
paths = (
{
closed = 1;
nodes = (
"71 0 LINE",
"131 339 LINE",
"131 339 LINE",
"377 0 LINE",
"467 0 LINE",
"201 355 LINE",
"583 700 LINE",
"498 700 LINE",
"137 372 LINE",
"195 700 LINE",
"125 700 LINE",
"1 0 LINE"
);
}
);
width = 516;
},
{
anchors = (
{
name = bottom;
position = "{177, 0}";
},
{
name = top;
position = "{301, 700}";
}
);
layerId = "5D382461-81E1-4DF2-8677-8A6F02AD5363";
paths = (
{
closed = 1;
nodes = (
"21 0 LINE",
"81 339 LINE",
"81 339 LINE",
"361 0 LINE",
"388 0 LINE",
"100 348 LINE",
"512 700 LINE",
"481 700 LINE",
"85 362 LINE",
"145 700 LINE",
"125 700 LINE",
"1 0 LINE"
);
}
);
width = 437;
},
{
anchors = (
{
name = bottom;
position = "{311, 0}";
},
{
name = top;
position = "{435, 700}";
}
);
layerId = "1615C59E-33DE-4B88-B2CC-A48C7D56A125";
paths = (
{
closed = 1;
nodes = (
"197 0 LINE",
"238 230 LINE",
"306 292 LINE",
"433 0 LINE",
"642 0 LINE",
"451 424 LINE",
"756 700 LINE",
"547 700 LINE",
"277 451 LINE",
"321 700 LINE",
"150 700 LINE",
"26 0 LINE"
);
}
);
width = 717;
},
{
anchors = (
{
name = bottom;
position = "{265, 0}";
},
{
name = top;
position = "{388, 700}";
}
);
layerId = "A6F5E7A4-47EF-4F55-BF18-0ACACB57A720";
paths = (
{
closed = 1;
nodes = (
"115 0 LINE",
"163 273 LINE",
"263 362 LINE",
"425 0 LINE",
"518 0 LINE",
"329 421 LINE",
"637 700 LINE",
"531 700 LINE",
"183 383 LINE",
"239 700 LINE",
"155 700 LINE",
"31 0 LINE"
);
}
);
width = 590;
},
{
anchors = (
{
name = bottom;
position = "{244, 0}";
},
{
name = top;
position = "{367, 700}";
}
);
layerId = "2D111E5E-352D-4630-9162-BCEF010D26CF";
paths = (
{
closed = 1;
nodes = (
"108 0 LINE",
"158 280 LINE",
"254 366 LINE",
"418 0 LINE",
"503 0 LINE",
"314 421 LINE",
"624 700 LINE",
"534 700 LINE",
"174 372 LINE",
"232 700 LINE",
"162 700 LINE",
"38 0 LINE"
);
}
);
width = 579;
},
{
anchors = (
{
name = bottom;
position = "{199, 0}";
},
{
name = top;
position = "{322, 700}";
}
);
layerId = "EB62C368-BB48-47C0-A466-DA94204A0DE4";
paths = (
{
closed = 1;
nodes = (
"52 0 LINE",
"106 305 LINE",
"217 403 LINE",
"401 0 LINE",
"422 0 LINE",
"233 419 LINE",
"547 700 LINE",
"516 700 LINE",
"111 333 LINE",
"176 700 LINE",
"156 700 LINE",
"32 0 LINE"
);
}
);
width = 490;
},
{
anchors = (
{
name = bottom;
position = "{303, 0}";
},
{
name = top;
position = "{428, 700}";
}
);
layerId = "66953C5E-8AEB-4AF5-804F-512B0A9BA4E6";
paths = (
{
closed = 1;
nodes = (
"190 0 LINE",
"231 230 LINE",
"301 295 LINE",
"430 0 LINE",
"635 0 LINE",
"444 424 LINE",
"748 700 LINE",
"539 700 LINE",
"270 451 LINE",
"313 700 LINE",
"142 700 LINE",
"19 0 LINE"
);
}
);
width = 698;
},
{
anchors = (
{
name = bottom;
position = "{203, 0}";
},
{
name = top;
position = "{327, 700}";
}
);
layerId = "90D50F69-F6F7-4633-9462-ED0440D3064F";
paths = (
{
closed = 1;
nodes = (
"54 0 LINE",
"114 339 LINE",
"114 339 LINE",
"394 0 LINE",
"422 0 LINE",
"132 350 LINE",
"545 700 LINE",
"517 700 LINE",
"118 362 LINE",
"178 700 LINE",
"158 700 LINE",
"34 0 LINE"
);
}
);
width = 486;
},
{
anchors = (
{
name = bottom;
position = "{241, 0}";
},
{
name = top;
position = "{363, 700}";
}
);
layerId = "973C19EE-3504-4BDF-BF6D-4817D3AD4E7D";
paths = (
{
closed = 1;
nodes = (
"103 0 LINE",
"152 280 LINE",
"252 370 LINE",
"418 0 LINE",
"498 0 LINE",
"308 420 LINE",
"618 700 LINE",
"529 700 LINE",
"169 372 LINE",
"226 700 LINE",
"156 700 LINE",
"33 0 LINE"
);
}
);
width = 565;
},
{
anchors = (
{
name = bottom;
position = "{250, 0}";
},
{
name = top;
position = "{372.01, 700}";
}
);
layerId = "8231B9DE-059C-4C71-A8C4-ABDA89A7D05C";
paths = (
{
closed = 1;
nodes = (
"115 0 LINE",
"163 273 LINE",
"259 360 LINE",
"420 0 LINE",
"517 0 LINE",
"327 421 LINE",
"636 700 LINE",
"530 700 LINE",
"183 383 LINE",
"238 700 LINE",
"154 700 LINE",
"31 0 LINE"
);
}
);
width = 583;
}
);
leftKerningGroup = H;
leftMetricsKey = H;
rightKerningGroup = K;
unicode = 004B;
userData = {
com.schriftgestaltung.Glyphs.ColorIndex = 4;
com.typesupply.AccentFactory.yCoordinates = {
bottom = {
name = origin;
type = glyphMetric;
};
top = {
name = capHeight;
type = fontInfo;
};
};
};
},
{
glyphname = L;
lastChange = "2023-05-19 14:03:36 +0000";
layers = (
{
anchors = (
{
name = bottom;
position = "{219, 0}";
},
{
name = center;
position = "{281, 350}";
},
{
name = top;
position = "{212, 700}";
},
{
name = topright;
position = "{301, 526}";
}
);
guideLines = (
{
position = "{201, 350}";
}
);
layerId = "A390C1A2-E540-434D-BB9E-4BCEE875BA63";
paths = (
{
closed = 1;
nodes = (
"466 0 LINE",
"490 132 LINE",
"196 132 LINE",
"296 700 LINE",
"125 700 LINE",
"1 0 LINE"
);
}
);
width = 525;
},
{
anchors = (
{
name = bottom;
position = "{191, 0}";
},
{
name = center;
position = "{253, 350}";
},
{
name = top;
position = "{169, 700}";
},
{
name = topright;
position = "{214, 526}";
}
);
layerId = "F5F01D5B-AEA3-4AC3-B3D8-92550D1582D7";
paths = (
{
closed = 1;
nodes = (
"411 0 LINE",
"423 67 LINE",
"97 67 LINE",
"209 700 LINE",
"125 700 LINE",
"1 0 LINE"
);
}
);
width = 470;
},
{
anchors = (
{
name = bottom;
position = "{187, 0}";
},
{
name = center;
position = "{239, 350}";
},
{
name = top;
position = "{158, 700}";
},
{
name = topright;
position = "{200, 526}";
}
);
layerId = "3B8883BF-F483-4B97-AC7C-CABF8B821093";
paths = (
{
closed = 1;
nodes = (
"402 0 LINE",
"412 57 LINE",
"81 57 LINE",
"195 700 LINE",
"125 700 LINE",
"1 0 LINE"
);
}
);
width = 461;
},
{
anchors = (
{
name = bottom;
position = "{189, 0}";
},
{
name = center;
position = "{195, 350}";
},
{
name = top;
position = "{135, 700}";
},
{
name = topright;
position = "{150, 526}";
}
);
layerId = "5D382461-81E1-4DF2-8677-8A6F02AD5363";
paths = (
{
closed = 1;
nodes = (
"370 0 LINE",
"373 18 LINE",
"24 18 LINE",
"145 700 LINE",
"125 700 LINE",
"1 0 LINE"
);
}
);
width = 429;
},
{
anchors = (
{
name = bottom;
position = "{281, 0}";
},
{
name = center;
position = "{315, 350}";
},
{
name = top;
position = "{237, 700}";
},
{
name = topright;
position = "{326, 526}";
}
);
layerId = "1615C59E-33DE-4B88-B2CC-A48C7D56A125";
paths = (
{
closed = 1;
nodes = (
"491 0 LINE",
"515 132 LINE",
"221 132 LINE",
"321 700 LINE",
"150 700 LINE",
"26 0 LINE"
);
}
);
width = 594;
},
{
anchors = (
{
name = bottom;
position = "{236, 0}";
},
{
name = center;
position = "{246, 350}";
},
{
name = top;
position = "{195, 700}";
},
{
name = topright;
position = "{244, 526}";
}
);
layerId = "A6F5E7A4-47EF-4F55-BF18-0ACACB57A720";
paths = (
{
closed = 1;
nodes = (
"441 0 LINE",
"453 67 LINE",
"127 67 LINE",
"239 700 LINE",
"155 700 LINE",
"31 0 LINE"
);
}
);
width = 532;
},
{
anchors = (
{
name = bottom;
position = "{219, 0}";
},
{
name = center;
position = "{280, 350}";
},
{
name = top;
position = "{196, 700}";
},
{
name = topright;
position = "{237, 526}";
}
);
layerId = "2D111E5E-352D-4630-9162-BCEF010D26CF";
paths = (
{
closed = 1;
nodes = (
"439 0 LINE",
"449 56 LINE",
"118 56 LINE",
"232 700 LINE",
"162 700 LINE",
"38 0 LINE"
);
}
);
width = 530;
},
{
anchors = (
{
name = bottom;
position = "{194, 0}";
},
{
name = center;
position = "{255, 350}";
},
{
name = top;
position = "{166, 700}";
},
{
name = topright;
position = "{181, 526}";
}
);
layerId = "EB62C368-BB48-47C0-A466-DA94204A0DE4";
paths = (
{
closed = 1;
nodes = (
"401 0 LINE",
"404 18 LINE",
"55 18 LINE",
"176 700 LINE",
"156 700 LINE",
"32 0 LINE"
);
}
);
width = 480;
},
{
anchors = (
{
name = bottom;
position = "{245, 0}";
},
{
name = center;
position = "{307, 350}";
},
{
name = top;
position = "{229, 700}";
},
{
name = topright;
position = "{318, 526}";
}
);
layerId = "66953C5E-8AEB-4AF5-804F-512B0A9BA4E6";
paths = (
{
closed = 1;
nodes = (
"484 0 LINE",
"507 132 LINE",
"213 132 LINE",
"313 700 LINE",
"142 700 LINE",
"19 0 LINE"
);
}
);
width = 578;
},
{
anchors = (
{
name = bottom;
position = "{201, 0}";
},
{
name = center;
position = "{263, 350}";
},
{
name = top;
position = "{170, 700}";
},
{
name = topright;
position = "{183, 526}";
}
);
layerId = "90D50F69-F6F7-4633-9462-ED0440D3064F";
paths = (
{
closed = 1;
nodes = (
"403 0 LINE",
"406 18 LINE",
"57 18 LINE",
"178 700 LINE",
"158 700 LINE",
"34 0 LINE"
);
}
);
width = 480;
},
{
anchors = (
{
name = bottom;
position = "{215, 0}";
},
{
name = center;
position = "{277, 350}";
},
{
name = top;
position = "{194, 700}";
},
{
name = topright;
position = "{231, 526}";
}
);
layerId = "973C19EE-3504-4BDF-BF6D-4817D3AD4E7D";
paths = (
{
closed = 1;
nodes = (
"434 0 LINE",
"444 57 LINE",
"113 57 LINE",
"226 700 LINE",
"156 700 LINE",
"33 0 LINE"
);
}
);
width = 518;
},
{
anchors = (
{
name = bottom;
position = "{219, 0}";
},
{
name = center;
position = "{281, 350}";
},
{
name = top;
position = "{195, 700}";
},
{
name = topright;
position = "{243, 526}";
}
);
layerId = "8231B9DE-059C-4C71-A8C4-ABDA89A7D05C";
paths = (
{
closed = 1;
nodes = (
"441 0 LINE",
"453 67 LINE",
"127 67 LINE",
"238 700 LINE",
"154 700 LINE",
"31 0 LINE"
);
}
);
width = 526;
}
);
leftKerningGroup = H;
leftMetricsKey = H;
rightKerningGroup = L;
unicode = 004C;
userData = {
com.schriftgestaltung.Glyphs.ColorIndex = 4;
com.typesupply.AccentFactory.yCoordinates = {
bottom = {
name = origin;
type = glyphMetric;
};
top = {
name = capHeight;
type = fontInfo;
};
};
};
},
{
glyphname = Lslash;
lastChange = "2023-05-19 14:03:36 +0000";
layers = (
{
components = (
{
alignment = -1;
name = L;
transform = "{1, 0, 0, 1, 49, 0}";
}
);
layerId = "A390C1A2-E540-434D-BB9E-4BCEE875BA63";
paths = (
{
closed = 1;
nodes = (
"361 348 LINE",
"386 492 LINE",
"50 397 LINE",
"25 253 LINE"
);
}
);
width = 574;
},
{
components = (
{
alignment = -1;
name = L;
transform = "{1, 0, 0, 1, 44, 0}";
}
);
layerId = "F5F01D5B-AEA3-4AC3-B3D8-92550D1582D7";
paths = (
{
closed = 1;
nodes = (
"328 392 LINE",
"339 459 LINE",
"34 351 LINE",
"23 284 LINE"
);
}
);
width = 514;
},
{
components = (
{
alignment = -1;
name = L;
transform = "{1, 0, 0, 1, 43, 0}";
}
);
layerId = "3B8883BF-F483-4B97-AC7C-CABF8B821093";
paths = (
{
closed = 1;
nodes = (
"323 399 LINE",
"333 454 LINE",
"32 344 LINE",
"22 289 LINE"
);
}
);
width = 504;
},
{
components = (
{
alignment = -1;
name = L;
transform = "{1, 0, 0, 1, 40, 0}";
}
);
layerId = "5D382461-81E1-4DF2-8677-8A6F02AD5363";
paths = (
{
closed = 1;
nodes = (
"303 415 LINE",
"306 435 LINE",
"23 317 LINE",
"20 298 LINE"
);
}
);
width = 469;
},
{
components = (
{
alignment = -1;
name = L;
transform = "{1, 0, 0, 1, 47, 0}";
}
);
layerId = "1615C59E-33DE-4B88-B2CC-A48C7D56A125";
paths = (
{
closed = 1;
nodes = (
"377 348 LINE",
"402 492 LINE",
"66 397 LINE",
"41 253 LINE"
);
}
);
width = 641;
},
{
components = (
{
alignment = -1;
name = L;
transform = "{1, 0, 0, 1, 42, 0}";
}
);
layerId = "A6F5E7A4-47EF-4F55-BF18-0ACACB57A720";
paths = (
{
closed = 1;
nodes = (
"326 392 LINE",
"337 459 LINE",
"32 351 LINE",
"21 284 LINE"
);
}
);
width = 574;
},
{
components = (
{
alignment = -1;
name = L;
transform = "{1, 0, 0, 1, 40, 0}";
}
);
layerId = "2D111E5E-352D-4630-9162-BCEF010D26CF";
paths = (
{
closed = 1;
nodes = (
"320 399 LINE",
"330 454 LINE",
"29 344 LINE",
"19 289 LINE"
);
}
);
width = 570;
},
{
components = (
{
alignment = -1;
name = L;
transform = "{1, 0, 0, 1, 38, 0}";
}
);
layerId = "EB62C368-BB48-47C0-A466-DA94204A0DE4";
paths = (
{
closed = 1;
nodes = (
"301 415 LINE",
"304 435 LINE",
"21 317 LINE",
"18 298 LINE"
);
}
);
width = 518;
},
{
components = (
{
name = L;
transform = "{1, 0, 0, 1, 23, 0}";
}
);
layerId = "66953C5E-8AEB-4AF5-804F-512B0A9BA4E6";
paths = (
{
closed = 1;
nodes = (
"356 335 LINE",
"385 500 LINE",
"48 404 LINE",
"19 241 LINE"
);
}
);
width = 601;
},
{
components = (
{
alignment = -1;
name = L;
transform = "{1, 0, 0, 1, 40, 0}";
}
);
layerId = "90D50F69-F6F7-4633-9462-ED0440D3064F";
paths = (
{
closed = 1;
nodes = (
"303 415 LINE",
"306 435 LINE",
"23 317 LINE",
"20 298 LINE"
);
}
);
width = 520;
},
{
components = (
{
name = L;
transform = "{1, 0, 0, 1, 26, 0}";
}
);
layerId = "973C19EE-3504-4BDF-BF6D-4817D3AD4E7D";
paths = (
{
closed = 1;
nodes = (
"327 396 LINE",
"339 462 LINE",
"39 352 LINE",
"27 286 LINE"
);
}
);
width = 544;
},
{
components = (
{
alignment = -1;
name = L;
transform = "{1, 0, 0, 1, 26, 0}";
}
);
layerId = "8231B9DE-059C-4C71-A8C4-ABDA89A7D05C";
paths = (
{
closed = 1;
nodes = (
"331 388 LINE",
"345 467 LINE",
"40 359 LINE",
"26 280 LINE"
);
}
);
width = 552;
}
);
rightKerningGroup = L;
rightMetricsKey = L;
unicode = 0141;
userData = {
com.schriftgestaltung.Glyphs.ColorIndex = 4;
};
},
{
glyphname = M;
lastChange = "2023-05-19 14:03:36 +0000";
layers = (
{
anchors = (
{
name = bottom;
position = "{399, 0}";
},
{
name = top;
position = "{523, 700}";
}
);
guideLines = (
{
angle = 180;
position = "{236, 408}";
}
);
layerId = "A390C1A2-E540-434D-BB9E-4BCEE875BA63";
paths = (
{
closed = 1;
nodes = (
"172 0 LINE",
"248 428 LINE",
"252 428 LINE",
"338 100 LINE",
"491 100 LINE",
"697 428 LINE",
"701 428 LINE",
"625 0 LINE",
"796 0 LINE",
"920 700 LINE",
"705 700 LINE",
"453 283 LINE",
"449 283 LINE",
"341 700 LINE",
"125 700 LINE",
"1 0 LINE"
);
}
);
width = 885;
},
{
anchors = (
{
name = bottom;
position = "{351, 0}";
},
{
name = top;
position = "{475, 700}";
}
);
guideLines = (
{
angle = 180;
position = "{151, 573}";
}
);
layerId = "F5F01D5B-AEA3-4AC3-B3D8-92550D1582D7";
paths = (
{
closed = 1;
nodes = (
"85 0 LINE",
"186 573 LINE",
"190 573 LINE",
"310 100 LINE",
"428 100 LINE",
"713 573 LINE",
"717 573 LINE",
"616 0 LINE",
"700 0 LINE",
"824 700 LINE",
"700 700 LINE",
"383 170 LINE",
"379 170 LINE",
"249 700 LINE",
"125 700 LINE",
"1 0 LINE"
);
}
);
width = 789;
},
{
anchors = (
{
name = bottom;
position = "{343, 0}";
},
{
name = top;
position = "{467, 700}";
}
);
layerId = "3B8883BF-F483-4B97-AC7C-CABF8B821093";
paths = (
{
closed = 1;
nodes = (
"71 0 LINE",
"181 620 LINE",
"185 620 LINE",
"311 100 LINE",
"401 100 LINE",
"720 620 LINE",
"724 620 LINE",
"614 0 LINE",
"684 0 LINE",
"808 700 LINE",
"692 700 LINE",
"371 164 LINE",
"367 164 LINE",
"236 700 LINE",
"125 700 LINE",
"1 0 LINE"
);
}
);
width = 773;
},
{
anchors = (
{
name = bottom;
position = "{315, 0}";
},
{
name = top;
position = "{439, 700}";
}
);
guideLines = (
{
angle = 180;
position = "{87, 686}";
}
);
layerId = "5D382461-81E1-4DF2-8677-8A6F02AD5363";
paths = (
{
closed = 1;
nodes = (
"21 0 LINE",
"136 653 LINE",
"140 653 LINE",
"321 100 LINE",
"345 100 LINE",
"720 652 LINE",
"724 652 LINE",
"609 0 LINE",
"629 0 LINE",
"753 700 LINE",
"728 700 LINE",
"338 124 LINE",
"334 124 LINE",
"147 700 LINE",
"125 700 LINE",
"1 0 LINE"
);
}
);
width = 718;
},
{
anchors = (
{
name = bottom;
position = "{364, 0}";
},
{
name = top;
position = "{611, 700}";
}
);
layerId = "1615C59E-33DE-4B88-B2CC-A48C7D56A125";
paths = (
{
closed = 1;
nodes = (
"197 0 LINE",
"270 410 LINE",
"270 410 LINE",
"358 92 LINE",
"496 92 LINE",
"695 410 LINE",
"695 410 LINE",
"622 0 LINE",
"793 0 LINE",
"917 700 LINE",
"712 700 LINE",
"465 299 LINE",
"465 299 LINE",
"356 700 LINE",
"150 700 LINE",
"26 0 LINE"
);
}
);
width = 912;
},
{
anchors = (
{
name = bottom;
position = "{383, 0}";
},
{
name = top;
position = "{506, 700}";
}
);
layerId = "A6F5E7A4-47EF-4F55-BF18-0ACACB57A720";
paths = (
{
closed = 1;
nodes = (
"115 0 LINE",
"211 545 LINE",
"211 545 LINE",
"352 92 LINE",
"415 92 LINE",
"715 549 LINE",
"715 549 LINE",
"618 0 LINE",
"702 0 LINE",
"826 700 LINE",
"727 700 LINE",
"404 207 LINE",
"404 207 LINE",
"253 700 LINE",
"155 700 LINE",
"31 0 LINE"
);
}
);
width = 826;
},
{
anchors = (
{
name = bottom;
position = "{366, 0}";
},
{
name = top;
position = "{489, 700}";
}
);
layerId = "2D111E5E-352D-4630-9162-BCEF010D26CF";
paths = (
{
closed = 1;
nodes = (
"108 0 LINE",
"209 572 LINE",
"209 572 LINE",
"355 92 LINE",
"410 92 LINE",
"724 574 LINE",
"724 574 LINE",
"623 0 LINE",
"693 0 LINE",
"817 700 LINE",
"735 700 LINE",
"398 185 LINE",
"398 185 LINE",
"243 700 LINE",
"162 700 LINE",
"38 0 LINE"
);
}
);
width = 824;
},
{
anchors = (
{
name = bottom;
position = "{332, 0}";
},
{
name = top;
position = "{455, 700}";
}
);
layerId = "EB62C368-BB48-47C0-A466-DA94204A0DE4";
paths = (
{
closed = 1;
nodes = (
"52 0 LINE",
"168 656 LINE",
"168 656 LINE",
"336 92 LINE",
"360 92 LINE",
"729 660 LINE",
"729 660 LINE",
"612 0 LINE",
"632 0 LINE",
"756 700 LINE",
"733 700 LINE",
"351 113 LINE",
"351 113 LINE",
"177 700 LINE",
"156 700 LINE",
"32 0 LINE"
);
}
);
width = 756;
},
{
anchors = (
{
name = bottom;
position = "{416, 0}";
},
{
name = top;
position = "{540, 700}";
}
);
guideLines = (
{
angle = 79.9827;
position = "{832, 351}";
},
{
angle = 79.9827;
position = "{-25, 0}";
}
);
layerId = "66953C5E-8AEB-4AF5-804F-512B0A9BA4E6";
paths = (
{
closed = 1;
nodes = (
"190 0 LINE",
"263 417 LINE",
"263 417 LINE",
"366 100 LINE",
"504 100 LINE",
"716 416 LINE",
"716 416 LINE",
"643 0 LINE",
"814 0 LINE",
"937 700 LINE",
"732 700 LINE",
"472 301 LINE",
"472 301 LINE",
"348 700 LINE",
"142 700 LINE",
"19 0 LINE"
);
}
);
width = 920;
},
{
anchors = (
{
name = bottom;
position = "{366, 0}";
},
{
name = top;
position = "{490, 700}";
}
);
guideLines = (
{
angle = 180;
position = "{120, 686}";
}
);
layerId = "90D50F69-F6F7-4633-9462-ED0440D3064F";
paths = (
{
closed = 1;
nodes = (
"54 0 LINE",
"171 660 LINE",
"171 660 LINE",
"354 100 LINE",
"378 100 LINE",
"759 660 LINE",
"759 660 LINE",
"642 0 LINE",
"662 0 LINE",
"786 700 LINE",
"762 700 LINE",
"370 120 LINE",
"370 120 LINE",
"181 700 LINE",
"158 700 LINE",
"34 0 LINE"
);
}
);
width = 783;
},
{
anchors = (
{
name = bottom;
position = "{374, 0}";
},
{
name = top;
position = "{498, 700}";
}
);
guideLines = (
{
angle = 79.9731;
position = "{732, 345}";
},
{
angle = 79.9731;
position = "{26, 210}";
}
);
layerId = "973C19EE-3504-4BDF-BF6D-4817D3AD4E7D";
paths = (
{
closed = 1;
nodes = (
"103 0 LINE",
"203 569 LINE",
"203 569 LINE",
"367 100 LINE",
"418 100 LINE",
"746 571 LINE",
"746 571 LINE",
"646 0 LINE",
"716 0 LINE",
"839 700 LINE",
"758 700 LINE",
"409 198 LINE",
"409 198 LINE",
"236 700 LINE",
"156 700 LINE",
"33 0 LINE"
);
}
);
width = 836;
},
{
anchors = (
{
name = bottom;
position = "{380, 0}";
},
{
name = top;
position = "{504, 700}";
}
);
layerId = "8231B9DE-059C-4C71-A8C4-ABDA89A7D05C";
paths = (
{
closed = 1;
nodes = (
"115 0 LINE",
"212 549 LINE",
"212 549 LINE",
"367 100 LINE",
"430 100 LINE",
"743 550 LINE",
"743 550 LINE",
"646 0 LINE",
"730 0 LINE",
"853 700 LINE",
"754 700 LINE",
"418 212 LINE",
"418 212 LINE",
"252 700 LINE",
"154 700 LINE",
"31 0 LINE"
);
}
);
width = 848;
}
);
leftKerningGroup = H;
leftMetricsKey = H;
rightKerningGroup = H;
rightMetricsKey = H;
unicode = 004D;
userData = {
com.schriftgestaltung.Glyphs.ColorIndex = 4;
com.typesupply.AccentFactory.yCoordinates = {
bottom = {
name = origin;
type = glyphMetric;
};
top = {
name = capHeight;
type = fontInfo;
};
};
};
},
{
glyphname = N;
lastChange = "2023-05-19 14:03:36 +0000";
layers = (
{
anchors = (
{
name = bottom;
position = "{315, 0}";
},
{
name = top;
position = "{439, 700}";
}
);
layerId = "A390C1A2-E540-434D-BB9E-4BCEE875BA63";
paths = (
{
closed = 1;
nodes = (
"172 0 LINE",
"253 456 LINE",
"257 456 LINE",
"428 0 LINE",
"629 0 LINE",
"753 700 LINE",
"582 700 LINE",
"501 243 LINE",
"497 243 LINE",
"326 700 LINE",
"125 700 LINE",
"1 0 LINE"
);
}
);
width = 718;
},
{
anchors = (
{
name = bottom;
position = "{272, 0}";
},
{
name = top;
position = "{396, 700}";
}
);
guideLines = (
{
position = "{649, 121}";
}
);
layerId = "F5F01D5B-AEA3-4AC3-B3D8-92550D1582D7";
paths = (
{
closed = 1;
nodes = (
"85 0 LINE",
"192 606 LINE",
"196 606 LINE",
"422 0 LINE",
"542 0 LINE",
"666 700 LINE",
"582 700 LINE",
"475 94 LINE",
"471 94 LINE",
"245 700 LINE",
"125 700 LINE",
"1 0 LINE"
);
}
);
width = 631;
},
{
anchors = (
{
name = bottom;
position = "{265, 0}";
},
{
name = top;
position = "{389, 700}";
}
);
layerId = "3B8883BF-F483-4B97-AC7C-CABF8B821093";
paths = (
{
closed = 1;
nodes = (
"71 0 LINE",
"183 632 LINE",
"187 632 LINE",
"422 0 LINE",
"528 0 LINE",
"652 700 LINE",
"582 700 LINE",
"471 73 LINE",
"467 73 LINE",
"235 700 LINE",
"125 700 LINE",
"1 0 LINE"
);
}
);
width = 617;
},
{
anchors = (
{
name = bottom;
position = "{240, 0}";
},
{
name = top;
position = "{364, 700}";
}
);
layerId = "5D382461-81E1-4DF2-8677-8A6F02AD5363";
paths = (
{
closed = 1;
nodes = (
"21 0 LINE",
"139 667 LINE",
"143 667 LINE",
"454 0 LINE",
"478 0 LINE",
"602 700 LINE",
"582 700 LINE",
"464 35 LINE",
"460 35 LINE",
"150 700 LINE",
"125 700 LINE",
"1 0 LINE"
);
}
);
width = 567;
},
{
anchors = (
{
name = bottom;
position = "{340, 0}";
},
{
name = top;
position = "{464, 700}";
}
);
layerId = "1615C59E-33DE-4B88-B2CC-A48C7D56A125";
paths = (
{
closed = 1;
nodes = (
"197 0 LINE",
"273 427 LINE",
"273 427 LINE",
"483 0 LINE",
"654 0 LINE",
"778 700 LINE",
"607 700 LINE",
"531 271 LINE",
"531 271 LINE",
"321 700 LINE",
"150 700 LINE",
"26 0 LINE"
);
}
);
width = 773;
},
{
anchors = (
{
name = bottom;
position = "{318, 0}";
},
{
name = top;
position = "{441, 700}";
}
);
layerId = "A6F5E7A4-47EF-4F55-BF18-0ACACB57A720";
paths = (
{
closed = 1;
nodes = (
"115 0 LINE",
"214 562 LINE",
"214 562 LINE",
"488 0 LINE",
"572 0 LINE",
"696 700 LINE",
"612 700 LINE",
"513 138 LINE",
"513 138 LINE",
"239 700 LINE",
"155 700 LINE",
"31 0 LINE"
);
}
);
width = 696;
},
{
anchors = (
{
name = bottom;
position = "{302, 0}";
},
{
name = top;
position = "{425, 700}";
}
);
layerId = "2D111E5E-352D-4630-9162-BCEF010D26CF";
paths = (
{
closed = 1;
nodes = (
"108 0 LINE",
"212 586 LINE",
"212 586 LINE",
"494 0 LINE",
"565 0 LINE",
"689 700 LINE",
"619 700 LINE",
"515 114 LINE",
"515 114 LINE",
"233 700 LINE",
"162 700 LINE",
"38 0 LINE"
);
}
);
width = 696;
},
{
anchors = (
{
name = bottom;
position = "{271, 0}";
},
{
name = top;
position = "{394, 700}";
}
);
layerId = "EB62C368-BB48-47C0-A466-DA94204A0DE4";
paths = (
{
closed = 1;
nodes = (
"52 0 LINE",
"171 673 LINE",
"171 673 LINE",
"486 0 LINE",
"509 0 LINE",
"633 700 LINE",
"613 700 LINE",
"495 30 LINE",
"495 30 LINE",
"181 700 LINE",
"156 700 LINE",
"32 0 LINE"
);
}
);
width = 633;
},
{
anchors = (
{
name = bottom;
position = "{332, 0}";
},
{
name = top;
position = "{456, 700}";
}
);
layerId = "66953C5E-8AEB-4AF5-804F-512B0A9BA4E6";
paths = (
{
closed = 1;
nodes = (
"189 0 LINE",
"266 433 LINE",
"266 433 LINE",
"475 0 LINE",
"646 0 LINE",
"770 700 LINE",
"599 700 LINE",
"522 267 LINE",
"522 267 LINE",
"315 700 LINE",
"142 700 LINE",
"18 0 LINE"
);
}
);
width = 752;
},
{
anchors = (
{
name = bottom;
position = "{273, 0}";
},
{
name = top;
position = "{397, 700}";
}
);
layerId = "90D50F69-F6F7-4633-9462-ED0440D3064F";
paths = (
{
closed = 1;
nodes = (
"54 0 LINE",
"173 673 LINE",
"173 673 LINE",
"489 0 LINE",
"511 0 LINE",
"635 700 LINE",
"615 700 LINE",
"497 32 LINE",
"497 32 LINE",
"183 700 LINE",
"158 700 LINE",
"34 0 LINE"
);
}
);
width = 632;
},
{
anchors = (
{
name = bottom;
position = "{297, 0}";
},
{
name = top;
position = "{419, 700}";
}
);
layerId = "973C19EE-3504-4BDF-BF6D-4817D3AD4E7D";
paths = (
{
closed = 1;
nodes = (
"103 0 LINE",
"207 589 LINE",
"207 589 LINE",
"490 0 LINE",
"560 0 LINE",
"683 700 LINE",
"613 700 LINE",
"510 112 LINE",
"510 112 LINE",
"225 700 LINE",
"156 700 LINE",
"33 0 LINE"
);
}
);
width = 680;
},
{
anchors = (
{
name = bottom;
position = "{302, 0}";
},
{
name = top;
position = "{424, 700}";
}
);
layerId = "8231B9DE-059C-4C71-A8C4-ABDA89A7D05C";
paths = (
{
closed = 1;
nodes = (
"115 0 LINE",
"215 567 LINE",
"215 567 LINE",
"488 0 LINE",
"572 0 LINE",
"695 700 LINE",
"611 700 LINE",
"512 133 LINE",
"512 133 LINE",
"237 700 LINE",
"154 700 LINE",
"31 0 LINE"
);
}
);
width = 690;
}
);
leftKerningGroup = H;
leftMetricsKey = H;
rightKerningGroup = H;
rightMetricsKey = H;
unicode = 004E;
userData = {
com.schriftgestaltung.Glyphs.ColorIndex = 4;
com.typesupply.AccentFactory.yCoordinates = {
bottom = {
name = origin;
type = glyphMetric;
};
top = {
name = capHeight;
type = fontInfo;
};
};
};
},
{
glyphname = Eng;
lastChange = "2023-05-19 14:03:36 +0000";
layers = (
{
anchors = (
{
name = bottom;
position = "{313, 0}";
},
{
name = top;
position = "{313, 700}";
}
);
layerId = "EB62C368-BB48-47C0-A466-DA94204A0DE4";
paths = (
{
closed = 1;
nodes = (
"52 0 LINE",
"170 673 LINE",
"170 673 LINE",
"489 0 LINE",
"468 -118 LINE SMOOTH",
"457 -178 OFFCURVE",
"431 -201 OFFCURVE",
"370 -201 CURVE SMOOTH",
"333 -201 LINE",
"330 -220 LINE",
"371 -220 LINE SMOOTH",
"445 -220 OFFCURVE",
"476 -183 OFFCURVE",
"487 -123 CURVE SMOOTH",
"632 700 LINE",
"612 700 LINE",
"495 37 LINE",
"495 37 LINE",
"181 700 LINE",
"155 700 LINE",
"32 0 LINE"
);
}
);
width = 632;
},
{
anchors = (
{
name = bottom;
position = "{344, 0}";
},
{
name = top;
position = "{344, 700}";
}
);
layerId = "2D111E5E-352D-4630-9162-BCEF010D26CF";
paths = (
{
closed = 1;
nodes = (
"108 0 LINE",
"211 586 LINE",
"211 586 LINE",
"495 0 LINE",
"479 -89 LINE SMOOTH",
"470 -141 OFFCURVE",
"445 -160 OFFCURVE",
"393 -160 CURVE SMOOTH",
"354 -160 LINE",
"344 -220 LINE",
"394 -220 LINE SMOOTH",
"482 -220 OFFCURVE",
"533 -179 OFFCURVE",
"549 -91 CURVE SMOOTH",
"688 700 LINE",
"618 700 LINE",
"515 114 LINE",
"515 114 LINE",
"232 700 LINE",
"161 700 LINE",
"38 0 LINE"
);
}
);
width = 695;
},
{
anchors = (
{
name = bottom;
position = "{344, 0}";
},
{
name = top;
position = "{344, 700}";
}
);
layerId = "A6F5E7A4-47EF-4F55-BF18-0ACACB57A720";
paths = (
{
closed = 1;
nodes = (
"115 0 LINE",
"214 562 LINE",
"214 562 LINE",
"488 0 LINE",
"474 -80 LINE SMOOTH",
"465 -130 OFFCURVE",
"442 -148 OFFCURVE",
"392 -148 CURVE SMOOTH",
"353 -148 LINE",
"340 -220 LINE",
"392 -220 LINE SMOOTH",
"484 -220 OFFCURVE",
"540 -178 OFFCURVE",
"557 -82 CURVE SMOOTH",
"695 700 LINE",
"611 700 LINE",
"512 138 LINE",
"512 138 LINE",
"238 700 LINE",
"154 700 LINE",
"31 0 LINE"
);
}
);
width = 695;
},
{
anchors = (
{
name = bottom;
position = "{382, 0}";
},
{
name = top;
position = "{382, 700}";
}
);
layerId = "1615C59E-33DE-4B88-B2CC-A48C7D56A125";
paths = (
{
closed = 1;
nodes = (
"197 0 LINE",
"272 427 LINE",
"272 427 LINE",
"484 0 LINE",
"479 -28 LINE SMOOTH",
"473 -61 OFFCURVE",
"456 -75 OFFCURVE",
"418 -75 CURVE SMOOTH",
"376 -75 LINE",
"351 -220 LINE",
"419 -220 LINE SMOOTH",
"535 -220 OFFCURVE",
"624 -171 OFFCURVE",
"649 -26 CURVE SMOOTH",
"777 700 LINE",
"606 700 LINE",
"530 271 LINE",
"530 271 LINE",
"320 700 LINE",
"149 700 LINE",
"26 0 LINE"
);
}
);
width = 772;
},
{
anchors = (
{
name = bottom;
position = "{316, 0}";
},
{
name = top;
position = "{316, 700}";
}
);
layerId = "90D50F69-F6F7-4633-9462-ED0440D3064F";
paths = (
{
closed = 1;
nodes = (
"55 0 LINE",
"173 673 LINE",
"173 673 LINE",
"492 0 LINE",
"471 -116 LINE SMOOTH",
"461 -173 OFFCURVE",
"438 -200 OFFCURVE",
"373 -200 CURVE SMOOTH",
"337 -200 LINE",
"334 -220 LINE",
"373 -220 LINE SMOOTH",
"448 -220 OFFCURVE",
"480 -182 OFFCURVE",
"490 -123 CURVE SMOOTH",
"635 700 LINE",
"615 700 LINE",
"498 38 LINE",
"498 38 LINE",
"184 700 LINE",
"158 700 LINE",
"35 0 LINE"
);
}
);
width = 632;
},
{
anchors = (
{
name = bottom;
position = "{339, 0}";
},
{
name = top;
position = "{339, 700}";
}
);
layerId = "973C19EE-3504-4BDF-BF6D-4817D3AD4E7D";
paths = (
{
closed = 1;
nodes = (
"103 0 LINE",
"205 583 LINE",
"205 583 LINE",
"490 0 LINE",
"474 -88 LINE SMOOTH",
"465 -141 OFFCURVE",
"440 -160 OFFCURVE",
"388 -160 CURVE SMOOTH",
"350 -160 LINE",
"340 -220 LINE",
"389 -220 LINE SMOOTH",
"477 -220 OFFCURVE",
"528 -179 OFFCURVE",
"544 -91 CURVE SMOOTH",
"683 700 LINE",
"613 700 LINE",
"510 118 LINE",
"510 118 LINE",
"226 700 LINE",
"156 700 LINE",
"33 0 LINE"
);
}
);
width = 680;
},
{
anchors = (
{
name = bottom;
position = "{344, 0}";
},
{
name = top;
position = "{344, 700}";
}
);
layerId = "8231B9DE-059C-4C71-A8C4-ABDA89A7D05C";
paths = (
{
closed = 1;
nodes = (
"115 0 LINE",
"214 561 LINE",
"214 561 LINE",
"488 0 LINE",
"474 -80 LINE SMOOTH",
"465 -130 OFFCURVE",
"442 -148 OFFCURVE",
"392 -148 CURVE SMOOTH",
"353 -148 LINE",
"340 -220 LINE",
"392 -220 LINE SMOOTH",
"484 -220 OFFCURVE",
"540 -178 OFFCURVE",
"557 -82 CURVE SMOOTH",
"695 700 LINE",
"611 700 LINE",
"512 139 LINE",
"512 139 LINE",
"238 700 LINE",
"154 700 LINE",
"31 0 LINE"
);
}
);
width = 689;
},
{
anchors = (
{
name = bottom;
position = "{375, 0}";
},
{
name = top;
position = "{375, 700}";
}
);
layerId = "66953C5E-8AEB-4AF5-804F-512B0A9BA4E6";
paths = (
{
closed = 1;
nodes = (
"190 0 LINE",
"265 425 LINE",
"265 425 LINE",
"476 0 LINE",
"471 -28 LINE SMOOTH",
"465 -61 OFFCURVE",
"448 -75 OFFCURVE",
"410 -75 CURVE SMOOTH",
"369 -75 LINE",
"344 -220 LINE",
"411 -220 LINE SMOOTH",
"527 -220 OFFCURVE",
"617 -171 OFFCURVE",
"642 -26 CURVE SMOOTH",
"770 700 LINE",
"599 700 LINE",
"524 273 LINE",
"524 273 LINE",
"313 700 LINE",
"142 700 LINE",
"19 0 LINE"
);
}
);
width = 752;
},
{
anchors = (
{
name = bottom;
position = "{285, 0}";
},
{
name = top;
position = "{285, 700}";
}
);
layerId = "5D382461-81E1-4DF2-8677-8A6F02AD5363";
paths = (
{
closed = 1;
nodes = (
"22 0 LINE",
"140 667 LINE",
"144 667 LINE",
"459 0 LINE",
"442 -96 LINE SMOOTH",
"432 -153 OFFCURVE",
"409 -180 OFFCURVE",
"344 -180 CURVE SMOOTH",
"308 -180 LINE",
"305 -200 LINE",
"344 -200 LINE SMOOTH",
"419 -200 OFFCURVE",
"450 -162 OFFCURVE",
"461 -103 CURVE SMOOTH",
"602 700 LINE",
"582 700 LINE",
"466 39 LINE",
"462 39 LINE",
"151 700 LINE",
"125 700 LINE",
"2 0 LINE"
);
}
);
width = 568;
},
{
anchors = (
{
name = bottom;
position = "{310, 0}";
},
{
name = top;
position = "{310, 700}";
}
);
layerId = "3B8883BF-F483-4B97-AC7C-CABF8B821093";
paths = (
{
closed = 1;
nodes = (
"72 0 LINE",
"183 632 LINE",
"187 632 LINE",
"459 0 LINE",
"447 -68 LINE SMOOTH",
"438 -121 OFFCURVE",
"413 -140 OFFCURVE",
"361 -140 CURVE SMOOTH",
"323 -140 LINE",
"313 -200 LINE",
"362 -200 LINE SMOOTH",
"450 -200 OFFCURVE",
"501 -159 OFFCURVE",
"516 -71 CURVE SMOOTH",
"652 700 LINE",
"582 700 LINE",
"482 133 LINE",
"478 133 LINE",
"235 700 LINE",
"125 700 LINE",
"2 0 LINE"
);
}
);
width = 617;
},
{
anchors = (
{
name = bottom;
position = "{317, 0}";
},
{
name = top;
position = "{317, 700}";
}
);
layerId = "F5F01D5B-AEA3-4AC3-B3D8-92550D1582D7";
paths = (
{
closed = 1;
nodes = (
"86 0 LINE",
"193 606 LINE",
"197 606 LINE",
"459 0 LINE",
"448 -60 LINE SMOOTH",
"439 -115 OFFCURVE",
"415 -133 OFFCURVE",
"365 -133 CURVE SMOOTH",
"326 -133 LINE",
"315 -200 LINE",
"367 -200 LINE SMOOTH",
"459 -200 OFFCURVE",
"515 -158 OFFCURVE",
"532 -62 CURVE SMOOTH",
"666 700 LINE",
"582 700 LINE",
"486 151 LINE",
"482 151 LINE",
"245 700 LINE",
"125 700 LINE",
"2 0 LINE"
);
}
);
width = 632;
},
{
anchors = (
{
name = bottom;
position = "{360, 0}";
},
{
name = top;
position = "{360, 700}";
}
);
layerId = "A390C1A2-E540-434D-BB9E-4BCEE875BA63";
paths = (
{
closed = 1;
nodes = (
"173 0 LINE",
"253 456 LINE",
"257 456 LINE",
"459 0 LINE",
"458 -8 LINE SMOOTH",
"452 -41 OFFCURVE",
"435 -55 OFFCURVE",
"397 -55 CURVE SMOOTH",
"356 -55 LINE",
"331 -200 LINE",
"398 -200 LINE SMOOTH",
"514 -200 OFFCURVE",
"603 -151 OFFCURVE",
"629 -6 CURVE SMOOTH",
"753 700 LINE",
"582 700 LINE",
"509 283 LINE",
"505 283 LINE",
"326 700 LINE",
"125 700 LINE",
"2 0 LINE"
);
}
);
width = 719;
}
);
leftMetricsKey = N;
rightMetricsKey = N;
unicode = 014A;
},
{
glyphname = O;
lastChange = "2023-05-19 14:03:36 +0000";
layers = (
{
anchors = (
{
name = bottom;
position = "{347, 0}";
},
{
name = center;
position = "{409, 350}";
},
{
name = ogonek;
position = "{662, 10}";
},
{
name = top;
position = "{471, 700}";
},
{
name = topleft;
position = "{100, 700}";
},
{
name = topright;
position = "{842, 700}";
}
);
layerId = "A390C1A2-E540-434D-BB9E-4BCEE875BA63";
paths = (
{
closed = 1;
nodes = (
"555 -12 OFFCURVE",
"727 136 OFFCURVE",
"765 350 CURVE SMOOTH",
"803 564 OFFCURVE",
"683 712 OFFCURVE",
"473 712 CURVE SMOOTH",
"263 712 OFFCURVE",
"91 564 OFFCURVE",
"53 350 CURVE SMOOTH",
"15 136 OFFCURVE",
"135 -12 OFFCURVE",
"345 -12 CURVE SMOOTH"
);
},
{
closed = 1;
nodes = (
"260 143 OFFCURVE",
"205 223 OFFCURVE",
"227 350 CURVE SMOOTH",
"249 477 OFFCURVE",
"332 557 OFFCURVE",
"445 557 CURVE SMOOTH",
"558 557 OFFCURVE",
"613 477 OFFCURVE",
"591 350 CURVE SMOOTH",
"569 223 OFFCURVE",
"486 143 OFFCURVE",
"373 143 CURVE SMOOTH"
);
}
);
width = 782;
},
{
anchors = (
{
name = bottom;
position = "{336, 0}";
},
{
name = center;
position = "{398, 350}";
},
{
name = ogonek;
position = "{642, 10}";
},
{
name = top;
position = "{460, 700}";
},
{
name = topleft;
position = "{100, 700}";
},
{
name = topright;
position = "{820, 700}";
}
);
layerId = "F5F01D5B-AEA3-4AC3-B3D8-92550D1582D7";
paths = (
{
closed = 1;
nodes = (
"542 -12 OFFCURVE",
"705 135 OFFCURVE",
"743 350 CURVE SMOOTH",
"781 564 OFFCURVE",
"670 712 OFFCURVE",
"462 712 CURVE SMOOTH",
"256 712 OFFCURVE",
"91 564 OFFCURVE",
"53 350 CURVE SMOOTH",
"15 135 OFFCURVE",
"128 -12 OFFCURVE",
"334 -12 CURVE SMOOTH"
);
},
{
closed = 1;
nodes = (
"184 62 OFFCURVE",
"107 170 OFFCURVE",
"139 350 CURVE SMOOTH",
"171 530 OFFCURVE",
"295 637 OFFCURVE",
"453 637 CURVE SMOOTH",
"614 637 OFFCURVE",
"689 530 OFFCURVE",
"657 350 CURVE SMOOTH",
"625 170 OFFCURVE",
"494 62 OFFCURVE",
"347 62 CURVE SMOOTH"
);
}
);
width = 760;
},
{
anchors = (
{
name = bottom;
position = "{334, 0}";
},
{
name = center;
position = "{396, 350}";
},
{
name = ogonek;
position = "{638, 10}";
},
{
name = top;
position = "{458, 700}";
},
{
name = topleft;
position = "{100, 700}";
},
{
name = topright;
position = "{816, 700}";
}
);
layerId = "3B8883BF-F483-4B97-AC7C-CABF8B821093";
paths = (
{
closed = 1;
nodes = (
"539 -12 OFFCURVE",
"701 135 OFFCURVE",
"739 350 CURVE SMOOTH",
"777 564 OFFCURVE",
"667 712 OFFCURVE",
"460 712 CURVE SMOOTH",
"254 712 OFFCURVE",
"91 564 OFFCURVE",
"53 350 CURVE SMOOTH",
"15 135 OFFCURVE",
"126 -12 OFFCURVE",
"332 -12 CURVE SMOOTH"
);
},
{
closed = 1;
nodes = (
"182 49 OFFCURVE",
"92 162 OFFCURVE",
"125 350 CURVE SMOOTH",
"158 538 OFFCURVE",
"288 650 OFFCURVE",
"449 650 CURVE SMOOTH",
"610 650 OFFCURVE",
"700 538 OFFCURVE",
"667 350 CURVE SMOOTH",
"634 162 OFFCURVE",
"504 49 OFFCURVE",
"343 49 CURVE SMOOTH"
);
}
);
width = 756;
},
{
anchors = (
{
name = bottom;
position = "{328, 0}";
},
{
name = center;
position = "{390, 350}";
},
{
name = ogonek;
position = "{627, 10}";
},
{
name = top;
position = "{452, 700}";
},
{
name = topleft;
position = "{100, 700}";
},
{
name = topright;
position = "{803, 700}";
}
);
layerId = "5D382461-81E1-4DF2-8677-8A6F02AD5363";
paths = (
{
closed = 1;
nodes = (
"529 -12 OFFCURVE",
"688 135 OFFCURVE",
"726 350 CURVE SMOOTH",
"764 564 OFFCURVE",
"657 712 OFFCURVE",
"453 712 CURVE SMOOTH",
"249 712 OFFCURVE",
"91 564 OFFCURVE",
"53 350 CURVE SMOOTH",
"15 135 OFFCURVE",
"121 -12 OFFCURVE",
"325 -12 CURVE SMOOTH"
);
},
{
closed = 1;
nodes = (
"144 8 OFFCURVE",
"36 132 OFFCURVE",
"74 350 CURVE SMOOTH",
"111 561 OFFCURVE",
"276 694 OFFCURVE",
"455 694 CURVE SMOOTH",
"630 694 OFFCURVE",
"742 568 OFFCURVE",
"704 350 CURVE SMOOTH",
"666 132 OFFCURVE",
"503 8 OFFCURVE",
"329 8 CURVE SMOOTH"
);
}
);
width = 743;
},
{
anchors = (
{
name = bottom;
position = "{291, 0}";
},
{
name = center;
position = "{414, 350}";
},
{
name = ogonek;
position = "{600, 10}";
},
{
name = top;
position = "{462, 700}";
},
{
name = topleft;
position = "{174, 700}";
},
{
name = topright;
position = "{901, 700}";
}
);
layerId = "1615C59E-33DE-4B88-B2CC-A48C7D56A125";
paths = (
{
closed = 1;
nodes = (
"532 -12 OFFCURVE",
"696 136 OFFCURVE",
"734 350 CURVE SMOOTH",
"772 564 OFFCURVE",
"660 712 OFFCURVE",
"463 712 CURVE SMOOTH",
"265 712 OFFCURVE",
"101 564 OFFCURVE",
"63 350 CURVE SMOOTH",
"25 136 OFFCURVE",
"137 -12 OFFCURVE",
"335 -12 CURVE SMOOTH"
);
},
{
closed = 1;
nodes = (
"262 143 OFFCURVE",
"215 223 OFFCURVE",
"237 350 CURVE SMOOTH",
"259 477 OFFCURVE",
"334 557 OFFCURVE",
"435 557 CURVE SMOOTH",
"535 557 OFFCURVE",
"582 477 OFFCURVE",
"560 350 CURVE SMOOTH",
"538 223 OFFCURVE",
"463 143 OFFCURVE",
"363 143 CURVE SMOOTH"
);
}
);
width = 767;
},
{
anchors = (
{
name = bottom;
position = "{342, 0}";
},
{
name = center;
position = "{403, 350}";
},
{
name = ogonek;
position = "{641, 10}";
},
{
name = top;
position = "{465, 700}";
},
{
name = topleft;
position = "{112, 700}";
},
{
name = topright;
position = "{818, 700}";
}
);
layerId = "A6F5E7A4-47EF-4F55-BF18-0ACACB57A720";
paths = (
{
closed = 1;
nodes = (
"520 -12 OFFCURVE",
"674 135 OFFCURVE",
"712 350 CURVE SMOOTH",
"750 564 OFFCURVE",
"648 712 OFFCURVE",
"452 712 CURVE SMOOTH",
"259 712 OFFCURVE",
"102 564 OFFCURVE",
"64 350 CURVE SMOOTH",
"26 135 OFFCURVE",
"131 -12 OFFCURVE",
"324 -12 CURVE SMOOTH"
);
},
{
closed = 1;
nodes = (
"195 62 OFFCURVE",
"118 170 OFFCURVE",
"150 350 CURVE SMOOTH",
"182 530 OFFCURVE",
"297 637 OFFCURVE",
"439 637 CURVE SMOOTH",
"582 637 OFFCURVE",
"658 530 OFFCURVE",
"626 350 CURVE SMOOTH",
"594 170 OFFCURVE",
"480 62 OFFCURVE",
"337 62 CURVE SMOOTH"
);
}
);
width = 746;
},
{
anchors = (
{
name = bottom;
position = "{328, 0}";
},
{
name = center;
position = "{389, 350}";
},
{
name = ogonek;
position = "{628, 10}";
},
{
name = top;
position = "{451, 700}";
},
{
name = topleft;
position = "{97, 700}";
},
{
name = topright;
position = "{805, 700}";
}
);
layerId = "2D111E5E-352D-4630-9162-BCEF010D26CF";
paths = (
{
closed = 1;
nodes = (
"520 -12 OFFCURVE",
"673 135 OFFCURVE",
"711 350 CURVE SMOOTH",
"749 564 OFFCURVE",
"648 712 OFFCURVE",
"453 712 CURVE SMOOTH",
"260 712 OFFCURVE",
"105 564 OFFCURVE",
"67 350 CURVE SMOOTH",
"29 135 OFFCURVE",
"132 -12 OFFCURVE",
"325 -12 CURVE SMOOTH"
);
},
{
closed = 1;
nodes = (
"189 50 OFFCURVE",
"106 162 OFFCURVE",
"139 350 CURVE SMOOTH",
"172 538 OFFCURVE",
"295 649 OFFCURVE",
"442 649 CURVE SMOOTH",
"590 649 OFFCURVE",
"672 538 OFFCURVE",
"639 350 CURVE SMOOTH",
"606 162 OFFCURVE",
"484 50 OFFCURVE",
"336 50 CURVE SMOOTH"
);
}
);
width = 748;
},
{
anchors = (
{
name = bottom;
position = "{317, 0}";
},
{
name = center;
position = "{378, 350}";
},
{
name = ogonek;
position = "{608, 10}";
},
{
name = top;
position = "{440, 700}";
},
{
name = topleft;
position = "{97, 700}";
},
{
name = topright;
position = "{782, 700}";
}
);
guideLines = (
{
angle = 270;
position = "{693, 350}";
},
{
angle = 270;
position = "{740, 350}";
}
);
layerId = "EB62C368-BB48-47C0-A466-DA94204A0DE4";
paths = (
{
closed = 1;
nodes = (
"506 -12 OFFCURVE",
"655 135 OFFCURVE",
"693 350 CURVE SMOOTH",
"731 564 OFFCURVE",
"634 712 OFFCURVE",
"441 712 CURVE SMOOTH",
"250 712 OFFCURVE",
"100 564 OFFCURVE",
"62 350 CURVE SMOOTH",
"24 135 OFFCURVE",
"122 -12 OFFCURVE",
"313 -12 CURVE SMOOTH"
);
},
{
closed = 1;
nodes = (
"150 8 OFFCURVE",
"45 133 OFFCURVE",
"83 350 CURVE SMOOTH",
"121 568 OFFCURVE",
"270 692 OFFCURVE",
"446 692 CURVE SMOOTH",
"605 692 OFFCURVE",
"709 568 OFFCURVE",
"672 358 CURVE SMOOTH",
"633 133 OFFCURVE",
"485 8 OFFCURVE",
"309 8 CURVE SMOOTH"
);
}
);
width = 725;
},
{
anchors = (
{
name = bottom;
position = "{363, 0}";
},
{
name = center;
position = "{425, 350}";
},
{
name = ogonek;
position = "{690, 10}";
},
{
name = top;
position = "{487, 700}";
},
{
name = topleft;
position = "{100, 700}";
},
{
name = topright;
position = "{873, 700}";
}
);
layerId = "66953C5E-8AEB-4AF5-804F-512B0A9BA4E6";
paths = (
{
closed = 1;
nodes = (
"605 -12 OFFCURVE",
"791 173 OFFCURVE",
"791 406 CURVE SMOOTH",
"791 582 OFFCURVE",
"661 712 OFFCURVE",
"480 712 CURVE SMOOTH",
"242 712 OFFCURVE",
"58 527 OFFCURVE",
"58 294 CURVE SMOOTH",
"58 118 OFFCURVE",
"188 -12 OFFCURVE",
"369 -12 CURVE SMOOTH"
);
},
{
closed = 1;
nodes = (
"288 143 OFFCURVE",
"234 210 OFFCURVE",
"234 310 CURVE SMOOTH",
"234 450 OFFCURVE",
"336 557 OFFCURVE",
"461 557 CURVE SMOOTH",
"568 557 OFFCURVE",
"615 490 OFFCURVE",
"615 390 CURVE SMOOTH",
"615 250 OFFCURVE",
"513 143 OFFCURVE",
"388 143 CURVE SMOOTH"
);
}
);
width = 813;
},
{
anchors = (
{
name = bottom;
position = "{358, 0}";
},
{
name = center;
position = "{420, 350}";
},
{
name = ogonek;
position = "{667, 10}";
},
{
name = top;
position = "{482, 700}";
},
{
name = topleft;
position = "{117, 700}";
},
{
name = topright;
position = "{846, 700}";
}
);
layerId = "90D50F69-F6F7-4633-9462-ED0440D3064F";
paths = (
{
closed = 1;
nodes = (
"541 -12 OFFCURVE",
"700 135 OFFCURVE",
"738 350 CURVE SMOOTH",
"776 564 OFFCURVE",
"669 712 OFFCURVE",
"465 712 CURVE SMOOTH",
"261 712 OFFCURVE",
"103 564 OFFCURVE",
"65 350 CURVE SMOOTH",
"27 135 OFFCURVE",
"133 -12 OFFCURVE",
"337 -12 CURVE SMOOTH"
);
},
{
closed = 1;
nodes = (
"164 8 OFFCURVE",
"49 132 OFFCURVE",
"87 350 CURVE SMOOTH",
"125 568 OFFCURVE",
"284 692 OFFCURVE",
"461 692 CURVE SMOOTH",
"638 692 OFFCURVE",
"754 568 OFFCURVE",
"716 350 CURVE SMOOTH",
"678 132 OFFCURVE",
"518 8 OFFCURVE",
"341 8 CURVE SMOOTH"
);
}
);
width = 767;
},
{
anchors = (
{
name = bottom;
position = "{352, 0}";
},
{
name = center;
position = "{414, 350}";
},
{
name = ogonek;
position = "{671, 10}";
},
{
name = top;
position = "{476, 700}";
},
{
name = topleft;
position = "{100, 700}";
},
{
name = topright;
position = "{852, 700}";
}
);
layerId = "973C19EE-3504-4BDF-BF6D-4817D3AD4E7D";
paths = (
{
closed = 1;
nodes = (
"577 -12 OFFCURVE",
"767 179 OFFCURVE",
"767 417 CURVE SMOOTH",
"767 590 OFFCURVE",
"650 712 OFFCURVE",
"478 712 CURVE SMOOTH",
"251 712 OFFCURVE",
"61 522 OFFCURVE",
"61 285 CURVE SMOOTH",
"61 112 OFFCURVE",
"178 -12 OFFCURVE",
"350 -12 CURVE SMOOTH"
);
},
{
closed = 1;
nodes = (
"229 49 OFFCURVE",
"134 142 OFFCURVE",
"134 288 CURVE SMOOTH",
"134 490 OFFCURVE",
"283 650 OFFCURVE",
"467 650 CURVE SMOOTH",
"598 650 OFFCURVE",
"694 561 OFFCURVE",
"694 414 CURVE SMOOTH",
"694 211 OFFCURVE",
"544 49 OFFCURVE",
"361 49 CURVE SMOOTH"
);
}
);
width = 792;
},
{
anchors = (
{
name = bottom;
position = "{353, 0}";
},
{
name = center;
position = "{415, 350}";
},
{
name = ogonek;
position = "{673, 10}";
},
{
name = top;
position = "{477, 700}";
},
{
name = topleft;
position = "{99, 700}";
},
{
name = topright;
position = "{854, 700}";
}
);
layerId = "8231B9DE-059C-4C71-A8C4-ABDA89A7D05C";
paths = (
{
closed = 1;
nodes = (
"580 -12 OFFCURVE",
"769 178 OFFCURVE",
"769 415 CURVE SMOOTH",
"769 589 OFFCURVE",
"651 712 OFFCURVE",
"477 712 CURVE SMOOTH",
"249 712 OFFCURVE",
"60 523 OFFCURVE",
"60 286 CURVE SMOOTH",
"60 113 OFFCURVE",
"178 -12 OFFCURVE",
"352 -12 CURVE SMOOTH"
);
},
{
closed = 1;
nodes = (
"236 62 OFFCURVE",
"147 151 OFFCURVE",
"147 291 CURVE SMOOTH",
"147 484 OFFCURVE",
"289 637 OFFCURVE",
"465 637 CURVE SMOOTH",
"593 637 OFFCURVE",
"682 551 OFFCURVE",
"682 411 CURVE SMOOTH",
"682 216 OFFCURVE",
"539 62 OFFCURVE",
"364 62 CURVE SMOOTH"
);
}
);
width = 793;
}
);
leftKerningGroup = O;
rightKerningGroup = O;
unicode = 004F;
userData = {
com.schriftgestaltung.Glyphs.ColorIndex = 4;
com.typemytype.robofont.layerData = {
b = {
anchors = (
{
name = top;
x = 407;
y = 683;
}
);
components = (
);
contours = (
{
points = (
{
segmentType = curve;
smooth = 1;
x = 60;
y = 341;
},
{
smooth = 0;
x = 60;
y = 138;
},
{
smooth = 0;
x = 214;
y = -7;
},
{
segmentType = curve;
smooth = 1;
x = 407;
y = -7;
},
{
smooth = 0;
x = 601;
y = -7;
},
{
smooth = 0;
x = 754;
y = 138;
},
{
segmentType = curve;
smooth = 1;
x = 754;
y = 341;
},
{
smooth = 0;
x = 754;
y = 546;
},
{
smooth = 0;
x = 601;
y = 690;
},
{
segmentType = curve;
smooth = 1;
x = 407;
y = 690;
},
{
smooth = 0;
x = 214;
y = 690;
},
{
smooth = 0;
x = 60;
y = 546;
}
);
},
{
points = (
{
segmentType = curve;
smooth = 1;
x = 733;
y = 341;
},
{
smooth = 0;
x = 733;
y = 137;
},
{
smooth = 0;
x = 588;
y = 4;
},
{
segmentType = curve;
smooth = 1;
x = 407;
y = 4;
},
{
smooth = 0;
x = 226;
y = 4;
},
{
smooth = 0;
x = 80;
y = 137;
},
{
segmentType = curve;
smooth = 1;
x = 80;
y = 341;
},
{
smooth = 0;
x = 80;
y = 547;
},
{
smooth = 0;
x = 226;
y = 677;
},
{
segmentType = curve;
smooth = 1;
x = 407;
y = 677;
},
{
smooth = 0;
x = 588;
y = 677;
},
{
smooth = 0;
x = 733;
y = 547;
}
);
}
);
lib = {
};
name = O;
unicodes = (
);
width = 792;
};
};
com.typesupply.AccentFactory.yCoordinates = {
bottom = {
name = origin;
type = glyphMetric;
};
top = {
name = capHeight;
type = fontInfo;
};
};
};
},
{
glyphname = Oslash;
lastChange = "2023-05-19 14:03:36 +0000";
layers = (
{
components = (
{
alignment = -1;
name = O;
transform = "{1, 0, 0, 1, -6, 0}";
}
);
layerId = "A390C1A2-E540-434D-BB9E-4BCEE875BA63";
paths = (
{
closed = 1;
nodes = (
"121 0 LINE",
"829 700 LINE",
"685 700 LINE",
"-23 0 LINE"
);
}
);
width = 772;
},
{
components = (
{
alignment = -1;
name = O;
transform = "{1, 0, 0, 1, 18, 0}";
}
);
layerId = "F5F01D5B-AEA3-4AC3-B3D8-92550D1582D7";
paths = (
{
closed = 1;
nodes = (
"72 0 LINE",
"814 700 LINE",
"725 700 LINE",
"-18 0 LINE"
);
}
);
width = 768;
},
{
components = (
{
alignment = -1;
name = O;
transform = "{1, 0, 0, 1, 18, 0}";
}
);
layerId = "3B8883BF-F483-4B97-AC7C-CABF8B821093";
paths = (
{
closed = 1;
nodes = (
"61 0 LINE",
"809 700 LINE",
"730 700 LINE",
"-18 0 LINE"
);
}
);
width = 766;
},
{
components = (
{
alignment = -1;
name = O;
transform = "{1, 0, 0, 1, 17, 0}";
}
);
layerId = "5D382461-81E1-4DF2-8677-8A6F02AD5363";
paths = (
{
closed = 1;
nodes = (
"20 0 LINE",
"788 700 LINE",
"759 700 LINE",
"-9 0 LINE"
);
}
);
width = 760;
},
{
components = (
{
alignment = -1;
name = O;
transform = "{1, 0, 0, 1, -5, 0}";
}
);
layerId = "1615C59E-33DE-4B88-B2CC-A48C7D56A125";
paths = (
{
closed = 1;
nodes = (
"110 0 LINE",
"818 700 LINE",
"677 700 LINE",
"-31 0 LINE"
);
}
);
width = 755;
},
{
components = (
{
alignment = -1;
name = O;
transform = "{1, 0, 0, 1, 16, 0}";
}
);
layerId = "A6F5E7A4-47EF-4F55-BF18-0ACACB57A720";
paths = (
{
closed = 1;
nodes = (
"64 0 LINE",
"806 700 LINE",
"717 700 LINE",
"-26 0 LINE"
);
}
);
width = 748;
},
{
components = (
{
alignment = -1;
name = O;
transform = "{1, 0, 0, 1, 16, 0}";
}
);
layerId = "2D111E5E-352D-4630-9162-BCEF010D26CF";
paths = (
{
closed = 1;
nodes = (
"55 0 LINE",
"803 700 LINE",
"724 700 LINE",
"-24 0 LINE"
);
}
);
width = 749;
},
{
components = (
{
alignment = -1;
name = O;
transform = "{1, 0, 0, 1, 17, 0}";
}
);
guideLines = (
{
angle = 270;
position = "{695, 350}";
},
{
angle = 270;
position = "{742, 350}";
}
);
layerId = "EB62C368-BB48-47C0-A466-DA94204A0DE4";
paths = (
{
closed = 1;
nodes = (
"10 0 LINE",
"778 700 LINE",
"749 700 LINE",
"-19 0 LINE"
);
}
);
width = 727;
},
{
components = (
{
alignment = -1;
name = O;
transform = "{1, 0, 0, 1, -6, 0}";
}
);
layerId = "66953C5E-8AEB-4AF5-804F-512B0A9BA4E6";
paths = (
{
closed = 1;
nodes = (
"132 0 LINE",
"840 700 LINE",
"686 700 LINE",
"-22 0 LINE"
);
}
);
width = 786;
},
{
components = (
{
alignment = -1;
name = O;
transform = "{1, 0, 0, 1, -20, 0}";
}
);
layerId = "90D50F69-F6F7-4633-9462-ED0440D3064F";
paths = (
{
closed = 1;
nodes = (
"45 0 LINE",
"689 700 LINE",
"660 700 LINE",
"16 0 LINE"
);
}
);
width = 726;
},
{
components = (
{
alignment = -1;
name = O;
transform = "{1, 0, 0, 1, -3, 0}";
}
);
layerId = "973C19EE-3504-4BDF-BF6D-4817D3AD4E7D";
paths = (
{
closed = 1;
nodes = (
"78 0 LINE",
"825 700 LINE",
"746 700 LINE",
"-2 0 LINE"
);
}
);
width = 787;
},
{
components = (
{
alignment = -1;
name = O;
transform = "{1, 0, 0, 1, -3, 0}";
}
);
layerId = "8231B9DE-059C-4C71-A8C4-ABDA89A7D05C";
paths = (
{
closed = 1;
nodes = (
"85 0 LINE",
"827 700 LINE",
"738 700 LINE",
"-5 0 LINE"
);
}
);
width = 786;
}
);
unicode = 00D8;
userData = {
com.schriftgestaltung.Glyphs.ColorIndex = 4;
};
},
{
glyphname = OE;
lastChange = "2023-05-19 14:03:36 +0000";
layers = (
{
anchors = (
{
name = bottom;
position = "{833, 0}";
},
{
name = top;
position = "{409, 700}";
}
);
layerId = "A390C1A2-E540-434D-BB9E-4BCEE875BA63";
paths = (
{
closed = 1;
nodes = (
"412 -12 OFFCURVE",
"478 5 OFFCURVE",
"538 43 CURVE",
"530 0 LINE",
"1010 0 LINE",
"1034 137 LINE",
"725 137 LINE",
"753 291 LINE",
"1032 291 LINE",
"1055 423 LINE",
"776 423 LINE",
"801 563 LINE",
"1110 563 LINE",
"1134 700 LINE",
"654 700 LINE",
"647 660 LINE",
"601 698 OFFCURVE",
"540 712 OFFCURVE",
"465 712 CURVE SMOOTH",
"263 712 OFFCURVE",
"91 564 OFFCURVE",
"53 350 CURVE SMOOTH",
"15 136 OFFCURVE",
"135 -12 OFFCURVE",
"336 -12 CURVE SMOOTH"
);
},
{
closed = 1;
nodes = (
"260 143 OFFCURVE",
"205 223 OFFCURVE",
"227 350 CURVE SMOOTH",
"249 477 OFFCURVE",
"332 557 OFFCURVE",
"445 557 CURVE SMOOTH",
"558 557 OFFCURVE",
"613 477 OFFCURVE",
"591 350 CURVE SMOOTH",
"569 223 OFFCURVE",
"486 143 OFFCURVE",
"373 143 CURVE SMOOTH"
);
}
);
width = 1084;
},
{
anchors = (
{
name = bottom;
position = "{882, 0}";
},
{
name = top;
position = "{398, 700}";
}
);
layerId = "F5F01D5B-AEA3-4AC3-B3D8-92550D1582D7";
paths = (
{
closed = 1;
nodes = (
"444 -12 OFFCURVE",
"541 28 OFFCURVE",
"616 105 CURVE",
"597 0 LINE",
"1030 0 LINE",
"1042 69 LINE",
"693 69 LINE",
"738 319 LINE",
"1057 319 LINE",
"1069 387 LINE",
"750 387 LINE",
"793 631 LINE",
"1142 631 LINE",
"1154 700 LINE",
"721 700 LINE",
"702 593 LINE",
"655 673 OFFCURVE",
"572 712 OFFCURVE",
"462 712 CURVE SMOOTH",
"256 712 OFFCURVE",
"91 564 OFFCURVE",
"53 350 CURVE SMOOTH",
"15 135 OFFCURVE",
"128 -12 OFFCURVE",
"334 -12 CURVE SMOOTH"
);
},
{
closed = 1;
nodes = (
"193 62 OFFCURVE",
"107 170 OFFCURVE",
"139 350 CURVE SMOOTH",
"171 530 OFFCURVE",
"295 637 OFFCURVE",
"449 637 CURVE SMOOTH",
"603 637 OFFCURVE",
"689 530 OFFCURVE",
"657 350 CURVE SMOOTH",
"625 170 OFFCURVE",
"501 62 OFFCURVE",
"347 62 CURVE SMOOTH"
);
}
);
width = 1104;
},
{
anchors = (
{
name = bottom;
position = "{883, 0}";
},
{
name = top;
position = "{396, 700}";
}
);
layerId = "3B8883BF-F483-4B97-AC7C-CABF8B821093";
paths = (
{
closed = 1;
nodes = (
"448 -12 OFFCURVE",
"560 38 OFFCURVE",
"629 122 CURVE",
"607 0 LINE",
"1032 0 LINE",
"1043 58 LINE",
"688 58 LINE",
"734 323 LINE",
"1059 323 LINE",
"1069 381 LINE",
"744 381 LINE",
"790 642 LINE",
"1145 642 LINE",
"1156 700 LINE",
"731 700 LINE",
"709 578 LINE",
"670 662 OFFCURVE",
"576 712 OFFCURVE",
"460 712 CURVE SMOOTH",
"254 712 OFFCURVE",
"91 564 OFFCURVE",
"53 350 CURVE SMOOTH",
"15 135 OFFCURVE",
"126 -12 OFFCURVE",
"332 -12 CURVE SMOOTH"
);
},
{
closed = 1;
nodes = (
"182 49 OFFCURVE",
"92 162 OFFCURVE",
"125 350 CURVE SMOOTH",
"158 538 OFFCURVE",
"288 650 OFFCURVE",
"449 650 CURVE SMOOTH",
"613 650 OFFCURVE",
"703 538 OFFCURVE",
"670 350 CURVE SMOOTH",
"637 162 OFFCURVE",
"507 49 OFFCURVE",
"343 49 CURVE SMOOTH"
);
}
);
width = 1107;
},
{
anchors = (
{
name = bottom;
position = "{860, 0}";
},
{
name = top;
position = "{637, 700}";
}
);
layerId = "5D382461-81E1-4DF2-8677-8A6F02AD5363";
paths = (
{
closed = 1;
nodes = (
"480 -12 OFFCURVE",
"618 76 OFFCURVE",
"683 225 CURVE",
"643 0 LINE",
"1040 0 LINE",
"1043 18 LINE",
"666 18 LINE",
"723 339 LINE",
"1070 339 LINE",
"1073 358 LINE",
"726 358 LINE",
"784 682 LINE",
"1161 682 LINE",
"1164 700 LINE",
"767 700 LINE",
"729 485 LINE",
"709 623 OFFCURVE",
"609 712 OFFCURVE",
"453 712 CURVE SMOOTH",
"249 712 OFFCURVE",
"91 564 OFFCURVE",
"53 350 CURVE SMOOTH",
"15 135 OFFCURVE",
"121 -12 OFFCURVE",
"325 -12 CURVE SMOOTH"
);
},
{
closed = 1;
nodes = (
"152 8 OFFCURVE",
"37 132 OFFCURVE",
"75 350 CURVE SMOOTH",
"113 568 OFFCURVE",
"272 692 OFFCURVE",
"449 692 CURVE SMOOTH",
"626 692 OFFCURVE",
"742 568 OFFCURVE",
"704 350 CURVE SMOOTH",
"665 129 OFFCURVE",
"506 8 OFFCURVE",
"329 8 CURVE SMOOTH"
);
}
);
width = 1114;
},
{
anchors = (
{
name = bottom;
position = "{739, 0}";
},
{
name = top;
position = "{462, 700}";
}
);
layerId = "1615C59E-33DE-4B88-B2CC-A48C7D56A125";
paths = (
{
closed = 1;
nodes = (
"385 -12 OFFCURVE",
"462 -1 OFFCURVE",
"506 46 CURVE",
"498 0 LINE",
"978 0 LINE",
"1002 137 LINE",
"693 137 LINE",
"721 291 LINE",
"1000 291 LINE",
"1023 423 LINE",
"744 423 LINE",
"769 563 LINE",
"1078 563 LINE",
"1102 700 LINE",
"622 700 LINE",
"614 654 LINE",
"583 691 OFFCURVE",
"523 712 OFFCURVE",
"456 712 CURVE SMOOTH",
"265 712 OFFCURVE",
"101 564 OFFCURVE",
"63 350 CURVE SMOOTH",
"25 136 OFFCURVE",
"137 -12 OFFCURVE",
"335 -12 CURVE SMOOTH"
);
},
{
closed = 1;
nodes = (
"262 143 OFFCURVE",
"215 223 OFFCURVE",
"237 350 CURVE SMOOTH",
"259 477 OFFCURVE",
"334 557 OFFCURVE",
"435 557 CURVE SMOOTH",
"535 557 OFFCURVE",
"582 477 OFFCURVE",
"560 350 CURVE SMOOTH",
"538 223 OFFCURVE",
"463 143 OFFCURVE",
"363 143 CURVE SMOOTH"
);
}
);
width = 1080;
},
{
anchors = (
{
name = bottom;
position = "{521, 0}";
},
{
name = top;
position = "{644, 700}";
}
);
layerId = "A6F5E7A4-47EF-4F55-BF18-0ACACB57A720";
paths = (
{
closed = 1;
nodes = (
"424 -12 OFFCURVE",
"513 26 OFFCURVE",
"581 92 CURVE",
"564 0 LINE",
"997 0 LINE",
"1009 69 LINE",
"660 69 LINE",
"705 319 LINE",
"1024 319 LINE",
"1036 387 LINE",
"717 387 LINE",
"760 631 LINE",
"1109 631 LINE",
"1121 700 LINE",
"688 700 LINE",
"671 607 LINE",
"627 673 OFFCURVE",
"552 712 OFFCURVE",
"452 712 CURVE SMOOTH",
"259 712 OFFCURVE",
"102 564 OFFCURVE",
"64 350 CURVE SMOOTH",
"26 135 OFFCURVE",
"131 -12 OFFCURVE",
"324 -12 CURVE SMOOTH"
);
},
{
closed = 1;
nodes = (
"195 62 OFFCURVE",
"118 170 OFFCURVE",
"150 350 CURVE SMOOTH",
"182 530 OFFCURVE",
"297 637 OFFCURVE",
"439 637 CURVE SMOOTH",
"582 637 OFFCURVE",
"658 530 OFFCURVE",
"626 350 CURVE SMOOTH",
"594 170 OFFCURVE",
"480 62 OFFCURVE",
"337 62 CURVE SMOOTH"
);
}
);
width = 1103;
},
{
anchors = (
{
name = bottom;
position = "{794, 0}";
},
{
name = top;
position = "{451, 700}";
}
);
layerId = "2D111E5E-352D-4630-9162-BCEF010D26CF";
paths = (
{
closed = 1;
nodes = (
"433 -12 OFFCURVE",
"528 33 OFFCURVE",
"598 109 CURVE",
"578 0 LINE",
"1003 0 LINE",
"1014 58 LINE",
"659 58 LINE",
"705 323 LINE",
"1030 323 LINE",
"1040 381 LINE",
"715 381 LINE",
"761 642 LINE",
"1116 642 LINE",
"1127 700 LINE",
"702 700 LINE",
"682 590 LINE",
"640 667 OFFCURVE",
"561 712 OFFCURVE",
"453 712 CURVE SMOOTH",
"260 712 OFFCURVE",
"105 564 OFFCURVE",
"67 350 CURVE SMOOTH",
"29 135 OFFCURVE",
"132 -12 OFFCURVE",
"325 -12 CURVE SMOOTH"
);
},
{
closed = 1;
nodes = (
"189 50 OFFCURVE",
"106 162 OFFCURVE",
"139 350 CURVE SMOOTH",
"172 538 OFFCURVE",
"295 649 OFFCURVE",
"442 649 CURVE SMOOTH",
"590 649 OFFCURVE",
"672 538 OFFCURVE",
"639 350 CURVE SMOOTH",
"606 162 OFFCURVE",
"484 50 OFFCURVE",
"336 50 CURVE SMOOTH"
);
}
);
width = 1111;
},
{
anchors = (
{
name = bottom;
position = "{807, 0}";
},
{
name = top;
position = "{467, 700}";
}
);
layerId = "EB62C368-BB48-47C0-A466-DA94204A0DE4";
paths = (
{
closed = 1;
nodes = (
"455 -12 OFFCURVE",
"577 66 OFFCURVE",
"647 215 CURVE",
"609 0 LINE",
"1006 0 LINE",
"1009 18 LINE",
"632 18 LINE",
"689 339 LINE",
"1036 339 LINE",
"1039 358 LINE",
"692 358 LINE",
"750 682 LINE",
"1127 682 LINE",
"1130 700 LINE",
"733 700 LINE",
"696 490 LINE",
"679 630 OFFCURVE",
"584 712 OFFCURVE",
"441 712 CURVE SMOOTH",
"250 712 OFFCURVE",
"100 564 OFFCURVE",
"62 350 CURVE SMOOTH",
"24 135 OFFCURVE",
"122 -12 OFFCURVE",
"313 -12 CURVE SMOOTH"
);
},
{
closed = 1;
nodes = (
"150 8 OFFCURVE",
"46 133 OFFCURVE",
"84 350 CURVE SMOOTH",
"122 568 OFFCURVE",
"270 692 OFFCURVE",
"437 692 CURVE SMOOTH",
"605 692 OFFCURVE",
"708 573 OFFCURVE",
"669 350 CURVE SMOOTH",
"631 133 OFFCURVE",
"485 8 OFFCURVE",
"317 8 CURVE SMOOTH"
);
}
);
width = 1110;
},
{
anchors = (
{
name = bottom;
position = "{506, 0}";
},
{
name = top;
position = "{630, 700}";
}
);
layerId = "66953C5E-8AEB-4AF5-804F-512B0A9BA4E6";
paths = (
{
closed = 1;
nodes = (
"416 -12 OFFCURVE",
"509 19 OFFCURVE",
"561 69 CURVE",
"549 0 LINE",
"999 0 LINE",
"1023 137 LINE",
"744 137 LINE",
"772 291 LINE",
"1021 291 LINE",
"1044 423 LINE",
"795 423 LINE",
"819 563 LINE",
"1098 563 LINE",
"1123 700 LINE",
"673 700 LINE",
"660 627 LINE",
"624 677 OFFCURVE",
"537 712 OFFCURVE",
"455 712 CURVE SMOOTH",
"238 712 OFFCURVE",
"58 533 OFFCURVE",
"58 294 CURVE SMOOTH",
"58 122 OFFCURVE",
"171 -12 OFFCURVE",
"343 -12 CURVE SMOOTH"
);
},
{
closed = 1;
nodes = (
"299 143 OFFCURVE",
"235 208 OFFCURVE",
"235 308 CURVE SMOOTH",
"235 446 OFFCURVE",
"336 557 OFFCURVE",
"459 557 CURVE SMOOTH",
"549 557 OFFCURVE",
"615 496 OFFCURVE",
"615 396 CURVE SMOOTH",
"615 259 OFFCURVE",
"512 143 OFFCURVE",
"388 143 CURVE SMOOTH"
);
}
);
width = 1093;
},
{
anchors = (
{
name = bottom;
position = "{533, 0}";
},
{
name = top;
position = "{657, 700}";
}
);
layerId = "90D50F69-F6F7-4633-9462-ED0440D3064F";
paths = (
{
closed = 1;
nodes = (
"492 -12 OFFCURVE",
"630 76 OFFCURVE",
"695 225 CURVE",
"655 0 LINE",
"1052 0 LINE",
"1055 18 LINE",
"678 18 LINE",
"735 339 LINE",
"1082 339 LINE",
"1085 358 LINE",
"738 358 LINE",
"796 682 LINE",
"1173 682 LINE",
"1176 700 LINE",
"779 700 LINE",
"741 485 LINE",
"721 623 OFFCURVE",
"621 712 OFFCURVE",
"465 712 CURVE SMOOTH",
"261 712 OFFCURVE",
"103 564 OFFCURVE",
"65 350 CURVE SMOOTH",
"27 135 OFFCURVE",
"133 -12 OFFCURVE",
"337 -12 CURVE SMOOTH"
);
},
{
closed = 1;
nodes = (
"158 8 OFFCURVE",
"47 132 OFFCURVE",
"85 350 CURVE SMOOTH",
"123 568 OFFCURVE",
"287 693 OFFCURVE",
"464 693 CURVE SMOOTH",
"641 693 OFFCURVE",
"754 568 OFFCURVE",
"716 350 CURVE SMOOTH",
"677 129 OFFCURVE",
"512 8 OFFCURVE",
"335 8 CURVE SMOOTH"
);
}
);
width = 1153;
},
{
anchors = (
{
name = bottom;
position = "{515, 0}";
},
{
name = top;
position = "{639, 700}";
}
);
layerId = "973C19EE-3504-4BDF-BF6D-4817D3AD4E7D";
paths = (
{
closed = 1;
nodes = (
"456 -12 OFFCURVE",
"559 38 OFFCURVE",
"638 133 CURVE",
"614 0 LINE",
"1009 0 LINE",
"1019 58 LINE",
"694 58 LINE",
"741 323 LINE",
"1036 323 LINE",
"1046 381 LINE",
"751 381 LINE",
"797 642 LINE",
"1122 642 LINE",
"1133 700 LINE",
"738 700 LINE",
"714 567 LINE",
"669 661 OFFCURVE",
"578 712 OFFCURVE",
"464 712 CURVE SMOOTH",
"253 712 OFFCURVE",
"63 526 OFFCURVE",
"63 299 CURVE SMOOTH",
"63 116 OFFCURVE",
"180 -12 OFFCURVE",
"342 -12 CURVE SMOOTH"
);
},
{
closed = 1;
nodes = (
"231 49 OFFCURVE",
"136 146 OFFCURVE",
"136 302 CURVE SMOOTH",
"136 494 OFFCURVE",
"285 650 OFFCURVE",
"453 650 CURVE SMOOTH",
"584 650 OFFCURVE",
"680 565 OFFCURVE",
"680 418 CURVE SMOOTH",
"680 215 OFFCURVE",
"536 49 OFFCURVE",
"353 49 CURVE SMOOTH"
);
}
);
width = 1111;
},
{
anchors = (
{
name = bottom;
position = "{513, 0}";
},
{
name = top;
position = "{637, 700}";
}
);
layerId = "8231B9DE-059C-4C71-A8C4-ABDA89A7D05C";
paths = (
{
closed = 1;
nodes = (
"450 -12 OFFCURVE",
"552 35 OFFCURVE",
"627 124 CURVE",
"605 0 LINE",
"1008 0 LINE",
"1020 69 LINE",
"701 69 LINE",
"745 319 LINE",
"1034 319 LINE",
"1046 387 LINE",
"757 387 LINE",
"800 631 LINE",
"1119 631 LINE",
"1132 700 LINE",
"729 700 LINE",
"707 575 LINE",
"663 663 OFFCURVE",
"572 712 OFFCURVE",
"463 712 CURVE SMOOTH",
"251 712 OFFCURVE",
"62 527 OFFCURVE",
"62 298 CURVE SMOOTH",
"62 117 OFFCURVE",
"179 -12 OFFCURVE",
"342 -12 CURVE SMOOTH"
);
},
{
closed = 1;
nodes = (
"240 62 OFFCURVE",
"150 155 OFFCURVE",
"150 303 CURVE SMOOTH",
"150 487 OFFCURVE",
"292 637 OFFCURVE",
"454 637 CURVE SMOOTH",
"579 637 OFFCURVE",
"671 555 OFFCURVE",
"671 415 CURVE SMOOTH",
"671 221 OFFCURVE",
"533 62 OFFCURVE",
"358 62 CURVE SMOOTH"
);
}
);
width = 1109;
}
);
leftKerningGroup = O;
leftMetricsKey = O;
rightKerningGroup = E;
rightMetricsKey = E;
unicode = 0152;
userData = {
com.schriftgestaltung.Glyphs.ColorIndex = 4;
com.typesupply.AccentFactory.yCoordinates = {
bottom = {
name = origin;
type = glyphMetric;
};
top = {
name = capHeight;
type = fontInfo;
};
};
};
},
{
glyphname = P;
lastChange = "2023-05-19 14:03:36 +0000";
layers = (
{
anchors = (
{
name = bottom;
position = "{261, 0}";
},
{
name = top;
position = "{385, 700}";
}
);
layerId = "A390C1A2-E540-434D-BB9E-4BCEE875BA63";
paths = (
{
closed = 1;
nodes = (
"172 0 LINE",
"216 250 LINE",
"332 250 LINE SMOOTH",
"511 250 OFFCURVE",
"609 358 OFFCURVE",
"630 474 CURVE SMOOTH",
"653 603 OFFCURVE",
"584 700 OFFCURVE",
"412 700 CURVE SMOOTH",
"125 700 LINE",
"1 0 LINE"
);
},
{
closed = 1;
nodes = (
"271 562 LINE",
"374 562 LINE SMOOTH",
"442 562 OFFCURVE",
"465 528 OFFCURVE",
"456 474 CURVE SMOOTH",
"446 420 OFFCURVE",
"411 386 OFFCURVE",
"343 386 CURVE SMOOTH",
"240 386 LINE"
);
}
);
width = 610;
},
{
anchors = (
{
name = bottom;
position = "{223, 0}";
},
{
name = top;
position = "{347, 700}";
}
);
layerId = "F5F01D5B-AEA3-4AC3-B3D8-92550D1582D7";
paths = (
{
closed = 1;
nodes = (
"85 0 LINE",
"137 292 LINE",
"283 292 LINE SMOOTH",
"449 292 OFFCURVE",
"538 382 OFFCURVE",
"558 496 CURVE SMOOTH",
"578 612 OFFCURVE",
"519 700 OFFCURVE",
"355 700 CURVE SMOOTH",
"125 700 LINE",
"1 0 LINE"
);
},
{
closed = 1;
nodes = (
"196 630 LINE",
"340 630 LINE SMOOTH",
"451 630 OFFCURVE",
"487 581 OFFCURVE",
"472 496 CURVE SMOOTH",
"457 414 OFFCURVE",
"404 363 OFFCURVE",
"293 363 CURVE SMOOTH",
"149 363 LINE"
);
}
);
width = 534;
},
{
anchors = (
{
name = bottom;
position = "{217, 0}";
},
{
name = top;
position = "{341, 700}";
}
);
layerId = "3B8883BF-F483-4B97-AC7C-CABF8B821093";
paths = (
{
closed = 1;
nodes = (
"71 0 LINE",
"124 299 LINE",
"275 299 LINE SMOOTH",
"439 299 OFFCURVE",
"526 386 OFFCURVE",
"546 499 CURVE SMOOTH",
"567 614 OFFCURVE",
"508 700 OFFCURVE",
"346 700 CURVE SMOOTH",
"125 700 LINE",
"1 0 LINE"
);
},
{
closed = 1;
nodes = (
"184 641 LINE",
"335 641 LINE SMOOTH",
"453 641 OFFCURVE",
"490 589 OFFCURVE",
"474 499 CURVE SMOOTH",
"459 413 OFFCURVE",
"404 359 OFFCURVE",
"286 359 CURVE SMOOTH",
"135 359 LINE"
);
}
);
width = 522;
},
{
anchors = (
{
name = bottom;
position = "{196, 0}";
},
{
name = top;
position = "{320, 700}";
}
);
layerId = "5D382461-81E1-4DF2-8677-8A6F02AD5363";
paths = (
{
closed = 1;
nodes = (
"22 0 LINE",
"79 324 LINE",
"246 324 LINE SMOOTH",
"406 324 OFFCURVE",
"486 399 OFFCURVE",
"505 511 CURVE SMOOTH",
"525 623 OFFCURVE",
"473 700 OFFCURVE",
"310 700 CURVE SMOOTH",
"125 700 LINE",
"1 0 LINE"
);
},
{
closed = 1;
nodes = (
"142 682 LINE",
"312 682 LINE SMOOTH",
"440 682 OFFCURVE",
"506 633 OFFCURVE",
"485 513 CURVE SMOOTH",
"465 401 OFFCURVE",
"380 342 OFFCURVE",
"252 342 CURVE SMOOTH",
"82 342 LINE"
);
}
);
width = 479;
},
{
anchors = (
{
name = bottom;
position = "{234, 0}";
},
{
name = top;
position = "{481, 700}";
}
);
layerId = "1615C59E-33DE-4B88-B2CC-A48C7D56A125";
paths = (
{
closed = 1;
nodes = (
"197 0 LINE",
"239 236 LINE",
"350 236 LINE SMOOTH",
"533 236 OFFCURVE",
"632 347 OFFCURVE",
"654 467 CURVE SMOOTH",
"677 600 OFFCURVE",
"608 700 OFFCURVE",
"432 700 CURVE SMOOTH",
"150 700 LINE",
"26 0 LINE"
);
},
{
closed = 1;
nodes = (
"296 562 LINE",
"394 562 LINE SMOOTH",
"466 562 OFFCURVE",
"490 525 OFFCURVE",
"480 467 CURVE SMOOTH",
"469 409 OFFCURVE",
"433 372 OFFCURVE",
"361 372 CURVE SMOOTH",
"263 372 LINE"
);
}
);
width = 652;
},
{
anchors = (
{
name = bottom;
position = "{262, 0}";
},
{
name = top;
position = "{385, 700}";
}
);
layerId = "A6F5E7A4-47EF-4F55-BF18-0ACACB57A720";
paths = (
{
closed = 1;
nodes = (
"115 0 LINE",
"164 278 LINE",
"305 278 LINE SMOOTH",
"474 278 OFFCURVE",
"566 371 OFFCURVE",
"587 489 CURVE SMOOTH",
"607 608 OFFCURVE",
"547 700 OFFCURVE",
"380 700 CURVE SMOOTH",
"155 700 LINE",
"31 0 LINE"
);
},
{
closed = 1;
nodes = (
"226 630 LINE",
"366 630 LINE SMOOTH",
"483 630 OFFCURVE",
"516 577 OFFCURVE",
"501 489 CURVE SMOOTH",
"486 405 OFFCURVE",
"434 349 OFFCURVE",
"317 349 CURVE SMOOTH",
"177 349 LINE"
);
}
);
width = 585;
},
{
anchors = (
{
name = bottom;
position = "{246, 0}";
},
{
name = top;
position = "{369, 700}";
}
);
layerId = "2D111E5E-352D-4630-9162-BCEF010D26CF";
paths = (
{
closed = 1;
nodes = (
"108 0 LINE",
"159 285 LINE",
"305 285 LINE SMOOTH",
"473 285 OFFCURVE",
"561 375 OFFCURVE",
"582 493 CURVE SMOOTH",
"603 611 OFFCURVE",
"544 700 OFFCURVE",
"378 700 CURVE SMOOTH",
"162 700 LINE",
"38 0 LINE"
);
},
{
closed = 1;
nodes = (
"221 641 LINE",
"366 641 LINE SMOOTH",
"486 641 OFFCURVE",
"527 587 OFFCURVE",
"510 493 CURVE SMOOTH",
"494 401 OFFCURVE",
"434 344 OFFCURVE",
"314 344 CURVE SMOOTH",
"169 344 LINE"
);
}
);
width = 584;
},
{
anchors = (
{
name = bottom;
position = "{219, 0}";
},
{
name = top;
position = "{342, 700}";
}
);
layerId = "EB62C368-BB48-47C0-A466-DA94204A0DE4";
paths = (
{
closed = 1;
nodes = (
"52 0 LINE",
"107 309 LINE",
"270 309 LINE SMOOTH",
"433 309 OFFCURVE",
"514 388 OFFCURVE",
"534 505 CURVE SMOOTH",
"554 618 OFFCURVE",
"503 700 OFFCURVE",
"339 700 CURVE SMOOTH",
"156 700 LINE",
"32 0 LINE"
);
},
{
closed = 1;
nodes = (
"172 682 LINE",
"343 682 LINE SMOOTH",
"478 682 OFFCURVE",
"534 621 OFFCURVE",
"513 505 CURVE SMOOTH",
"493 389 OFFCURVE",
"414 327 OFFCURVE",
"276 327 CURVE SMOOTH",
"110 327 LINE"
);
}
);
width = 530;
},
{
anchors = (
{
name = bottom;
position = "{275, 0}";
},
{
name = top;
position = "{399, 700}";
}
);
layerId = "66953C5E-8AEB-4AF5-804F-512B0A9BA4E6";
paths = (
{
closed = 1;
nodes = (
"190 0 LINE",
"234 250 LINE",
"350 250 LINE SMOOTH",
"525 250 OFFCURVE",
"652 348 OFFCURVE",
"652 505 CURVE SMOOTH",
"652 610 OFFCURVE",
"580 700 OFFCURVE",
"429 700 CURVE SMOOTH",
"142 700 LINE",
"19 0 LINE"
);
},
{
closed = 1;
nodes = (
"289 562 LINE",
"392 562 LINE SMOOTH",
"450 562 OFFCURVE",
"476 538 OFFCURVE",
"476 491 CURVE SMOOTH",
"476 429 OFFCURVE",
"432 386 OFFCURVE",
"361 386 CURVE SMOOTH",
"258 386 LINE"
);
}
);
width = 638;
},
{
anchors = (
{
name = bottom;
position = "{240, 0}";
},
{
name = top;
position = "{364, 700}";
}
);
layerId = "90D50F69-F6F7-4633-9462-ED0440D3064F";
paths = (
{
closed = 1;
nodes = (
"54 0 LINE",
"111 324 LINE",
"279 324 LINE SMOOTH",
"442 324 OFFCURVE",
"519 399 OFFCURVE",
"538 511 CURVE SMOOTH",
"558 623 OFFCURVE",
"509 700 OFFCURVE",
"346 700 CURVE SMOOTH",
"158 700 LINE",
"34 0 LINE"
);
},
{
closed = 1;
nodes = (
"175 682 LINE",
"345 682 LINE SMOOTH",
"473 682 OFFCURVE",
"538 627 OFFCURVE",
"517 511 CURVE SMOOTH",
"497 395 OFFCURVE",
"413 342 OFFCURVE",
"285 342 CURVE SMOOTH",
"115 342 LINE"
);
}
);
width = 531;
},
{
anchors = (
{
name = bottom;
position = "{243, 0}";
},
{
name = top;
position = "{367, 700}";
}
);
layerId = "973C19EE-3504-4BDF-BF6D-4817D3AD4E7D";
paths = (
{
closed = 1;
nodes = (
"103 0 LINE",
"156 299 LINE",
"307 299 LINE SMOOTH",
"471 299 OFFCURVE",
"582 383 OFFCURVE",
"582 528 CURVE SMOOTH",
"582 621 OFFCURVE",
"519 700 OFFCURVE",
"377 700 CURVE SMOOTH",
"156 700 LINE",
"33 0 LINE"
);
},
{
closed = 1;
nodes = (
"216 641 LINE",
"367 641 LINE SMOOTH",
"467 641 OFFCURVE",
"509 590 OFFCURVE",
"509 523 CURVE SMOOTH",
"509 411 OFFCURVE",
"439 359 OFFCURVE",
"317 359 CURVE SMOOTH",
"166 359 LINE"
);
}
);
width = 574;
},
{
anchors = (
{
name = bottom;
position = "{248, 0}";
},
{
name = top;
position = "{372, 700}";
}
);
layerId = "8231B9DE-059C-4C71-A8C4-ABDA89A7D05C";
paths = (
{
closed = 1;
nodes = (
"115 0 LINE",
"167 292 LINE",
"313 292 LINE SMOOTH",
"478 292 OFFCURVE",
"592 378 OFFCURVE",
"592 525 CURVE SMOOTH",
"592 619 OFFCURVE",
"527 700 OFFCURVE",
"384 700 CURVE SMOOTH",
"154 700 LINE",
"31 0 LINE"
);
},
{
closed = 1;
nodes = (
"226 630 LINE",
"370 630 LINE SMOOTH",
"465 630 OFFCURVE",
"504 583 OFFCURVE",
"504 519 CURVE SMOOTH",
"504 413 OFFCURVE",
"438 363 OFFCURVE",
"323 363 CURVE SMOOTH",
"179 363 LINE"
);
}
);
width = 583;
}
);
leftKerningGroup = H;
leftMetricsKey = H;
unicode = 0050;
userData = {
com.schriftgestaltung.Glyphs.ColorIndex = 4;
com.typesupply.AccentFactory.yCoordinates = {
bottom = {
name = origin;
type = glyphMetric;
};
top = {
name = capHeight;
type = fontInfo;
};
};
};
},
{
glyphname = Thorn;
lastChange = "2023-05-19 14:03:36 +0000";
layers = (
{
layerId = "A390C1A2-E540-434D-BB9E-4BCEE875BA63";
paths = (
{
closed = 1;
nodes = (
"172 0 LINE",
"194 125 LINE",
"310 125 LINE SMOOTH",
"489 125 OFFCURVE",
"587 233 OFFCURVE",
"608 349 CURVE SMOOTH",
"631 478 OFFCURVE",
"562 575 OFFCURVE",
"390 575 CURVE SMOOTH",
"274 575 LINE",
"296 700 LINE",
"125 700 LINE",
"1 0 LINE"
);
},
{
closed = 1;
nodes = (
"249 437 LINE",
"352 437 LINE SMOOTH",
"420 437 OFFCURVE",
"443 403 OFFCURVE",
"434 349 CURVE SMOOTH",
"424 295 OFFCURVE",
"389 261 OFFCURVE",
"321 261 CURVE SMOOTH",
"218 261 LINE"
);
}
);
width = 610;
},
{
layerId = "F5F01D5B-AEA3-4AC3-B3D8-92550D1582D7";
paths = (
{
closed = 1;
nodes = (
"85 0 LINE",
"111 147 LINE",
"257 147 LINE SMOOTH",
"423 147 OFFCURVE",
"512 236 OFFCURVE",
"532 350 CURVE SMOOTH",
"553 467 OFFCURVE",
"493 554 OFFCURVE",
"329 554 CURVE SMOOTH",
"183 554 LINE",
"209 700 LINE",
"125 700 LINE",
"1 0 LINE"
);
},
{
closed = 1;
nodes = (
"171 484 LINE",
"315 484 LINE SMOOTH",
"426 484 OFFCURVE",
"461 435 OFFCURVE",
"446 350 CURVE SMOOTH",
"432 268 OFFCURVE",
"379 217 OFFCURVE",
"268 217 CURVE SMOOTH",
"124 217 LINE"
);
}
);
width = 534;
},
{
layerId = "3B8883BF-F483-4B97-AC7C-CABF8B821093";
paths = (
{
closed = 1;
nodes = (
"71 0 LINE",
"98 151 LINE",
"249 151 LINE SMOOTH",
"413 151 OFFCURVE",
"500 236 OFFCURVE",
"520 350 CURVE SMOOTH",
"540 465 OFFCURVE",
"481 551 OFFCURVE",
"319 551 CURVE SMOOTH",
"168 551 LINE",
"195 700 LINE",
"125 700 LINE",
"1 0 LINE"
);
},
{
closed = 1;
nodes = (
"158 492 LINE",
"309 492 LINE SMOOTH",
"427 492 OFFCURVE",
"464 440 OFFCURVE",
"448 350 CURVE SMOOTH",
"433 264 OFFCURVE",
"377 210 OFFCURVE",
"259 210 CURVE SMOOTH",
"108 210 LINE"
);
}
);
width = 522;
},
{
layerId = "5D382461-81E1-4DF2-8677-8A6F02AD5363";
paths = (
{
closed = 1;
nodes = (
"21 0 LINE",
"50 163 LINE",
"218 163 LINE SMOOTH",
"374 163 OFFCURVE",
"456 238 OFFCURVE",
"476 351 CURVE SMOOTH",
"495 459 OFFCURVE",
"449 539 OFFCURVE",
"284 539 CURVE SMOOTH",
"116 539 LINE",
"145 700 LINE",
"125 700 LINE",
"1 0 LINE"
);
},
{
closed = 1;
nodes = (
"113 521 LINE",
"275 521 LINE SMOOTH",
"421 521 OFFCURVE",
"475 460 OFFCURVE",
"456 351 CURVE SMOOTH",
"437 243 OFFCURVE",
"361 181 OFFCURVE",
"218 181 CURVE SMOOTH",
"53 181 LINE"
);
}
);
width = 478;
},
{
layerId = "1615C59E-33DE-4B88-B2CC-A48C7D56A125";
paths = (
{
closed = 1;
nodes = (
"197 0 LINE",
"219 125 LINE",
"335 125 LINE SMOOTH",
"514 125 OFFCURVE",
"612 233 OFFCURVE",
"633 349 CURVE SMOOTH",
"656 478 OFFCURVE",
"587 575 OFFCURVE",
"415 575 CURVE SMOOTH",
"299 575 LINE",
"321 700 LINE",
"150 700 LINE",
"26 0 LINE"
);
},
{
closed = 1;
nodes = (
"274 437 LINE",
"377 437 LINE SMOOTH",
"445 437 OFFCURVE",
"468 403 OFFCURVE",
"459 349 CURVE SMOOTH",
"449 295 OFFCURVE",
"414 261 OFFCURVE",
"346 261 CURVE SMOOTH",
"243 261 LINE"
);
}
);
width = 652;
},
{
layerId = "A6F5E7A4-47EF-4F55-BF18-0ACACB57A720";
paths = (
{
closed = 1;
nodes = (
"115 0 LINE",
"141 147 LINE",
"287 147 LINE SMOOTH",
"453 147 OFFCURVE",
"542 236 OFFCURVE",
"562 350 CURVE SMOOTH",
"583 467 OFFCURVE",
"523 554 OFFCURVE",
"359 554 CURVE SMOOTH",
"213 554 LINE",
"239 700 LINE",
"155 700 LINE",
"31 0 LINE"
);
},
{
closed = 1;
nodes = (
"201 484 LINE",
"345 484 LINE SMOOTH",
"456 484 OFFCURVE",
"491 435 OFFCURVE",
"476 350 CURVE SMOOTH",
"462 268 OFFCURVE",
"409 217 OFFCURVE",
"298 217 CURVE SMOOTH",
"154 217 LINE"
);
}
);
width = 585;
},
{
layerId = "2D111E5E-352D-4630-9162-BCEF010D26CF";
paths = (
{
closed = 1;
nodes = (
"108 0 LINE",
"135 151 LINE",
"286 151 LINE SMOOTH",
"450 151 OFFCURVE",
"537 236 OFFCURVE",
"557 350 CURVE SMOOTH",
"577 465 OFFCURVE",
"518 551 OFFCURVE",
"356 551 CURVE SMOOTH",
"205 551 LINE",
"232 700 LINE",
"162 700 LINE",
"38 0 LINE"
);
},
{
closed = 1;
nodes = (
"195 492 LINE",
"346 492 LINE SMOOTH",
"464 492 OFFCURVE",
"501 440 OFFCURVE",
"485 350 CURVE SMOOTH",
"470 264 OFFCURVE",
"414 210 OFFCURVE",
"296 210 CURVE SMOOTH",
"145 210 LINE"
);
}
);
width = 585;
},
{
layerId = "EB62C368-BB48-47C0-A466-DA94204A0DE4";
paths = (
{
closed = 1;
nodes = (
"52 0 LINE",
"81 163 LINE",
"249 163 LINE SMOOTH",
"405 163 OFFCURVE",
"487 238 OFFCURVE",
"507 351 CURVE SMOOTH",
"526 459 OFFCURVE",
"480 539 OFFCURVE",
"315 539 CURVE SMOOTH",
"147 539 LINE",
"176 700 LINE",
"156 700 LINE",
"32 0 LINE"
);
},
{
closed = 1;
nodes = (
"144 521 LINE",
"306 521 LINE SMOOTH",
"452 521 OFFCURVE",
"506 460 OFFCURVE",
"487 351 CURVE SMOOTH",
"468 243 OFFCURVE",
"392 181 OFFCURVE",
"249 181 CURVE SMOOTH",
"84 181 LINE"
);
}
);
width = 530;
},
{
layerId = "66953C5E-8AEB-4AF5-804F-512B0A9BA4E6";
paths = (
{
closed = 1;
nodes = (
"190 0 LINE",
"212 125 LINE",
"328 125 LINE SMOOTH",
"503 125 OFFCURVE",
"630 224 OFFCURVE",
"630 381 CURVE SMOOTH",
"630 486 OFFCURVE",
"558 575 OFFCURVE",
"407 575 CURVE SMOOTH",
"291 575 LINE",
"313 700 LINE",
"142 700 LINE",
"19 0 LINE"
);
},
{
closed = 1;
nodes = (
"267 437 LINE",
"370 437 LINE SMOOTH",
"428 437 OFFCURVE",
"454 412 OFFCURVE",
"454 371 CURVE SMOOTH",
"454 303 OFFCURVE",
"410 261 OFFCURVE",
"339 261 CURVE SMOOTH",
"236 261 LINE"
);
}
);
width = 638;
},
{
layerId = "90D50F69-F6F7-4633-9462-ED0440D3064F";
paths = (
{
closed = 1;
nodes = (
"54 0 LINE",
"83 163 LINE",
"251 163 LINE SMOOTH",
"407 163 OFFCURVE",
"489 238 OFFCURVE",
"509 351 CURVE SMOOTH",
"528 459 OFFCURVE",
"482 539 OFFCURVE",
"317 539 CURVE SMOOTH",
"149 539 LINE",
"178 700 LINE",
"158 700 LINE",
"34 0 LINE"
);
},
{
closed = 1;
nodes = (
"146 521 LINE",
"308 521 LINE SMOOTH",
"454 521 OFFCURVE",
"508 460 OFFCURVE",
"489 351 CURVE SMOOTH",
"470 243 OFFCURVE",
"394 181 OFFCURVE",
"251 181 CURVE SMOOTH",
"86 181 LINE"
);
}
);
width = 530;
},
{
layerId = "973C19EE-3504-4BDF-BF6D-4817D3AD4E7D";
paths = (
{
closed = 1;
nodes = (
"103 0 LINE",
"129 150 LINE",
"280 150 LINE SMOOTH",
"445 150 OFFCURVE",
"556 241 OFFCURVE",
"556 383 CURVE SMOOTH",
"556 479 OFFCURVE",
"493 551 OFFCURVE",
"351 551 CURVE SMOOTH",
"200 551 LINE",
"226 700 LINE",
"156 700 LINE",
"33 0 LINE"
);
},
{
closed = 1;
nodes = (
"190 492 LINE",
"341 492 LINE SMOOTH",
"441 492 OFFCURVE",
"483 454 OFFCURVE",
"483 384 CURVE SMOOTH",
"483 275 OFFCURVE",
"413 210 OFFCURVE",
"291 210 CURVE SMOOTH",
"140 210 LINE"
);
}
);
width = 573;
},
{
layerId = "8231B9DE-059C-4C71-A8C4-ABDA89A7D05C";
paths = (
{
closed = 1;
nodes = (
"115 0 LINE",
"141 147 LINE",
"287 147 LINE SMOOTH",
"453 147 OFFCURVE",
"566 239 OFFCURVE",
"566 383 CURVE SMOOTH",
"566 480 OFFCURVE",
"502 554 OFFCURVE",
"359 554 CURVE SMOOTH",
"213 554 LINE",
"238 700 LINE",
"154 700 LINE",
"31 0 LINE"
);
},
{
closed = 1;
nodes = (
"201 484 LINE",
"345 484 LINE SMOOTH",
"439 484 OFFCURVE",
"479 448 OFFCURVE",
"479 382 CURVE SMOOTH",
"479 279 OFFCURVE",
"413 217 OFFCURVE",
"298 217 CURVE SMOOTH",
"153 217 LINE"
);
}
);
width = 582;
}
);
leftKerningGroup = H;
leftMetricsKey = H;
rightMetricsKey = P;
unicode = 00DE;
userData = {
com.schriftgestaltung.Glyphs.ColorIndex = 4;
};
},
{
glyphname = Q;
lastChange = "2023-05-19 14:03:36 +0000";
layers = (
{
components = (
{
alignment = -1;
name = O;
}
);
layerId = "EB62C368-BB48-47C0-A466-DA94204A0DE4";
paths = (
{
closed = 1;
nodes = (
"537 -86 LINE",
"388 266 LINE",
"366 266 LINE",
"515 -86 LINE"
);
}
);
width = 725;
},
{
components = (
{
alignment = -1;
name = O;
}
);
layerId = "2D111E5E-352D-4630-9162-BCEF010D26CF";
paths = (
{
closed = 1;
nodes = (
"568 -93 LINE",
"415 271 LINE",
"337 271 LINE",
"489 -93 LINE"
);
}
);
width = 748;
},
{
components = (
{
alignment = -1;
name = O;
}
);
layerId = "A6F5E7A4-47EF-4F55-BF18-0ACACB57A720";
paths = (
{
closed = 1;
nodes = (
"601 -95 LINE",
"446 273 LINE",
"350 273 LINE",
"506 -95 LINE"
);
}
);
width = 746;
},
{
components = (
{
alignment = -1;
name = O;
}
);
layerId = "1615C59E-33DE-4B88-B2CC-A48C7D56A125";
paths = (
{
closed = 1;
nodes = (
"632 -120 LINE",
"473 305 LINE",
"291 305 LINE",
"450 -120 LINE"
);
}
);
width = 767;
},
{
components = (
{
alignment = -1;
name = O;
}
);
layerId = "90D50F69-F6F7-4633-9462-ED0440D3064F";
paths = (
{
closed = 1;
nodes = (
"558 -86 LINE",
"409 266 LINE",
"387 266 LINE",
"536 -86 LINE"
);
}
);
width = 767;
},
{
components = (
{
alignment = -1;
name = O;
}
);
layerId = "973C19EE-3504-4BDF-BF6D-4817D3AD4E7D";
paths = (
{
closed = 1;
nodes = (
"590 -93 LINE",
"437 271 LINE",
"359 271 LINE",
"511 -93 LINE"
);
}
);
width = 792;
},
{
components = (
{
name = O;
}
);
layerId = "8231B9DE-059C-4C71-A8C4-ABDA89A7D05C";
paths = (
{
closed = 1;
nodes = (
"624 -95 LINE",
"469 273 LINE",
"373 273 LINE",
"529 -95 LINE"
);
}
);
width = 793;
},
{
components = (
{
alignment = -1;
name = O;
}
);
layerId = "66953C5E-8AEB-4AF5-804F-512B0A9BA4E6";
paths = (
{
closed = 1;
nodes = (
"653 -120 LINE",
"494 305 LINE",
"312 305 LINE",
"471 -120 LINE"
);
}
);
width = 813;
},
{
components = (
{
alignment = -1;
name = O;
}
);
layerId = "5D382461-81E1-4DF2-8677-8A6F02AD5363";
paths = (
{
closed = 1;
nodes = (
"547 -86 LINE",
"398 266 LINE",
"376 266 LINE",
"525 -86 LINE"
);
}
);
width = 743;
},
{
components = (
{
alignment = -1;
name = O;
}
);
layerId = "3B8883BF-F483-4B97-AC7C-CABF8B821093";
paths = (
{
closed = 1;
nodes = (
"573 -93 LINE",
"420 271 LINE",
"342 271 LINE",
"494 -93 LINE"
);
}
);
width = 756;
},
{
components = (
{
name = O;
}
);
layerId = "F5F01D5B-AEA3-4AC3-B3D8-92550D1582D7";
paths = (
{
closed = 1;
nodes = (
"608 -95 LINE",
"453 273 LINE",
"357 273 LINE",
"513 -95 LINE"
);
}
);
width = 760;
},
{
components = (
{
alignment = -1;
name = O;
}
);
layerId = "A390C1A2-E540-434D-BB9E-4BCEE875BA63";
paths = (
{
closed = 1;
nodes = (
"639 -120 LINE",
"480 305 LINE",
"298 305 LINE",
"457 -120 LINE"
);
}
);
width = 782;
}
);
leftKerningGroup = O;
leftMetricsKey = O;
rightMetricsKey = O;
unicode = 0051;
},
{
glyphname = R;
lastChange = "2023-05-19 14:03:36 +0000";
layers = (
{
anchors = (
{
name = bottom;
position = "{262, 0}";
},
{
name = top;
position = "{386, 700}";
}
);
layerId = "A390C1A2-E540-434D-BB9E-4BCEE875BA63";
paths = (
{
closed = 1;
nodes = (
"172 0 LINE",
"219 263 LINE",
"335 263 LINE SMOOTH",
"515 263 OFFCURVE",
"611 367 OFFCURVE",
"631 479 CURVE SMOOTH",
"652 601 OFFCURVE",
"584 700 OFFCURVE",
"412 700 CURVE SMOOTH",
"125 700 LINE",
"1 0 LINE"
);
},
{
closed = 1;
nodes = (
"552 0 LINE",
"459 304 LINE",
"276 304 LINE",
"359 0 LINE"
);
},
{
closed = 1;
nodes = (
"271 558 LINE",
"377 558 LINE SMOOTH",
"441 558 OFFCURVE",
"465 524 OFFCURVE",
"456 472 CURVE SMOOTH",
"446 417 OFFCURVE",
"410 384 OFFCURVE",
"346 384 CURVE SMOOTH",
"240 384 LINE"
);
}
);
width = 621;
},
{
anchors = (
{
name = bottom;
position = "{221, 0}";
},
{
name = top;
position = "{345, 700}";
}
);
layerId = "F5F01D5B-AEA3-4AC3-B3D8-92550D1582D7";
paths = (
{
closed = 1;
nodes = (
"85 0 LINE",
"136 289 LINE",
"274 289 LINE SMOOTH",
"440 289 OFFCURVE",
"531 383 OFFCURVE",
"551 495 CURVE SMOOTH",
"571 610 OFFCURVE",
"514 700 OFFCURVE",
"351 700 CURVE SMOOTH",
"125 700 LINE",
"1 0 LINE"
);
},
{
closed = 1;
nodes = (
"470 0 LINE",
"366 313 LINE",
"279 313 LINE",
"378 0 LINE"
);
},
{
closed = 1;
nodes = (
"196 629 LINE",
"331 629 LINE SMOOTH",
"442 629 OFFCURVE",
"478 577 OFFCURVE",
"463 494 CURVE SMOOTH",
"449 413 OFFCURVE",
"391 355 OFFCURVE",
"284 355 CURVE SMOOTH",
"148 355 LINE"
);
}
);
width = 539;
},
{
anchors = (
{
name = bottom;
position = "{214, 0}";
},
{
name = top;
position = "{338, 700}";
}
);
layerId = "3B8883BF-F483-4B97-AC7C-CABF8B821093";
paths = (
{
closed = 1;
nodes = (
"71 0 LINE",
"123 293 LINE",
"264 293 LINE SMOOTH",
"428 293 OFFCURVE",
"517 385 OFFCURVE",
"537 497 CURVE SMOOTH",
"557 612 OFFCURVE",
"503 700 OFFCURVE",
"341 700 CURVE SMOOTH",
"125 700 LINE",
"1 0 LINE"
);
},
{
closed = 1;
nodes = (
"457 0 LINE",
"352 315 LINE",
"275 315 LINE",
"376 0 LINE"
);
},
{
closed = 1;
nodes = (
"184 641 LINE",
"324 641 LINE SMOOTH",
"442 641 OFFCURVE",
"480 585 OFFCURVE",
"465 497 CURVE SMOOTH",
"450 412 OFFCURVE",
"388 350 OFFCURVE",
"274 350 CURVE SMOOTH",
"133 350 LINE"
);
}
);
width = 526;
},
{
anchors = (
{
name = bottom;
position = "{191, 0}";
},
{
name = top;
position = "{315, 700}";
}
);
layerId = "5D382461-81E1-4DF2-8677-8A6F02AD5363";
paths = (
{
closed = 1;
nodes = (
"21 0 LINE",
"76 309 LINE",
"231 309 LINE SMOOTH",
"394 309 OFFCURVE",
"470 384 OFFCURVE",
"492 506 CURVE SMOOTH",
"511 618 OFFCURVE",
"463 700 OFFCURVE",
"300 700 CURVE SMOOTH",
"125 700 LINE",
"1 0 LINE"
);
},
{
closed = 1;
nodes = (
"409 0 LINE",
"299 322 LINE",
"277 322 LINE",
"387 0 LINE"
);
},
{
closed = 1;
nodes = (
"142 682 LINE",
"299 682 LINE SMOOTH",
"427 682 OFFCURVE",
"491 622 OFFCURVE",
"471 506 CURVE SMOOTH",
"448 380 OFFCURVE",
"364 327 OFFCURVE",
"236 327 CURVE SMOOTH",
"79 327 LINE"
);
}
);
width = 478;
},
{
anchors = (
{
name = bottom;
position = "{244, 0}";
},
{
name = top;
position = "{368, 700}";
}
);
layerId = "1615C59E-33DE-4B88-B2CC-A48C7D56A125";
paths = (
{
closed = 1;
nodes = (
"197 0 LINE",
"244 263 LINE",
"360 263 LINE SMOOTH",
"540 263 OFFCURVE",
"636 367 OFFCURVE",
"656 479 CURVE SMOOTH",
"677 601 OFFCURVE",
"609 700 OFFCURVE",
"437 700 CURVE SMOOTH",
"150 700 LINE",
"26 0 LINE"
);
},
{
closed = 1;
nodes = (
"577 0 LINE",
"484 304 LINE",
"301 304 LINE",
"384 0 LINE"
);
},
{
closed = 1;
nodes = (
"296 558 LINE",
"402 558 LINE SMOOTH",
"466 558 OFFCURVE",
"490 524 OFFCURVE",
"481 472 CURVE SMOOTH",
"471 417 OFFCURVE",
"435 384 OFFCURVE",
"371 384 CURVE SMOOTH",
"265 384 LINE"
);
}
);
width = 669;
},
{
anchors = (
{
name = bottom;
position = "{269, 0}";
},
{
name = top;
position = "{392, 700}";
}
);
layerId = "A6F5E7A4-47EF-4F55-BF18-0ACACB57A720";
paths = (
{
closed = 1;
nodes = (
"115 0 LINE",
"166 289 LINE",
"304 289 LINE SMOOTH",
"470 289 OFFCURVE",
"561 383 OFFCURVE",
"581 495 CURVE SMOOTH",
"601 610 OFFCURVE",
"544 700 OFFCURVE",
"381 700 CURVE SMOOTH",
"155 700 LINE",
"31 0 LINE"
);
},
{
closed = 1;
nodes = (
"500 0 LINE",
"396 313 LINE",
"307 313 LINE",
"406 0 LINE"
);
},
{
closed = 1;
nodes = (
"226 629 LINE",
"361 629 LINE SMOOTH",
"472 629 OFFCURVE",
"508 577 OFFCURVE",
"493 494 CURVE SMOOTH",
"479 413 OFFCURVE",
"421 355 OFFCURVE",
"314 355 CURVE SMOOTH",
"178 355 LINE"
);
}
);
width = 598;
},
{
anchors = (
{
name = bottom;
position = "{253, 0}";
},
{
name = top;
position = "{376, 700}";
}
);
layerId = "2D111E5E-352D-4630-9162-BCEF010D26CF";
paths = (
{
closed = 1;
nodes = (
"108 0 LINE",
"160 293 LINE",
"302 293 LINE SMOOTH",
"467 293 OFFCURVE",
"554 383 OFFCURVE",
"574 497 CURVE SMOOTH",
"594 612 OFFCURVE",
"540 700 OFFCURVE",
"377 700 CURVE SMOOTH",
"162 700 LINE",
"38 0 LINE"
);
},
{
closed = 1;
nodes = (
"494 0 LINE",
"389 315 LINE",
"314 315 LINE",
"415 0 LINE"
);
},
{
closed = 1;
nodes = (
"221 641 LINE",
"361 641 LINE SMOOTH",
"475 641 OFFCURVE",
"518 587 OFFCURVE",
"502 497 CURVE SMOOTH",
"486 406 OFFCURVE",
"422 349 OFFCURVE",
"310 349 CURVE SMOOTH",
"170 349 LINE"
);
}
);
width = 597;
},
{
anchors = (
{
name = bottom;
position = "{224, 0}";
},
{
name = top;
position = "{347, 700}";
}
);
layerId = "EB62C368-BB48-47C0-A466-DA94204A0DE4";
paths = (
{
closed = 1;
nodes = (
"52 0 LINE",
"107 309 LINE",
"262 309 LINE SMOOTH",
"425 309 OFFCURVE",
"501 384 OFFCURVE",
"523 506 CURVE SMOOTH",
"542 618 OFFCURVE",
"494 700 OFFCURVE",
"331 700 CURVE SMOOTH",
"156 700 LINE",
"32 0 LINE"
);
},
{
closed = 1;
nodes = (
"440 0 LINE",
"330 322 LINE",
"308 322 LINE",
"418 0 LINE"
);
},
{
closed = 1;
nodes = (
"173 682 LINE",
"329 682 LINE SMOOTH",
"458 682 OFFCURVE",
"523 622 OFFCURVE",
"502 506 CURVE SMOOTH",
"481 389 OFFCURVE",
"395 327 OFFCURVE",
"266 327 CURVE SMOOTH",
"110 327 LINE"
);
}
);
width = 540;
},
{
anchors = (
{
name = bottom;
position = "{278, 0}";
},
{
name = top;
position = "{371, 700}";
}
);
layerId = "66953C5E-8AEB-4AF5-804F-512B0A9BA4E6";
paths = (
{
closed = 1;
nodes = (
"190 0 LINE",
"236 263 LINE",
"352 263 LINE SMOOTH",
"527 263 OFFCURVE",
"652 358 OFFCURVE",
"652 508 CURVE SMOOTH",
"652 610 OFFCURVE",
"575 700 OFFCURVE",
"423 700 CURVE SMOOTH",
"142 700 LINE",
"19 0 LINE"
);
},
{
closed = 1;
nodes = (
"570 0 LINE",
"477 304 LINE",
"300 304 LINE",
"383 0 LINE"
);
},
{
closed = 1;
nodes = (
"288 558 LINE",
"394 558 LINE SMOOTH",
"450 558 OFFCURVE",
"475 532 OFFCURVE",
"475 489 CURVE SMOOTH",
"475 426 OFFCURVE",
"431 384 OFFCURVE",
"364 384 CURVE SMOOTH",
"258 384 LINE"
);
}
);
width = 653;
},
{
anchors = (
{
name = bottom;
position = "{226, 0}";
},
{
name = top;
position = "{350, 700}";
}
);
layerId = "90D50F69-F6F7-4633-9462-ED0440D3064F";
paths = (
{
closed = 1;
nodes = (
"54 0 LINE",
"109 309 LINE",
"264 309 LINE SMOOTH",
"427 309 OFFCURVE",
"503 384 OFFCURVE",
"525 506 CURVE SMOOTH",
"544 618 OFFCURVE",
"496 700 OFFCURVE",
"333 700 CURVE SMOOTH",
"158 700 LINE",
"34 0 LINE"
);
},
{
closed = 1;
nodes = (
"443 0 LINE",
"333 322 LINE",
"310 322 LINE",
"420 0 LINE"
);
},
{
closed = 1;
nodes = (
"175 682 LINE",
"332 682 LINE SMOOTH",
"460 682 OFFCURVE",
"524 622 OFFCURVE",
"504 506 CURVE SMOOTH",
"481 380 OFFCURVE",
"397 327 OFFCURVE",
"269 327 CURVE SMOOTH",
"112 327 LINE"
);
}
);
width = 541;
},
{
anchors = (
{
name = bottom;
position = "{260, 0}";
},
{
name = top;
position = "{343, 700}";
}
);
layerId = "973C19EE-3504-4BDF-BF6D-4817D3AD4E7D";
paths = (
{
closed = 1;
nodes = (
"103 0 LINE",
"155 293 LINE",
"296 293 LINE SMOOTH",
"459 293 OFFCURVE",
"572 382 OFFCURVE",
"572 526 CURVE SMOOTH",
"572 620 OFFCURVE",
"514 700 OFFCURVE",
"372 700 CURVE SMOOTH",
"156 700 LINE",
"33 0 LINE"
);
},
{
closed = 1;
nodes = (
"489 0 LINE",
"384 315 LINE",
"312 315 LINE",
"413 0 LINE"
);
},
{
closed = 1;
nodes = (
"216 641 LINE",
"356 641 LINE SMOOTH",
"458 641 OFFCURVE",
"500 587 OFFCURVE",
"500 520 CURVE SMOOTH",
"500 410 OFFCURVE",
"423 350 OFFCURVE",
"306 350 CURVE SMOOTH",
"165 350 LINE"
);
}
);
width = 584;
},
{
anchors = (
{
name = bottom;
position = "{262, 0}";
},
{
name = top;
position = "{347, 700}";
}
);
layerId = "8231B9DE-059C-4C71-A8C4-ABDA89A7D05C";
paths = (
{
closed = 1;
nodes = (
"115 0 LINE",
"166 289 LINE",
"304 289 LINE SMOOTH",
"468 289 OFFCURVE",
"583 379 OFFCURVE",
"583 524 CURVE SMOOTH",
"583 619 OFFCURVE",
"522 700 OFFCURVE",
"379 700 CURVE SMOOTH",
"154 700 LINE",
"31 0 LINE"
);
},
{
closed = 1;
nodes = (
"500 0 LINE",
"397 313 LINE",
"310 313 LINE",
"409 0 LINE"
);
},
{
closed = 1;
nodes = (
"226 629 LINE",
"361 629 LINE SMOOTH",
"457 629 OFFCURVE",
"497 579 OFFCURVE",
"497 516 CURVE SMOOTH",
"497 412 OFFCURVE",
"424 355 OFFCURVE",
"314 355 CURVE SMOOTH",
"178 355 LINE"
);
}
);
width = 594;
}
);
leftKerningGroup = H;
leftMetricsKey = H;
rightKerningGroup = R;
unicode = 0052;
userData = {
com.schriftgestaltung.Glyphs.ColorIndex = 4;
com.typesupply.AccentFactory.yCoordinates = {
bottom = {
name = origin;
type = glyphMetric;
};
top = {
name = capHeight;
type = fontInfo;
};
};
};
},
{
glyphname = S;
lastChange = "2023-05-19 14:03:36 +0000";
layers = (
{
anchors = (
{
name = bottom;
position = "{246, 0}";
},
{
name = top;
position = "{370, 700}";
}
);
layerId = "A390C1A2-E540-434D-BB9E-4BCEE875BA63";
paths = (
{
closed = 1;
nodes = (
"417 -12 OFFCURVE",
"526 86 OFFCURVE",
"547 204 CURVE SMOOTH",
"571 337 OFFCURVE",
"482 382 OFFCURVE",
"381 418 CURVE SMOOTH",
"310 443 OFFCURVE",
"254 463 OFFCURVE",
"263 515 CURVE SMOOTH",
"270 552 OFFCURVE",
"304 570 OFFCURVE",
"341 569 CURVE SMOOTH",
"378 568 OFFCURVE",
"406 542 OFFCURVE",
"402 502 CURVE",
"587 502 LINE",
"603 636 OFFCURVE",
"514 712 OFFCURVE",
"367 712 CURVE SMOOTH",
"226 712 OFFCURVE",
"104 638 OFFCURVE",
"80 505 CURVE SMOOTH",
"61 398 OFFCURVE",
"116 341 OFFCURVE",
"218 305 CURVE SMOOTH",
"300 276 OFFCURVE",
"373 253 OFFCURVE",
"362 192 CURVE SMOOTH",
"355 150 OFFCURVE",
"318 131 OFFCURVE",
"277 131 CURVE SMOOTH",
"227 131 OFFCURVE",
"196 162 OFFCURVE",
"201 212 CURVE",
"19 212 LINE",
"-3 63 OFFCURVE",
"102 -12 OFFCURVE",
"253 -12 CURVE SMOOTH"
);
}
);
width = 580;
},
{
anchors = (
{
name = bottom;
position = "{225, 0}";
},
{
name = top;
position = "{349, 700}";
}
);
layerId = "F5F01D5B-AEA3-4AC3-B3D8-92550D1582D7";
paths = (
{
closed = 1;
nodes = (
"390 -12 OFFCURVE",
"480 71 OFFCURVE",
"500 176 CURVE SMOOTH",
"523 299 OFFCURVE",
"452 347 OFFCURVE",
"358 384 CURVE SMOOTH",
"236 432 OFFCURVE",
"166 448 OFFCURVE",
"180 530 CURVE SMOOTH",
"194 609 OFFCURVE",
"262 644 OFFCURVE",
"337 644 CURVE SMOOTH",
"430 643 OFFCURVE",
"464 592 OFFCURVE",
"451 518 CURVE",
"539 518 LINE",
"558 631 OFFCURVE",
"484 712 OFFCURVE",
"351 712 CURVE SMOOTH",
"215 712 OFFCURVE",
"117 634 OFFCURVE",
"98 528 CURVE SMOOTH",
"83 439 OFFCURVE",
"126 386 OFFCURVE",
"241 344 CURVE SMOOTH",
"336 310 OFFCURVE",
"437 280 OFFCURVE",
"420 186 CURVE SMOOTH",
"405 98 OFFCURVE",
"334 59 OFFCURVE",
"238 59 CURVE SMOOTH",
"127 59 OFFCURVE",
"87 128 OFFCURVE",
"101 210 CURVE",
"18 210 LINE",
"-5 77 OFFCURVE",
"78 -12 OFFCURVE",
"232 -12 CURVE SMOOTH"
);
}
);
width = 538;
},
{
anchors = (
{
name = bottom;
position = "{223, 0}";
},
{
name = top;
position = "{347, 700}";
}
);
layerId = "3B8883BF-F483-4B97-AC7C-CABF8B821093";
paths = (
{
closed = 1;
nodes = (
"385 -12 OFFCURVE",
"479 83 OFFCURVE",
"496 180 CURVE SMOOTH",
"516 295 OFFCURVE",
"454 344 OFFCURVE",
"360 378 CURVE SMOOTH",
"241 421 OFFCURVE",
"157 440 OFFCURVE",
"172 530 CURVE SMOOTH",
"185 603 OFFCURVE",
"252 652 OFFCURVE",
"334 652 CURVE SMOOTH",
"435 652 OFFCURVE",
"470 582 OFFCURVE",
"459 520 CURVE",
"531 520 LINE",
"550 630 OFFCURVE",
"480 712 OFFCURVE",
"349 712 CURVE SMOOTH",
"214 712 OFFCURVE",
"118 632 OFFCURVE",
"99 522 CURVE SMOOTH",
"85 436 OFFCURVE",
"124 387 OFFCURVE",
"226 350 CURVE SMOOTH",
"338 309 OFFCURVE",
"444 296 OFFCURVE",
"426 192 CURVE SMOOTH",
"411 105 OFFCURVE",
"343 47 OFFCURVE",
"240 47 CURVE SMOOTH",
"123 47 OFFCURVE",
"76 122 OFFCURVE",
"91 210 CURVE",
"18 210 LINE",
"-5 79 OFFCURVE",
"74 -12 OFFCURVE",
"229 -12 CURVE SMOOTH"
);
}
);
width = 533;
},
{
anchors = (
{
name = bottom;
position = "{212, 0}";
},
{
name = top;
position = "{336, 700}";
}
);
layerId = "5D382461-81E1-4DF2-8677-8A6F02AD5363";
paths = (
{
closed = 1;
nodes = (
"368 -12 OFFCURVE",
"455 71 OFFCURVE",
"474 179 CURVE SMOOTH",
"491 274 OFFCURVE",
"443 321 OFFCURVE",
"379 352 CURVE SMOOTH",
"269 405 OFFCURVE",
"111 416 OFFCURVE",
"133 544 CURVE SMOOTH",
"147 623 OFFCURVE",
"210 692 OFFCURVE",
"333 692 CURVE SMOOTH",
"433 692 OFFCURVE",
"504 650 OFFCURVE",
"482 528 CURVE",
"504 528 LINE",
"527 658 OFFCURVE",
"448 712 OFFCURVE",
"337 712 CURVE SMOOTH",
"206 712 OFFCURVE",
"128 637 OFFCURVE",
"112 550 CURVE SMOOTH",
"98 467 OFFCURVE",
"143 424 OFFCURVE",
"216 393 CURVE SMOOTH",
"321 348 OFFCURVE",
"479 330 OFFCURVE",
"454 186 CURVE SMOOTH",
"435 81 OFFCURVE",
"361 8 OFFCURVE",
"220 8 CURVE SMOOTH",
"64 8 OFFCURVE",
"17 100 OFFCURVE",
"40 210 CURVE",
"18 210 LINE",
"-5 87 OFFCURVE",
"51 -12 OFFCURVE",
"217 -12 CURVE SMOOTH"
);
}
);
width = 511;
},
{
anchors = (
{
name = bottom;
position = "{276, 0}";
},
{
name = top;
position = "{392, 700}";
}
);
layerId = "1615C59E-33DE-4B88-B2CC-A48C7D56A125";
paths = (
{
closed = 1;
nodes = (
"440 -12 OFFCURVE",
"549 86 OFFCURVE",
"570 204 CURVE SMOOTH",
"594 337 OFFCURVE",
"505 382 OFFCURVE",
"404 418 CURVE SMOOTH",
"333 443 OFFCURVE",
"277 463 OFFCURVE",
"286 515 CURVE SMOOTH",
"293 552 OFFCURVE",
"327 570 OFFCURVE",
"364 569 CURVE SMOOTH",
"401 568 OFFCURVE",
"429 542 OFFCURVE",
"425 502 CURVE",
"610 502 LINE",
"626 636 OFFCURVE",
"537 712 OFFCURVE",
"390 712 CURVE SMOOTH",
"249 712 OFFCURVE",
"127 638 OFFCURVE",
"103 505 CURVE SMOOTH",
"84 398 OFFCURVE",
"138 337 OFFCURVE",
"254 302 CURVE SMOOTH",
"337 276 OFFCURVE",
"393 238 OFFCURVE",
"385 192 CURVE SMOOTH",
"378 150 OFFCURVE",
"341 131 OFFCURVE",
"300 131 CURVE SMOOTH",
"250 131 OFFCURVE",
"219 162 OFFCURVE",
"224 212 CURVE",
"42 212 LINE",
"20 63 OFFCURVE",
"125 -12 OFFCURVE",
"276 -12 CURVE SMOOTH"
);
}
);
width = 633;
},
{
anchors = (
{
name = bottom;
position = "{263, 0}";
},
{
name = top;
position = "{386, 700}";
}
);
layerId = "A6F5E7A4-47EF-4F55-BF18-0ACACB57A720";
paths = (
{
closed = 1;
nodes = (
"410 -12 OFFCURVE",
"506 83 OFFCURVE",
"524 183 CURVE SMOOTH",
"544 301 OFFCURVE",
"479 349 OFFCURVE",
"384 384 CURVE SMOOTH",
"271 424 OFFCURVE",
"191 438 OFFCURVE",
"206 528 CURVE SMOOTH",
"219 599 OFFCURVE",
"280 641 OFFCURVE",
"356 640 CURVE SMOOTH",
"448 640 OFFCURVE",
"482 576 OFFCURVE",
"472 518 CURVE",
"560 518 LINE",
"579 631 OFFCURVE",
"505 712 OFFCURVE",
"372 712 CURVE SMOOTH",
"236 712 OFFCURVE",
"137 633 OFFCURVE",
"118 520 CURVE SMOOTH",
"102 431 OFFCURVE",
"152 381 OFFCURVE",
"262 344 CURVE SMOOTH",
"372 307 OFFCURVE",
"465 284 OFFCURVE",
"438 178 CURVE SMOOTH",
"421 110 OFFCURVE",
"360 59 OFFCURVE",
"266 59 CURVE SMOOTH",
"158 59 OFFCURVE",
"113 128 OFFCURVE",
"127 210 CURVE",
"39 210 LINE",
"16 77 OFFCURVE",
"99 -12 OFFCURVE",
"253 -12 CURVE SMOOTH"
);
}
);
width = 587;
},
{
anchors = (
{
name = bottom;
position = "{247, 0}";
},
{
name = top;
position = "{370, 700}";
}
);
layerId = "2D111E5E-352D-4630-9162-BCEF010D26CF";
paths = (
{
closed = 1;
nodes = (
"409 -12 OFFCURVE",
"502 80 OFFCURVE",
"520 182 CURVE SMOOTH",
"540 295 OFFCURVE",
"479 343 OFFCURVE",
"391 377 CURVE SMOOTH",
"279 421 OFFCURVE",
"181 433 OFFCURVE",
"198 533 CURVE SMOOTH",
"211 604 OFFCURVE",
"272 652 OFFCURVE",
"359 651 CURVE SMOOTH",
"453 651 OFFCURVE",
"495 592 OFFCURVE",
"482 520 CURVE",
"555 520 LINE",
"576 637 OFFCURVE",
"500 712 OFFCURVE",
"372 712 CURVE SMOOTH",
"237 712 OFFCURVE",
"143 634 OFFCURVE",
"124 527 CURVE SMOOTH",
"109 439 OFFCURVE",
"151 387 OFFCURVE",
"255 351 CURVE SMOOTH",
"363 313 OFFCURVE",
"466 289 OFFCURVE",
"447 178 CURVE SMOOTH",
"434 104 OFFCURVE",
"368 48 OFFCURVE",
"264 48 CURVE SMOOTH",
"145 48 OFFCURVE",
"100 122 OFFCURVE",
"116 210 CURVE",
"42 210 LINE",
"19 79 OFFCURVE",
"96 -12 OFFCURVE",
"253 -12 CURVE SMOOTH"
);
}
);
width = 586;
},
{
anchors = (
{
name = bottom;
position = "{226, 0}";
},
{
name = top;
position = "{349, 700}";
}
);
layerId = "EB62C368-BB48-47C0-A466-DA94204A0DE4";
paths = (
{
closed = 1;
nodes = (
"382 -12 OFFCURVE",
"469 71 OFFCURVE",
"488 179 CURVE SMOOTH",
"505 274 OFFCURVE",
"457 322 OFFCURVE",
"393 354 CURVE SMOOTH",
"283 408 OFFCURVE",
"125 416 OFFCURVE",
"147 544 CURVE SMOOTH",
"161 623 OFFCURVE",
"226 692 OFFCURVE",
"347 692 CURVE SMOOTH",
"447 692 OFFCURVE",
"519 650 OFFCURVE",
"497 528 CURVE",
"518 528 LINE",
"541 658 OFFCURVE",
"462 712 OFFCURVE",
"351 712 CURVE SMOOTH",
"220 712 OFFCURVE",
"142 637 OFFCURVE",
"126 550 CURVE SMOOTH",
"112 467 OFFCURVE",
"157 425 OFFCURVE",
"230 394 CURVE SMOOTH",
"335 349 OFFCURVE",
"497 335 OFFCURVE",
"466 178 CURVE SMOOTH",
"447 81 OFFCURVE",
"375 8 OFFCURVE",
"234 8 CURVE SMOOTH",
"78 8 OFFCURVE",
"30 98 OFFCURVE",
"53 210 CURVE",
"32 210 LINE",
"9 87 OFFCURVE",
"65 -12 OFFCURVE",
"231 -12 CURVE SMOOTH"
);
}
);
width = 544;
},
{
anchors = (
{
name = bottom;
position = "{267, 0}";
},
{
name = top;
position = "{391, 700}";
}
);
layerId = "66953C5E-8AEB-4AF5-804F-512B0A9BA4E6";
paths = (
{
closed = 1;
nodes = (
"441 -12 OFFCURVE",
"568 81 OFFCURVE",
"568 227 CURVE SMOOTH",
"568 329 OFFCURVE",
"488 386 OFFCURVE",
"398 418 CURVE SMOOTH",
"333 441 OFFCURVE",
"279 461 OFFCURVE",
"279 507 CURVE SMOOTH",
"279 542 OFFCURVE",
"307 569 OFFCURVE",
"353 569 CURVE SMOOTH",
"395 569 OFFCURVE",
"427 548 OFFCURVE",
"419 502 CURVE",
"604 502 LINE",
"617 643 OFFCURVE",
"527 712 OFFCURVE",
"384 712 CURVE SMOOTH",
"217 712 OFFCURVE",
"94 617 OFFCURVE",
"94 474 CURVE SMOOTH",
"94 393 OFFCURVE",
"147 336 OFFCURVE",
"235 305 CURVE SMOOTH",
"309 279 OFFCURVE",
"381 257 OFFCURVE",
"381 204 CURVE SMOOTH",
"381 161 OFFCURVE",
"345 131 OFFCURVE",
"295 131 CURVE SMOOTH",
"247 131 OFFCURVE",
"212 159 OFFCURVE",
"219 212 CURVE",
"36 212 LINE",
"14 67 OFFCURVE",
"119 -12 OFFCURVE",
"273 -12 CURVE SMOOTH"
);
}
);
width = 619;
},
{
anchors = (
{
name = bottom;
position = "{228, 0}";
},
{
name = top;
position = "{352, 700}";
}
);
layerId = "90D50F69-F6F7-4633-9462-ED0440D3064F";
paths = (
{
closed = 1;
nodes = (
"384 -12 OFFCURVE",
"471 71 OFFCURVE",
"490 179 CURVE SMOOTH",
"507 274 OFFCURVE",
"459 322 OFFCURVE",
"395 354 CURVE SMOOTH",
"285 408 OFFCURVE",
"127 416 OFFCURVE",
"150 550 CURVE SMOOTH",
"163 623 OFFCURVE",
"222 692 OFFCURVE",
"349 692 CURVE SMOOTH",
"449 692 OFFCURVE",
"520 650 OFFCURVE",
"498 528 CURVE",
"520 528 LINE",
"543 658 OFFCURVE",
"464 712 OFFCURVE",
"353 712 CURVE SMOOTH",
"222 712 OFFCURVE",
"144 637 OFFCURVE",
"128 550 CURVE SMOOTH",
"114 467 OFFCURVE",
"159 424 OFFCURVE",
"232 393 CURVE SMOOTH",
"337 348 OFFCURVE",
"495 333 OFFCURVE",
"468 179 CURVE SMOOTH",
"451 84 OFFCURVE",
"377 8 OFFCURVE",
"236 8 CURVE SMOOTH",
"80 8 OFFCURVE",
"35 102 OFFCURVE",
"56 210 CURVE",
"34 210 LINE",
"11 87 OFFCURVE",
"67 -12 OFFCURVE",
"233 -12 CURVE SMOOTH"
);
}
);
width = 543;
},
{
anchors = (
{
name = bottom;
position = "{212, 0}";
},
{
name = top;
position = "{360, 700}";
}
);
layerId = "973C19EE-3504-4BDF-BF6D-4817D3AD4E7D";
paths = (
{
closed = 1;
nodes = (
"417 -12 OFFCURVE",
"519 76 OFFCURVE",
"519 209 CURVE SMOOTH",
"519 296 OFFCURVE",
"459 349 OFFCURVE",
"379 378 CURVE SMOOTH",
"274 416 OFFCURVE",
"189 435 OFFCURVE",
"189 516 CURVE SMOOTH",
"189 595 OFFCURVE",
"252 652 OFFCURVE",
"348 652 CURVE SMOOTH",
"429 652 OFFCURVE",
"490 602 OFFCURVE",
"478 520 CURVE",
"550 520 LINE",
"570 632 OFFCURVE",
"482 712 OFFCURVE",
"356 712 CURVE SMOOTH",
"212 712 OFFCURVE",
"115 629 OFFCURVE",
"115 507 CURVE SMOOTH",
"115 437 OFFCURVE",
"156 380 OFFCURVE",
"244 348 CURVE SMOOTH",
"342 312 OFFCURVE",
"445 295 OFFCURVE",
"445 200 CURVE SMOOTH",
"445 108 OFFCURVE",
"385 47 OFFCURVE",
"269 47 CURVE SMOOTH",
"164 47 OFFCURVE",
"90 112 OFFCURVE",
"110 210 CURVE",
"37 210 LINE",
"16 66 OFFCURVE",
"115 -12 OFFCURVE",
"262 -12 CURVE SMOOTH"
);
}
);
width = 575;
},
{
anchors = (
{
name = bottom;
position = "{246, 0}";
},
{
name = top;
position = "{370, 700}";
}
);
layerId = "8231B9DE-059C-4C71-A8C4-ABDA89A7D05C";
paths = (
{
closed = 1;
nodes = (
"420 -12 OFFCURVE",
"526 77 OFFCURVE",
"526 211 CURVE SMOOTH",
"526 301 OFFCURVE",
"463 354 OFFCURVE",
"381 384 CURVE SMOOTH",
"282 419 OFFCURVE",
"201 439 OFFCURVE",
"201 515 CURVE SMOOTH",
"201 588 OFFCURVE",
"259 640 OFFCURVE",
"348 640 CURVE SMOOTH",
"427 640 OFFCURVE",
"482 588 OFFCURVE",
"470 518 CURVE",
"557 518 LINE",
"578 632 OFFCURVE",
"489 712 OFFCURVE",
"360 712 CURVE SMOOTH",
"212 712 OFFCURVE",
"112 627 OFFCURVE",
"112 502 CURVE SMOOTH",
"112 431 OFFCURVE",
"155 374 OFFCURVE",
"243 342 CURVE SMOOTH",
"337 307 OFFCURVE",
"436 290 OFFCURVE",
"436 201 CURVE SMOOTH",
"436 115 OFFCURVE",
"379 59 OFFCURVE",
"272 59 CURVE SMOOTH",
"174 59 OFFCURVE",
"105 122 OFFCURVE",
"125 210 CURVE",
"37 210 LINE",
"16 66 OFFCURVE",
"115 -12 OFFCURVE",
"263 -12 CURVE SMOOTH"
);
}
);
width = 581;
}
);
leftKerningGroup = S;
rightKerningGroup = S;
unicode = 0053;
userData = {
com.schriftgestaltung.Glyphs.ColorIndex = 4;
com.typesupply.AccentFactory.yCoordinates = {
bottom = {
name = origin;
type = glyphMetric;
};
top = {
name = capHeight;
type = fontInfo;
};
};
};
},
{
glyphname = Germandbls;
lastChange = "2023-05-19 14:03:36 +0000";
layers = (
{
guideLines = (
{
position = "{214, 191}";
}
);
layerId = "EB62C368-BB48-47C0-A466-DA94204A0DE4";
paths = (
{
closed = 1;
nodes = (
"449 -5 OFFCURVE",
"548 87 OFFCURVE",
"571 219 CURVE SMOOTH",
"595 354 OFFCURVE",
"531 433 OFFCURVE",
"392 433 CURVE SMOOTH",
"346 433 LINE",
"617 682 LINE",
"620 700 LINE",
"264 700 LINE SMOOTH",
"180 700 OFFCURVE",
"148 664 OFFCURVE",
"136 593 CURVE SMOOTH",
"32 0 LINE",
"52 0 LINE",
"155 588 LINE SMOOTH",
"168 661 OFFCURVE",
"196 682 OFFCURVE",
"266 682 CURVE SMOOTH",
"592 682 LINE",
"322 433 LINE",
"319 415 LINE",
"389 415 LINE SMOOTH",
"511 415 OFFCURVE",
"574 349 OFFCURVE",
"550 219 CURVE SMOOTH",
"526 91 OFFCURVE",
"427 16 OFFCURVE",
"338 16 CURVE SMOOTH",
"215 16 OFFCURVE",
"177 82 OFFCURVE",
"196 191 CURVE",
"175 191 LINE",
"154 68 OFFCURVE",
"202 -5 OFFCURVE",
"334 -5 CURVE SMOOTH"
);
}
);
width = 620;
},
{
layerId = "2D111E5E-352D-4630-9162-BCEF010D26CF";
paths = (
{
closed = 1;
nodes = (
"510 -6 OFFCURVE",
"590 82 OFFCURVE",
"614 216 CURVE SMOOTH",
"638 353 OFFCURVE",
"574 433 OFFCURVE",
"417 433 CURVE SMOOTH",
"401 433 LINE",
"647 646 LINE",
"656 700 LINE",
"293 700 LINE SMOOTH",
"205 700 OFFCURVE",
"153 659 OFFCURVE",
"138 571 CURVE SMOOTH",
"38 0 LINE",
"108 0 LINE",
"208 568 LINE SMOOTH",
"217 621 OFFCURVE",
"243 641 OFFCURVE",
"296 641 CURVE SMOOTH",
"560 641 LINE",
"317 429 LINE",
"309 379 LINE",
"417 379 LINE SMOOTH",
"533 379 OFFCURVE",
"563 323 OFFCURVE",
"544 215 CURVE SMOOTH",
"525 108 OFFCURVE",
"464 55 OFFCURVE",
"380 55 CURVE SMOOTH",
"291 55 OFFCURVE",
"259 111 OFFCURVE",
"276 204 CURVE",
"207 204 LINE",
"183 68 OFFCURVE",
"246 -6 OFFCURVE",
"372 -6 CURVE SMOOTH"
);
}
);
width = 674;
},
{
layerId = "A6F5E7A4-47EF-4F55-BF18-0ACACB57A720";
paths = (
{
closed = 1;
nodes = (
"519 -5 OFFCURVE",
"602 80 OFFCURVE",
"626 215 CURVE SMOOTH",
"650 353 OFFCURVE",
"576 433 OFFCURVE",
"430 433 CURVE SMOOTH",
"411 433 LINE",
"653 636 LINE",
"664 700 LINE",
"295 700 LINE SMOOTH",
"203 700 OFFCURVE",
"147 658 OFFCURVE",
"130 562 CURVE SMOOTH",
"31 0 LINE",
"115 0 LINE",
"213 559 LINE SMOOTH",
"222 610 OFFCURVE",
"246 629 OFFCURVE",
"297 629 CURVE SMOOTH",
"548 629 LINE",
"310 428 LINE",
"300 369 LINE",
"425 369 LINE SMOOTH",
"522 369 OFFCURVE",
"561 312 OFFCURVE",
"543 209 CURVE SMOOTH",
"529 132 OFFCURVE",
"484 65 OFFCURVE",
"397 65 CURVE SMOOTH",
"294 65 OFFCURVE",
"278 127 OFFCURVE",
"292 208 CURVE",
"209 208 LINE",
"185 68 OFFCURVE",
"252 -5 OFFCURVE",
"389 -5 CURVE SMOOTH"
);
}
);
width = 683;
},
{
layerId = "1615C59E-33DE-4B88-B2CC-A48C7D56A125";
paths = (
{
closed = 1;
nodes = (
"604 -6 OFFCURVE",
"701 75 OFFCURVE",
"728 226 CURVE SMOOTH",
"746 337 OFFCURVE",
"702 430 OFFCURVE",
"580 430 CURVE SMOOTH",
"568 430 LINE",
"730 571 LINE",
"753 700 LINE",
"346 700 LINE SMOOTH",
"230 700 OFFCURVE",
"141 651 OFFCURVE",
"115 506 CURVE SMOOTH",
"26 0 LINE",
"197 0 LINE",
"286 507 LINE SMOOTH",
"292 540 OFFCURVE",
"308 554 OFFCURVE",
"346 554 CURVE SMOOTH",
"531 554 LINE",
"400 436 LINE",
"380 325 LINE",
"479 325 LINE SMOOTH",
"549 325 OFFCURVE",
"579 299 OFFCURVE",
"567 226 CURVE SMOOTH",
"557 171 OFFCURVE",
"534 136 OFFCURVE",
"487 136 CURVE SMOOTH",
"440 136 OFFCURVE",
"429 171 OFFCURVE",
"439 226 CURVE",
"272 226 LINE",
"245 75 OFFCURVE",
"314 -6 OFFCURVE",
"459 -6 CURVE SMOOTH"
);
}
);
width = 788;
},
{
layerId = "90D50F69-F6F7-4633-9462-ED0440D3064F";
paths = (
{
closed = 1;
nodes = (
"452 -5 OFFCURVE",
"551 87 OFFCURVE",
"574 219 CURVE SMOOTH",
"598 354 OFFCURVE",
"534 433 OFFCURVE",
"395 433 CURVE SMOOTH",
"349 433 LINE",
"620 682 LINE",
"623 700 LINE",
"267 700 LINE SMOOTH",
"183 700 OFFCURVE",
"151 664 OFFCURVE",
"139 593 CURVE SMOOTH",
"35 0 LINE",
"55 0 LINE",
"158 588 LINE SMOOTH",
"171 661 OFFCURVE",
"199 682 OFFCURVE",
"269 682 CURVE SMOOTH",
"595 682 LINE",
"325 433 LINE",
"322 415 LINE",
"392 415 LINE SMOOTH",
"514 415 OFFCURVE",
"577 349 OFFCURVE",
"553 219 CURVE SMOOTH",
"529 91 OFFCURVE",
"430 16 OFFCURVE",
"341 16 CURVE SMOOTH",
"218 16 OFFCURVE",
"180 82 OFFCURVE",
"199 191 CURVE",
"178 191 LINE",
"157 68 OFFCURVE",
"205 -5 OFFCURVE",
"337 -5 CURVE SMOOTH"
);
}
);
width = 620;
},
{
layerId = "973C19EE-3504-4BDF-BF6D-4817D3AD4E7D";
paths = (
{
closed = 1;
nodes = (
"505 -6 OFFCURVE",
"585 82 OFFCURVE",
"609 216 CURVE SMOOTH",
"633 353 OFFCURVE",
"569 433 OFFCURVE",
"412 433 CURVE SMOOTH",
"396 433 LINE",
"642 646 LINE",
"651 700 LINE",
"288 700 LINE SMOOTH",
"200 700 OFFCURVE",
"148 659 OFFCURVE",
"133 571 CURVE SMOOTH",
"33 0 LINE",
"103 0 LINE",
"203 568 LINE SMOOTH",
"212 621 OFFCURVE",
"238 641 OFFCURVE",
"291 641 CURVE SMOOTH",
"555 641 LINE",
"312 429 LINE",
"304 379 LINE",
"412 379 LINE SMOOTH",
"528 379 OFFCURVE",
"558 323 OFFCURVE",
"539 215 CURVE SMOOTH",
"520 108 OFFCURVE",
"459 55 OFFCURVE",
"375 55 CURVE SMOOTH",
"286 55 OFFCURVE",
"254 111 OFFCURVE",
"271 204 CURVE",
"202 204 LINE",
"178 68 OFFCURVE",
"241 -6 OFFCURVE",
"367 -6 CURVE SMOOTH"
);
}
);
width = 660;
},
{
layerId = "8231B9DE-059C-4C71-A8C4-ABDA89A7D05C";
paths = (
{
closed = 1;
nodes = (
"518 -5 OFFCURVE",
"601 80 OFFCURVE",
"625 215 CURVE SMOOTH",
"649 353 OFFCURVE",
"575 433 OFFCURVE",
"429 433 CURVE SMOOTH",
"410 433 LINE",
"652 636 LINE",
"663 700 LINE",
"294 700 LINE SMOOTH",
"202 700 OFFCURVE",
"146 658 OFFCURVE",
"129 562 CURVE SMOOTH",
"30 0 LINE",
"114 0 LINE",
"212 559 LINE SMOOTH",
"221 610 OFFCURVE",
"245 629 OFFCURVE",
"296 629 CURVE SMOOTH",
"547 629 LINE",
"309 428 LINE",
"299 369 LINE",
"424 369 LINE SMOOTH",
"521 369 OFFCURVE",
"560 312 OFFCURVE",
"542 209 CURVE SMOOTH",
"528 132 OFFCURVE",
"483 65 OFFCURVE",
"396 65 CURVE SMOOTH",
"293 65 OFFCURVE",
"277 127 OFFCURVE",
"291 208 CURVE",
"208 208 LINE",
"184 68 OFFCURVE",
"251 -5 OFFCURVE",
"388 -5 CURVE SMOOTH"
);
}
);
width = 676;
},
{
layerId = "66953C5E-8AEB-4AF5-804F-512B0A9BA4E6";
paths = (
{
closed = 1;
nodes = (
"596 -6 OFFCURVE",
"693 75 OFFCURVE",
"720 226 CURVE SMOOTH",
"738 337 OFFCURVE",
"694 430 OFFCURVE",
"572 430 CURVE SMOOTH",
"560 430 LINE",
"722 571 LINE",
"745 700 LINE",
"338 700 LINE SMOOTH",
"222 700 OFFCURVE",
"133 651 OFFCURVE",
"107 506 CURVE SMOOTH",
"18 0 LINE",
"189 0 LINE",
"278 507 LINE SMOOTH",
"284 540 OFFCURVE",
"300 554 OFFCURVE",
"338 554 CURVE SMOOTH",
"523 554 LINE",
"392 436 LINE",
"372 325 LINE",
"471 325 LINE SMOOTH",
"541 325 OFFCURVE",
"571 299 OFFCURVE",
"559 226 CURVE SMOOTH",
"549 171 OFFCURVE",
"526 136 OFFCURVE",
"479 136 CURVE SMOOTH",
"432 136 OFFCURVE",
"421 171 OFFCURVE",
"431 226 CURVE",
"264 226 LINE",
"237 75 OFFCURVE",
"306 -6 OFFCURVE",
"451 -6 CURVE SMOOTH"
);
}
);
width = 768;
},
{
layerId = "5D382461-81E1-4DF2-8677-8A6F02AD5363";
paths = (
{
closed = 1;
nodes = (
"419 -5 OFFCURVE",
"518 87 OFFCURVE",
"541 219 CURVE SMOOTH",
"565 354 OFFCURVE",
"501 433 OFFCURVE",
"362 433 CURVE SMOOTH",
"316 433 LINE",
"587 682 LINE",
"590 700 LINE",
"234 700 LINE SMOOTH",
"150 700 OFFCURVE",
"118 664 OFFCURVE",
"106 593 CURVE SMOOTH",
"2 0 LINE",
"22 0 LINE",
"125 588 LINE SMOOTH",
"138 661 OFFCURVE",
"166 682 OFFCURVE",
"236 682 CURVE SMOOTH",
"562 682 LINE",
"292 433 LINE",
"289 415 LINE",
"359 415 LINE SMOOTH",
"481 415 OFFCURVE",
"544 349 OFFCURVE",
"520 219 CURVE SMOOTH",
"496 91 OFFCURVE",
"397 16 OFFCURVE",
"308 16 CURVE SMOOTH",
"185 16 OFFCURVE",
"147 82 OFFCURVE",
"166 191 CURVE",
"145 191 LINE",
"124 68 OFFCURVE",
"172 -5 OFFCURVE",
"304 -5 CURVE SMOOTH"
);
}
);
width = 571;
},
{
layerId = "3B8883BF-F483-4B97-AC7C-CABF8B821093";
paths = (
{
closed = 1;
nodes = (
"474 -6 OFFCURVE",
"554 82 OFFCURVE",
"578 216 CURVE SMOOTH",
"602 353 OFFCURVE",
"538 433 OFFCURVE",
"381 433 CURVE SMOOTH",
"365 433 LINE",
"611 646 LINE",
"620 700 LINE",
"257 700 LINE SMOOTH",
"169 700 OFFCURVE",
"117 659 OFFCURVE",
"102 571 CURVE SMOOTH",
"2 0 LINE",
"72 0 LINE",
"172 568 LINE SMOOTH",
"181 621 OFFCURVE",
"207 641 OFFCURVE",
"260 641 CURVE SMOOTH",
"524 641 LINE",
"281 429 LINE",
"273 379 LINE",
"381 379 LINE SMOOTH",
"497 379 OFFCURVE",
"527 323 OFFCURVE",
"508 215 CURVE SMOOTH",
"489 108 OFFCURVE",
"428 55 OFFCURVE",
"344 55 CURVE SMOOTH",
"255 55 OFFCURVE",
"223 111 OFFCURVE",
"240 204 CURVE",
"171 204 LINE",
"147 68 OFFCURVE",
"210 -6 OFFCURVE",
"336 -6 CURVE SMOOTH"
);
}
);
width = 609;
},
{
layerId = "F5F01D5B-AEA3-4AC3-B3D8-92550D1582D7";
paths = (
{
closed = 1;
nodes = (
"489 -5 OFFCURVE",
"572 80 OFFCURVE",
"596 215 CURVE SMOOTH",
"620 353 OFFCURVE",
"546 433 OFFCURVE",
"400 433 CURVE SMOOTH",
"381 433 LINE",
"623 636 LINE",
"634 700 LINE",
"265 700 LINE SMOOTH",
"173 700 OFFCURVE",
"117 658 OFFCURVE",
"100 562 CURVE SMOOTH",
"1 0 LINE",
"85 0 LINE",
"183 559 LINE SMOOTH",
"192 610 OFFCURVE",
"216 629 OFFCURVE",
"267 629 CURVE SMOOTH",
"518 629 LINE",
"280 428 LINE",
"270 369 LINE",
"395 369 LINE SMOOTH",
"492 369 OFFCURVE",
"531 312 OFFCURVE",
"513 209 CURVE SMOOTH",
"499 132 OFFCURVE",
"454 65 OFFCURVE",
"367 65 CURVE SMOOTH",
"264 65 OFFCURVE",
"248 127 OFFCURVE",
"262 208 CURVE",
"179 208 LINE",
"155 68 OFFCURVE",
"222 -5 OFFCURVE",
"359 -5 CURVE SMOOTH"
);
}
);
width = 627;
},
{
layerId = "A390C1A2-E540-434D-BB9E-4BCEE875BA63";
paths = (
{
closed = 1;
nodes = (
"579 -6 OFFCURVE",
"676 75 OFFCURVE",
"703 226 CURVE SMOOTH",
"721 337 OFFCURVE",
"677 430 OFFCURVE",
"555 430 CURVE SMOOTH",
"543 430 LINE",
"705 571 LINE",
"728 700 LINE",
"321 700 LINE SMOOTH",
"205 700 OFFCURVE",
"116 651 OFFCURVE",
"90 506 CURVE SMOOTH",
"1 0 LINE",
"172 0 LINE",
"261 507 LINE SMOOTH",
"267 540 OFFCURVE",
"283 554 OFFCURVE",
"321 554 CURVE SMOOTH",
"506 554 LINE",
"375 436 LINE",
"355 325 LINE",
"454 325 LINE SMOOTH",
"524 325 OFFCURVE",
"554 299 OFFCURVE",
"542 226 CURVE SMOOTH",
"532 171 OFFCURVE",
"509 136 OFFCURVE",
"462 136 CURVE SMOOTH",
"415 136 OFFCURVE",
"404 171 OFFCURVE",
"414 226 CURVE",
"247 226 LINE",
"220 75 OFFCURVE",
"289 -6 OFFCURVE",
"434 -6 CURVE SMOOTH"
);
}
);
width = 732;
}
);
leftMetricsKey = F;
rightMetricsKey = S;
unicode = 1E9E;
},
